SplineFontDB: 3.2
FontName: NotoSansMath-Regular
FullName: Noto Sans Math Regular
FamilyName: Noto Sans Math
Weight: Book
Copyright: Copyright 2022 Google LLC. All Rights Reserved.
Version: 3.0
ItalicAngle: 0
UnderlinePosition: -430.08
UnderlineWidth: 145.408
Ascent: 1638
Descent: 410
InvalidEm: 0
sfntRevision: 0x00030000
LayerCount: 2
Layer: 0 0 "Back" 1
Layer: 1 0 "Fore" 0
XUID: [1021 282 2012869056 2741337]
StyleMap: 0x0040
FSType: 0
OS2Version: 4
OS2_WeightWidthSlopeOnly: 0
OS2_UseTypoMetrics: 1
CreationTime: 1676442046
ModificationTime: 1719091942
PfmFamily: 81
TTFWeight: 400
TTFWidth: 5
LineGap: 0
VLineGap: 0
Panose: 0 0 0 0 0 0 0 0 0 0
OS2TypoAscent: 2189
OS2TypoAOffset: 0
OS2TypoDescent: -866
OS2TypoDOffset: 0
OS2TypoLinegap: 0
OS2WinAscent: 6359
OS2WinAOffset: 0
OS2WinDescent: 5222
OS2WinDOffset: 0
HheadAscent: 2189
HheadAOffset: 0
HheadDescent: -866
HheadDOffset: 0
OS2SubXSize: 1331
OS2SubYSize: 1229
OS2SubXOff: 0
OS2SubYOff: 154
OS2SupXSize: 1331
OS2SupYSize: 1229
OS2SupXOff: 0
OS2SupYOff: 717
OS2StrikeYSize: 145
OS2StrikeYPos: 659
OS2CapHeight: 1462
OS2XHeight: 1098
OS2Vendor: 'GOOG'
OS2CodePages: 40000045.00080000
OS2UnicodeRanges: 800022ff.0201fdee.02000010.00000000
Lookup: 1 0 0 "'aalt' Access All Alternates lookup 0" { "'aalt' Access All Alternates lookup 0 subtable"  } ['aalt' ('DFLT' <'dflt' > 'cyrl' <'MKD ' 'SRB ' 'dflt' > 'grek' <'APPH' 'IPPH' 'dflt' > 'latn' <'APPH' 'CAT ' 'IPPH' 'MAH ' 'MOL ' 'NAV ' 'ROM ' 'dflt' > 'math' <'dflt' > ) ]
Lookup: 3 0 0 "'aalt' Access All Alternates lookup 1" { "'aalt' Access All Alternates lookup 1 subtable"  } ['aalt' ('DFLT' <'dflt' > 'cyrl' <'MKD ' 'SRB ' 'dflt' > 'grek' <'APPH' 'IPPH' 'dflt' > 'latn' <'APPH' 'CAT ' 'IPPH' 'MAH ' 'MOL ' 'NAV ' 'ROM ' 'dflt' > 'math' <'dflt' > ) ]

StartChar: .notdef
Encoding: 1114112 -1 0
Width: 1228
GlyphClass: 2
Flags: HW
AnchorPoint: "Anchor-1" 614 731 basechar 0
LayerCount: 2
Fore
SplineSet
195 0 m 1
 195 1462 l 1
 1034 1462 l 1
 1034 0 l 1
 195 0 l 1
299 104 m 1
 932 104 l 1
 932 1358 l 1
 299 1358 l 1
 299 104 l 1
EndSplineSet
EndChar

StartChar: A
Encoding: 65 65 4
AltUni2: 01d5a0.ffffffff.0 01d5a0.ffffffff.0
Width: 1308
GlyphClass: 2
Flags: HW
TopAccentHorizontal: 651
AnchorPoint: "Anchor-3" 1063 1462 basechar 0
AnchorPoint: "Anchor-2" 651 1462 basechar 0
AnchorPoint: "Anchor-1" 653 733 basechar 0
AnchorPoint: "Anchor-0" 664 0 basechar 0
LayerCount: 2
Fore
SplineSet
0 0 m 1
 571 1468 l 1
 737 1468 l 1
 1307 0 l 1
 1116 0 l 1
 940 453 l 1
 360 453 l 1
 186 0 l 1
 0 0 l 1
422 616 m 1
 885 616 l 1
 721 1059 l 2
 709 1092 665 1227 651 1278 c 1
 631 1194 604 1106 588 1059 c 2
 422 616 l 1
EndSplineSet
AlternateSubs2: "'ssty' Math Script Style lookup 8 subtable" A.ssty1 A.ssty2
AlternateSubs2: "'aalt' Access All Alternates lookup 1 subtable" A.ssty1 A.ssty2
EndChar

StartChar: B
Encoding: 66 66 5
AltUni2: 01d5a1.ffffffff.0 01d5a1.ffffffff.0
Width: 1331
GlyphClass: 2
Flags: HW
TopAccentHorizontal: 659
AnchorPoint: "Anchor-3" 1290 1462 basechar 0
AnchorPoint: "Anchor-2" 659 1462 basechar 0
AnchorPoint: "Anchor-1" 709 731 basechar 0
AnchorPoint: "Anchor-0" 645 0 basechar 0
LayerCount: 2
Fore
SplineSet
199 0 m 1
 199 1462 l 1
 616 1462 l 2
 981 1462 1171 1366 1171 1100 c 0
 1171 928 1073 809 893 776 c 1
 893 766 l 1
 1077 735 1221 643 1221 416 c 0
 1221 150 1026 0 713 0 c 2
 199 0 l 1
383 840 m 1
 653 840 l 2
 903 840 981 921 981 1079 c 0
 981 1239 873 1305 625 1305 c 2
 383 1305 l 1
 383 840 l 1
383 156 m 1
 678 156 l 2
 936 156 1024 266 1024 430 c 0
 1024 584 934 686 664 686 c 2
 383 686 l 1
 383 156 l 1
EndSplineSet
AlternateSubs2: "'ssty' Math Script Style lookup 8 subtable" B.ssty1 B.ssty2
AlternateSubs2: "'aalt' Access All Alternates lookup 1 subtable" B.ssty1 B.ssty2
EndChar

StartChar: C
Encoding: 67 67 6
AltUni2: 01d5a2.ffffffff.0 01d5a2.ffffffff.0
Width: 1294
GlyphClass: 2
Flags: HW
TopAccentHorizontal: 778
AnchorPoint: "Anchor-3" 1253 1462 basechar 0
AnchorPoint: "Anchor-2" 778 1462 basechar 0
AnchorPoint: "Anchor-1" 678 731 basechar 0
AnchorPoint: "Anchor-0" 762 0 basechar 0
LayerCount: 2
Fore
SplineSet
797 -20 m 0
 348 -20 125 272 125 733 c 0
 125 1175 374 1483 827 1483 c 0
 977 1483 1120 1452 1231 1397 c 1
 1157 1241 l 1
 1067 1282 956 1321 825 1321 c 0
 512 1321 319 1098 319 731 c 0
 319 369 487 141 823 141 c 0
 950 141 1063 166 1174 199 c 1
 1174 39 l 1
 1065 -2 959 -20 797 -20 c 0
EndSplineSet
AlternateSubs2: "'ssty' Math Script Style lookup 8 subtable" C.ssty1 C.ssty2
AlternateSubs2: "'aalt' Access All Alternates lookup 1 subtable" C.ssty1 C.ssty2
EndChar

StartChar: D
Encoding: 68 68 7
AltUni2: 01d5a3.ffffffff.0 01d5a3.ffffffff.0
Width: 1495
GlyphClass: 2
Flags: HW
TopAccentHorizontal: 739
AnchorPoint: "Anchor-3" 1454 1462 basechar 0
AnchorPoint: "Anchor-2" 739 1462 basechar 0
AnchorPoint: "Anchor-1" 748 731 basechar 0
AnchorPoint: "Anchor-0" 700 0 basechar 0
LayerCount: 2
Fore
SplineSet
199 0 m 1
 199 1462 l 1
 649 1462 l 2
 1089 1462 1370 1214 1370 745 c 0
 1370 251 1087 0 606 0 c 2
 199 0 l 1
383 158 m 1
 582 158 l 2
 977 158 1176 354 1176 739 c 0
 1176 1128 975 1305 623 1305 c 2
 383 1305 l 1
 383 158 l 1
EndSplineSet
AlternateSubs2: "'ssty' Math Script Style lookup 8 subtable" D.ssty1 D.ssty2
AlternateSubs2: "'aalt' Access All Alternates lookup 1 subtable" D.ssty1 D.ssty2
EndChar

StartChar: E
Encoding: 69 69 8
AltUni2: 01d5a4.ffffffff.0 01d5a4.ffffffff.0
Width: 1138
GlyphClass: 2
Flags: HW
TopAccentHorizontal: 625
AnchorPoint: "Anchor-3" 1098 1462 basechar 0
AnchorPoint: "Anchor-2" 625 1462 basechar 0
AnchorPoint: "Anchor-1" 606 731 basechar 0
AnchorPoint: "Anchor-0" 614 0 basechar 0
LayerCount: 2
Fore
SplineSet
199 0 m 1
 199 1462 l 1
 1016 1462 l 1
 1016 1300 l 1
 383 1300 l 1
 383 844 l 1
 979 844 l 1
 979 684 l 1
 383 684 l 1
 383 162 l 1
 1016 162 l 1
 1016 0 l 1
 199 0 l 1
EndSplineSet
AlternateSubs2: "'ssty' Math Script Style lookup 8 subtable" E.ssty1 E.ssty2
AlternateSubs2: "'aalt' Access All Alternates lookup 1 subtable" E.ssty1 E.ssty2
EndChar

StartChar: F
Encoding: 70 70 9
AltUni2: 01d5a5.ffffffff.0 01d5a5.ffffffff.0
Width: 1062
GlyphClass: 2
Flags: HW
TopAccentHorizontal: 610
AnchorPoint: "Anchor-3" 1022 1462 basechar 0
AnchorPoint: "Anchor-2" 610 1462 basechar 0
AnchorPoint: "Anchor-1" 606 731 basechar 0
AnchorPoint: "Anchor-0" 532 0 basechar 0
LayerCount: 2
Fore
SplineSet
199 0 m 1
 199 1462 l 1
 1016 1462 l 1
 1016 1300 l 1
 383 1300 l 1
 383 782 l 1
 977 782 l 1
 977 621 l 1
 383 621 l 1
 383 0 l 1
 199 0 l 1
EndSplineSet
AlternateSubs2: "'ssty' Math Script Style lookup 8 subtable" F.ssty1 F.ssty2
AlternateSubs2: "'aalt' Access All Alternates lookup 1 subtable" F.ssty1 F.ssty2
EndChar

StartChar: G
Encoding: 71 71 10
AltUni2: 01d5a6.ffffffff.0 01d5a6.ffffffff.0
Width: 1490
GlyphClass: 2
Flags: HW
TopAccentHorizontal: 829
AnchorPoint: "Anchor-3" 1450 1462 basechar 0
AnchorPoint: "Anchor-2" 829 1462 basechar 0
AnchorPoint: "Anchor-1" 731 731 basechar 0
AnchorPoint: "Anchor-0" 823 0 basechar 0
LayerCount: 2
Fore
SplineSet
825 -20 m 0
 370 -20 125 268 125 731 c 0
 125 1188 404 1483 883 1483 c 0
 1047 1483 1194 1450 1319 1397 c 1
 1249 1237 l 1
 1145 1282 1011 1321 872 1321 c 0
 522 1321 317 1096 317 731 c 0
 317 381 475 139 868 139 c 0
 997 139 1081 156 1155 174 c 1
 1155 608 l 1
 834 608 l 1
 834 772 l 1
 1339 772 l 1
 1339 55 l 1
 1181 4 1030 -20 825 -20 c 0
EndSplineSet
AlternateSubs2: "'ssty' Math Script Style lookup 8 subtable" G.ssty1 G.ssty2
AlternateSubs2: "'aalt' Access All Alternates lookup 1 subtable" G.ssty1 G.ssty2
EndChar

StartChar: H
Encoding: 72 72 11
AltUni2: 01d5a7.ffffffff.0 01d5a7.ffffffff.0
Width: 1517
GlyphClass: 2
Flags: HW
TopAccentHorizontal: 760
AnchorPoint: "Anchor-3" 1477 1462 basechar 0
AnchorPoint: "Anchor-2" 760 1462 basechar 0
AnchorPoint: "Anchor-1" 760 731 basechar 0
AnchorPoint: "Anchor-0" 754 0 basechar 0
LayerCount: 2
Fore
SplineSet
199 0 m 1
 199 1462 l 1
 383 1462 l 1
 383 844 l 1
 1133 844 l 1
 1133 1462 l 1
 1317 1462 l 1
 1317 0 l 1
 1133 0 l 1
 1133 682 l 1
 383 682 l 1
 383 0 l 1
 199 0 l 1
EndSplineSet
AlternateSubs2: "'ssty' Math Script Style lookup 8 subtable" H.ssty1 H.ssty2
AlternateSubs2: "'aalt' Access All Alternates lookup 1 subtable" H.ssty1 H.ssty2
EndChar

StartChar: I
Encoding: 73 73 12
AltUni2: 01d5a8.ffffffff.0 01d5a8.ffffffff.0
Width: 694
GlyphClass: 2
Flags: HW
TopAccentHorizontal: 348
AnchorPoint: "Anchor-3" 653 1462 basechar 0
AnchorPoint: "Anchor-2" 348 1462 basechar 0
AnchorPoint: "Anchor-1" 346 731 basechar 0
AnchorPoint: "Anchor-0" 348 0 basechar 0
LayerCount: 2
Fore
SplineSet
82 0 m 1
 82 106 l 1
 254 145 l 1
 254 1315 l 1
 82 1356 l 1
 82 1462 l 1
 610 1462 l 1
 610 1356 l 1
 438 1315 l 1
 438 145 l 1
 610 106 l 1
 610 0 l 1
 82 0 l 1
EndSplineSet
AlternateSubs2: "'ssty' Math Script Style lookup 8 subtable" I.ssty1 I.ssty2
AlternateSubs2: "'aalt' Access All Alternates lookup 1 subtable" I.ssty1 I.ssty2
EndChar

StartChar: J
Encoding: 74 74 13
AltUni2: 01d5a9.ffffffff.0 01d5a9.ffffffff.0
Width: 759
GlyphClass: 2
Flags: HW
TopAccentHorizontal: 481
AnchorPoint: "Anchor-3" 719 1462 basechar 0
AnchorPoint: "Anchor-2" 481 1462 basechar 0
AnchorPoint: "Anchor-1" 307 537 basechar 0
AnchorPoint: "Anchor-0" 193 -348 basechar 0
LayerCount: 2
Fore
SplineSet
193 -389 m 0
 127 -389 78 -378 41 -362 c 1
 41 -207 l 1
 84 -219 133 -227 188 -227 c 0
 290 -227 389 -178 389 8 c 2
 389 1462 l 1
 573 1462 l 1
 573 23 l 2
 573 -260 422 -389 193 -389 c 0
EndSplineSet
AlternateSubs2: "'ssty' Math Script Style lookup 8 subtable" J.ssty1 J.ssty2
AlternateSubs2: "'aalt' Access All Alternates lookup 1 subtable" J.ssty1 J.ssty2
EndChar

StartChar: K
Encoding: 75 75 14
AltUni2: 01d5aa.ffffffff.0 01d5aa.ffffffff.0
Width: 1267
GlyphClass: 2
Flags: HW
TopAccentHorizontal: 696
AnchorPoint: "Anchor-3" 1227 1462 basechar 0
AnchorPoint: "Anchor-2" 696 1462 basechar 0
AnchorPoint: "Anchor-1" 733 731 basechar 0
AnchorPoint: "Anchor-0" 676 0 basechar 0
LayerCount: 2
Fore
SplineSet
199 0 m 1
 199 1462 l 1
 383 1462 l 1
 383 741 l 1
 467 833 551 926 635 1020 c 2
 1030 1462 l 1
 1245 1462 l 1
 666 825 l 1
 1268 0 l 1
 1051 0 l 1
 532 698 l 1
 383 567 l 1
 383 0 l 1
 199 0 l 1
EndSplineSet
AlternateSubs2: "'ssty' Math Script Style lookup 8 subtable" K.ssty1 K.ssty2
AlternateSubs2: "'aalt' Access All Alternates lookup 1 subtable" K.ssty1 K.ssty2
EndChar

StartChar: L
Encoding: 76 76 15
AltUni2: 01d5ab.ffffffff.0 01d5ab.ffffffff.0
Width: 1073
GlyphClass: 2
Flags: HW
TopAccentHorizontal: 287
AnchorPoint: "Anchor-3" 745 1462 basechar 0
AnchorPoint: "Anchor-2" 287 1462 basechar 0
AnchorPoint: "Anchor-1" 537 731 basechar 0
AnchorPoint: "Anchor-0" 614 0 basechar 0
LayerCount: 2
Fore
SplineSet
199 0 m 1
 199 1462 l 1
 383 1462 l 1
 383 164 l 1
 1022 164 l 1
 1022 0 l 1
 199 0 l 1
EndSplineSet
AlternateSubs2: "'ssty' Math Script Style lookup 8 subtable" L.ssty1 L.ssty2
AlternateSubs2: "'aalt' Access All Alternates lookup 1 subtable" L.ssty1 L.ssty2
EndChar

StartChar: M
Encoding: 77 77 16
AltUni2: 01d5ac.ffffffff.0 01d5ac.ffffffff.0
Width: 1857
GlyphClass: 2
Flags: HW
TopAccentHorizontal: 930
AnchorPoint: "Anchor-3" 1817 1462 basechar 0
AnchorPoint: "Anchor-2" 930 1462 basechar 0
AnchorPoint: "Anchor-1" 928 731 basechar 0
AnchorPoint: "Anchor-0" 918 0 basechar 0
LayerCount: 2
Fore
SplineSet
199 0 m 1
 199 1462 l 1
 471 1462 l 1
 922 264 l 1
 930 264 l 1
 1389 1462 l 1
 1659 1462 l 1
 1659 0 l 1
 1477 0 l 1
 1477 899 l 2
 1477 1040 1485 1192 1491 1280 c 1
 1483 1280 l 1
 995 0 l 1
 844 0 l 1
 362 1282 l 1
 354 1282 l 1
 362 1198 369 1043 369 887 c 2
 369 0 l 1
 199 0 l 1
EndSplineSet
AlternateSubs2: "'ssty' Math Script Style lookup 8 subtable" M.ssty1 M.ssty2
AlternateSubs2: "'aalt' Access All Alternates lookup 1 subtable" M.ssty1 M.ssty2
EndChar

StartChar: N
Encoding: 78 78 17
AltUni2: 01d5ad.ffffffff.0 01d5ad.ffffffff.0
Width: 1556
GlyphClass: 2
Flags: HW
TopAccentHorizontal: 778
AnchorPoint: "Anchor-3" 1516 1462 basechar 0
AnchorPoint: "Anchor-2" 778 1462 basechar 0
AnchorPoint: "Anchor-1" 778 731 basechar 0
AnchorPoint: "Anchor-0" 778 0 basechar 0
LayerCount: 2
Fore
SplineSet
199 0 m 1
 199 1462 l 1
 412 1462 l 1
 1192 252 l 1
 1200 252 l 1
 1196 318 1186 504 1186 637 c 2
 1186 1462 l 1
 1358 1462 l 1
 1358 0 l 1
 1143 0 l 1
 360 1214 l 1
 352 1214 l 1
 360 1118 369 967 369 817 c 2
 369 0 l 1
 199 0 l 1
EndSplineSet
AlternateSubs2: "'ssty' Math Script Style lookup 8 subtable" N.ssty1 N.ssty2
AlternateSubs2: "'aalt' Access All Alternates lookup 1 subtable" N.ssty1 N.ssty2
EndChar

StartChar: O
Encoding: 79 79 18
AltUni2: 01d5ae.ffffffff.0 01d5ae.ffffffff.0
Width: 1599
GlyphClass: 2
Flags: HW
TopAccentHorizontal: 801
AnchorPoint: "Anchor-3" 1559 1462 basechar 0
AnchorPoint: "Anchor-2" 801 1462 basechar 0
AnchorPoint: "Anchor-1" 801 731 basechar 0
AnchorPoint: "Anchor-0" 803 0 basechar 0
LayerCount: 2
Fore
SplineSet
801 -20 m 0
 344 -20 125 282 125 735 c 0
 125 1184 344 1485 803 1485 c 0
 1241 1485 1475 1188 1475 733 c 0
 1475 280 1241 -20 801 -20 c 0
801 139 m 0
 1133 139 1280 364 1280 733 c 0
 1280 1102 1133 1323 803 1323 c 0
 471 1323 319 1102 319 733 c 0
 319 364 471 139 801 139 c 0
EndSplineSet
AlternateSubs2: "'ssty' Math Script Style lookup 8 subtable" O.ssty1 O.ssty2
AlternateSubs2: "'aalt' Access All Alternates lookup 1 subtable" O.ssty1 O.ssty2
EndChar

StartChar: P
Encoding: 80 80 19
AltUni2: 01d5af.ffffffff.0 01d5af.ffffffff.0
Width: 1239
GlyphClass: 2
Flags: HW
TopAccentHorizontal: 649
AnchorPoint: "Anchor-3" 1198 1462 basechar 0
AnchorPoint: "Anchor-2" 649 1462 basechar 0
AnchorPoint: "Anchor-1" 666 731 basechar 0
AnchorPoint: "Anchor-0" 621 0 basechar 0
LayerCount: 2
Fore
SplineSet
199 0 m 1
 199 1462 l 1
 586 1462 l 2
 969 1462 1135 1304 1135 1032 c 0
 1135 790 989 569 551 569 c 2
 383 569 l 1
 383 0 l 1
 199 0 l 1
383 727 m 1
 530 727 l 2
 809 727 944 809 944 1024 c 0
 944 1212 827 1305 569 1305 c 2
 383 1305 l 1
 383 727 l 1
EndSplineSet
AlternateSubs2: "'ssty' Math Script Style lookup 8 subtable" P.ssty1 P.ssty2
AlternateSubs2: "'aalt' Access All Alternates lookup 1 subtable" P.ssty1 P.ssty2
EndChar

StartChar: Q
Encoding: 81 81 20
AltUni2: 01d5b0.ffffffff.0 01d5b0.ffffffff.0
Width: 1599
GlyphClass: 2
Flags: HW
TopAccentHorizontal: 801
AnchorPoint: "Anchor-3" 1559 1462 basechar 0
AnchorPoint: "Anchor-2" 801 1462 basechar 0
AnchorPoint: "Anchor-1" 799 567 basechar 0
AnchorPoint: "Anchor-0" 801 -348 basechar 0
LayerCount: 2
Fore
SplineSet
1135 -348 m 1
 852 -18 l 1
 823 -20 817 -20 801 -20 c 0
 344 -20 125 282 125 735 c 0
 125 1184 344 1485 803 1485 c 0
 1241 1485 1475 1188 1475 733 c 0
 1475 375 1330 110 1049 16 c 1
 1399 -348 l 1
 1135 -348 l 1
801 139 m 0
 1133 139 1280 364 1280 733 c 0
 1280 1102 1133 1323 803 1323 c 0
 471 1323 319 1102 319 733 c 0
 319 364 471 139 801 139 c 0
EndSplineSet
AlternateSubs2: "'ssty' Math Script Style lookup 8 subtable" Q.ssty1 Q.ssty2
AlternateSubs2: "'aalt' Access All Alternates lookup 1 subtable" Q.ssty1 Q.ssty2
EndChar

StartChar: R
Encoding: 82 82 21
AltUni2: 01d5b1.ffffffff.0 01d5b1.ffffffff.0
Width: 1273
GlyphClass: 2
Flags: HW
TopAccentHorizontal: 637
AnchorPoint: "Anchor-3" 1233 1462 basechar 0
AnchorPoint: "Anchor-2" 637 1462 basechar 0
AnchorPoint: "Anchor-1" 721 731 basechar 0
AnchorPoint: "Anchor-0" 672 0 basechar 0
LayerCount: 2
Fore
SplineSet
199 0 m 1
 199 1462 l 1
 602 1462 l 2
 964 1462 1135 1326 1135 1047 c 0
 1135 814 989 706 842 655 c 1
 1243 0 l 1
 1028 0 l 1
 674 604 l 1
 383 604 l 1
 383 0 l 1
 199 0 l 1
383 760 m 1
 602 760 l 2
 840 760 944 854 944 1038 c 0
 944 1228 832 1303 592 1303 c 2
 383 1303 l 1
 383 760 l 1
EndSplineSet
AlternateSubs2: "'ssty' Math Script Style lookup 8 subtable" R.ssty1 R.ssty2
AlternateSubs2: "'aalt' Access All Alternates lookup 1 subtable" R.ssty1 R.ssty2
EndChar

StartChar: S
Encoding: 83 83 22
AltUni2: 01d5b2.ffffffff.0 01d5b2.ffffffff.0
Width: 1124
GlyphClass: 2
Flags: HW
TopAccentHorizontal: 584
AnchorPoint: "Anchor-3" 1083 1462 basechar 0
AnchorPoint: "Anchor-2" 584 1462 basechar 0
AnchorPoint: "Anchor-1" 565 731 basechar 0
AnchorPoint: "Anchor-0" 526 0 basechar 0
LayerCount: 2
Fore
SplineSet
506 -20 m 0
 342 -20 196 4 104 49 c 1
 104 225 l 1
 202 182 358 139 514 139 c 0
 731 139 844 230 844 375 c 0
 844 518 764 580 500 676 c 0
 250 766 123 883 123 1110 c 0
 123 1341 314 1483 590 1483 c 0
 750 1483 882 1450 993 1401 c 1
 936 1243 l 1
 834 1286 713 1321 586 1321 c 0
 404 1321 309 1235 309 1108 c 0
 309 961 391 901 629 813 c 0
 887 717 1028 620 1028 391 c 0
 1028 131 825 -20 506 -20 c 0
EndSplineSet
AlternateSubs2: "'ssty' Math Script Style lookup 8 subtable" S.ssty1 S.ssty2
AlternateSubs2: "'aalt' Access All Alternates lookup 1 subtable" S.ssty1 S.ssty2
EndChar

StartChar: T
Encoding: 84 84 23
AltUni2: 01d5b3.ffffffff.0 01d5b3.ffffffff.0
Width: 1138
GlyphClass: 2
Flags: HW
TopAccentHorizontal: 569
AnchorPoint: "Anchor-3" 1098 1462 basechar 0
AnchorPoint: "Anchor-2" 569 1462 basechar 0
AnchorPoint: "Anchor-1" 569 731 basechar 0
AnchorPoint: "Anchor-0" 569 0 basechar 0
LayerCount: 2
Fore
SplineSet
477 0 m 1
 477 1300 l 1
 20 1300 l 1
 20 1462 l 1
 1116 1462 l 1
 1116 1300 l 1
 662 1300 l 1
 662 0 l 1
 477 0 l 1
EndSplineSet
AlternateSubs2: "'ssty' Math Script Style lookup 8 subtable" T.ssty1 T.ssty2
AlternateSubs2: "'aalt' Access All Alternates lookup 1 subtable" T.ssty1 T.ssty2
EndChar

StartChar: U
Encoding: 85 85 24
AltUni2: 01d5b4.ffffffff.0 01d5b4.ffffffff.0
Width: 1497
GlyphClass: 2
Flags: HW
TopAccentHorizontal: 750
AnchorPoint: "Anchor-3" 1456 1462 basechar 0
AnchorPoint: "Anchor-2" 750 1462 basechar 0
AnchorPoint: "Anchor-1" 748 721 basechar 0
AnchorPoint: "Anchor-0" 745 0 basechar 0
LayerCount: 2
Fore
SplineSet
741 -20 m 0
 376 -20 184 194 184 520 c 2
 184 1462 l 1
 369 1462 l 1
 369 514 l 2
 369 276 496 139 752 139 c 0
 1016 139 1128 295 1128 516 c 2
 1128 1462 l 1
 1311 1462 l 1
 1311 516 l 2
 1311 213 1128 -20 741 -20 c 0
EndSplineSet
AlternateSubs2: "'ssty' Math Script Style lookup 8 subtable" U.ssty1 U.ssty2
AlternateSubs2: "'aalt' Access All Alternates lookup 1 subtable" U.ssty1 U.ssty2
EndChar

StartChar: V
Encoding: 86 86 25
AltUni2: 01d5b5.ffffffff.0 01d5b5.ffffffff.0
Width: 1228
GlyphClass: 2
Flags: HW
TopAccentHorizontal: 621
AnchorPoint: "Anchor-3" 1188 1462 basechar 0
AnchorPoint: "Anchor-2" 621 1462 basechar 0
AnchorPoint: "Anchor-1" 614 731 basechar 0
AnchorPoint: "Anchor-0" 612 0 basechar 0
LayerCount: 2
Fore
SplineSet
522 0 m 1
 0 1462 l 1
 193 1462 l 1
 522 524 l 2
 565 403 594 301 614 205 c 1
 632 301 664 405 707 528 c 2
 1034 1462 l 1
 1229 1462 l 1
 707 0 l 1
 522 0 l 1
EndSplineSet
AlternateSubs2: "'ssty' Math Script Style lookup 8 subtable" V.ssty1 V.ssty2
AlternateSubs2: "'aalt' Access All Alternates lookup 1 subtable" V.ssty1 V.ssty2
EndChar

StartChar: W
Encoding: 87 87 26
AltUni2: 01d5b6.ffffffff.0 01d5b6.ffffffff.0
Width: 1904
GlyphClass: 2
Flags: HW
TopAccentHorizontal: 952
AnchorPoint: "Anchor-3" 1864 1462 basechar 0
AnchorPoint: "Anchor-2" 952 1462 basechar 0
AnchorPoint: "Anchor-1" 950 731 basechar 0
AnchorPoint: "Anchor-0" 938 0 basechar 0
LayerCount: 2
Fore
SplineSet
412 0 m 1
 25 1462 l 1
 217 1462 l 1
 444 569 l 2
 477 442 500 323 514 221 c 1
 528 327 557 459 592 580 c 2
 850 1462 l 1
 1040 1462 l 1
 1309 573 l 2
 1348 446 1375 315 1389 221 c 1
 1401 321 1427 442 1460 571 c 2
 1686 1462 l 1
 1878 1462 l 1
 1489 0 l 1
 1303 0 l 1
 1018 958 l 2
 983 1075 950 1210 944 1247 c 1
 940 1210 911 1077 874 952 c 2
 598 0 l 1
 412 0 l 1
EndSplineSet
AlternateSubs2: "'ssty' Math Script Style lookup 8 subtable" W.ssty1 W.ssty2
AlternateSubs2: "'aalt' Access All Alternates lookup 1 subtable" W.ssty1 W.ssty2
EndChar

StartChar: X
Encoding: 88 88 27
AltUni2: 01d5b7.ffffffff.0 01d5b7.ffffffff.0
Width: 1200
GlyphClass: 2
Flags: HW
TopAccentHorizontal: 598
AnchorPoint: "Anchor-3" 1159 1462 basechar 0
AnchorPoint: "Anchor-2" 598 1462 basechar 0
AnchorPoint: "Anchor-1" 600 731 basechar 0
AnchorPoint: "Anchor-0" 600 0 basechar 0
LayerCount: 2
Fore
SplineSet
8 0 m 1
 494 762 l 1
 39 1462 l 1
 244 1462 l 1
 602 889 l 1
 963 1462 l 1
 1157 1462 l 1
 705 766 l 1
 1192 0 l 1
 983 0 l 1
 596 635 l 1
 203 0 l 1
 8 0 l 1
EndSplineSet
AlternateSubs2: "'ssty' Math Script Style lookup 8 subtable" X.ssty1 X.ssty2
AlternateSubs2: "'aalt' Access All Alternates lookup 1 subtable" X.ssty1 X.ssty2
EndChar

StartChar: Y
Encoding: 89 89 28
AltUni2: 01d5b8.ffffffff.0 01d5b8.ffffffff.0
Width: 1159
GlyphClass: 2
Flags: HW
TopAccentHorizontal: 580
AnchorPoint: "Anchor-3" 1118 1462 basechar 0
AnchorPoint: "Anchor-2" 580 1462 basechar 0
AnchorPoint: "Anchor-1" 580 731 basechar 0
AnchorPoint: "Anchor-0" 580 0 basechar 0
LayerCount: 2
Fore
SplineSet
487 0 m 1
 487 559 l 1
 0 1462 l 1
 201 1462 l 1
 580 743 l 1
 961 1462 l 1
 1159 1462 l 1
 672 567 l 1
 672 0 l 1
 487 0 l 1
EndSplineSet
AlternateSubs2: "'ssty' Math Script Style lookup 8 subtable" Y.ssty1 Y.ssty2
AlternateSubs2: "'aalt' Access All Alternates lookup 1 subtable" Y.ssty1 Y.ssty2
EndChar

StartChar: Z
Encoding: 90 90 29
AltUni2: 01d5b9.ffffffff.0 01d5b9.ffffffff.0
Width: 1171
GlyphClass: 2
Flags: HW
TopAccentHorizontal: 594
AnchorPoint: "Anchor-3" 1130 1462 basechar 0
AnchorPoint: "Anchor-2" 594 1462 basechar 0
AnchorPoint: "Anchor-1" 584 731 basechar 0
AnchorPoint: "Anchor-0" 608 0 basechar 0
LayerCount: 2
Fore
SplineSet
78 0 m 1
 78 139 l 1
 848 1298 l 1
 102 1298 l 1
 102 1462 l 1
 1071 1462 l 1
 1071 1323 l 1
 301 164 l 1
 1092 164 l 1
 1092 0 l 1
 78 0 l 1
EndSplineSet
AlternateSubs2: "'ssty' Math Script Style lookup 8 subtable" Z.ssty1 Z.ssty2
AlternateSubs2: "'aalt' Access All Alternates lookup 1 subtable" Z.ssty1 Z.ssty2
EndChar

StartChar: A.ssty1
Encoding: 1114113 -1 30
Width: 1421
GlyphClass: 2
Flags: HW
TopAccentHorizontal: 707
AnchorPoint: "Anchor-1" 711 733 basechar 0
LayerCount: 2
Fore
SplineSet
20 0 m 1
 553 1468 l 1
 866 1468 l 1
 1401 0 l 1
 1112 0 l 1
 983 381 l 1
 436 381 l 1
 309 0 l 1
 20 0 l 1
508 610 m 1
 915 610 l 1
 791 983 l 2
 773 1040 729 1179 711 1253 c 1
 691 1169 647 1028 633 983 c 2
 508 610 l 1
EndSplineSet
EndChar

StartChar: B.ssty1
Encoding: 1114114 -1 31
Width: 1382
GlyphClass: 2
Flags: HW
TopAccentHorizontal: 684
AnchorPoint: "Anchor-1" 735 731 basechar 0
LayerCount: 2
Fore
SplineSet
199 0 m 1
 199 1462 l 1
 662 1462 l 2
 1063 1462 1241 1342 1241 1092 c 0
 1241 918 1133 803 977 774 c 1
 977 764 l 1
 1147 733 1272 645 1272 422 c 0
 1272 150 1061 0 725 0 c 2
 199 0 l 1
469 858 m 1
 686 858 l 2
 883 858 961 928 961 1059 c 0
 961 1188 867 1249 668 1249 c 2
 469 1249 l 1
 469 858 l 1
469 213 m 1
 707 213 l 2
 906 213 993 297 993 442 c 0
 993 573 903 657 692 657 c 2
 469 657 l 1
 469 213 l 1
EndSplineSet
EndChar

StartChar: C.ssty1
Encoding: 1114115 -1 32
Width: 1331
GlyphClass: 2
Flags: HW
TopAccentHorizontal: 801
AnchorPoint: "Anchor-1" 696 731 basechar 0
LayerCount: 2
Fore
SplineSet
809 -20 m 0
 346 -20 125 282 125 731 c 0
 125 1173 392 1483 838 1483 c 0
 985 1483 1133 1449 1268 1386 c 1
 1182 1171 l 1
 1073 1220 961 1257 842 1257 c 0
 568 1257 410 1055 410 729 c 0
 410 395 549 203 844 203 c 0
 969 203 1087 234 1210 283 c 1
 1210 49 l 1
 1089 0 963 -20 809 -20 c 0
EndSplineSet
EndChar

StartChar: D.ssty1
Encoding: 1114116 -1 33
Width: 1531
GlyphClass: 2
Flags: HW
TopAccentHorizontal: 758
AnchorPoint: "Anchor-1" 803 731 basechar 0
LayerCount: 2
Fore
SplineSet
199 0 m 1
 199 1462 l 1
 659 1462 l 2
 1136 1462 1407 1211 1407 752 c 0
 1407 252 1114 0 618 0 c 2
 199 0 l 1
469 223 m 1
 629 223 l 2
 963 223 1124 391 1124 741 c 0
 1124 1077 962 1241 657 1241 c 2
 469 1241 l 1
 469 223 l 1
EndSplineSet
EndChar

StartChar: E.ssty1
Encoding: 1114117 -1 34
Width: 1173
GlyphClass: 2
Flags: HW
TopAccentHorizontal: 643
AnchorPoint: "Anchor-1" 625 731 basechar 0
LayerCount: 2
Fore
SplineSet
199 0 m 1
 199 1462 l 1
 1051 1462 l 1
 1051 1245 l 1
 469 1245 l 1
 469 866 l 1
 1014 866 l 1
 1014 649 l 1
 469 649 l 1
 469 219 l 1
 1051 219 l 1
 1051 0 l 1
 199 0 l 1
EndSplineSet
EndChar

StartChar: F.ssty1
Encoding: 1114118 -1 35
Width: 1093
GlyphClass: 2
Flags: HW
TopAccentHorizontal: 629
AnchorPoint: "Anchor-1" 623 731 basechar 0
LayerCount: 2
Fore
SplineSet
199 0 m 1
 199 1462 l 1
 1047 1462 l 1
 1047 1245 l 1
 467 1245 l 1
 467 811 l 1
 1010 811 l 1
 1010 592 l 1
 467 592 l 1
 467 0 l 1
 199 0 l 1
EndSplineSet
EndChar

StartChar: G.ssty1
Encoding: 1114119 -1 36
Width: 1525
GlyphClass: 2
Flags: HW
TopAccentHorizontal: 848
AnchorPoint: "Anchor-1" 750 729 basechar 0
LayerCount: 2
Fore
SplineSet
842 -20 m 0
 391 -20 125 239 125 731 c 0
 125 1175 395 1481 897 1481 c 0
 1067 1481 1231 1448 1354 1393 c 1
 1266 1176 l 1
 1151 1229 1030 1257 897 1257 c 0
 578 1257 408 1040 408 729 c 0
 408 389 567 203 874 203 c 0
 960 203 1053 216 1114 236 c 1
 1114 584 l 1
 778 584 l 1
 778 803 l 1
 1374 803 l 1
 1374 68 l 1
 1224 13 1045 -20 842 -20 c 0
EndSplineSet
EndChar

StartChar: H.ssty1
Encoding: 1114120 -1 37
Width: 1591
GlyphClass: 2
Flags: HW
TopAccentHorizontal: 797
AnchorPoint: "Anchor-1" 795 731 basechar 0
LayerCount: 2
Fore
SplineSet
199 0 m 1
 199 1462 l 1
 469 1462 l 1
 469 870 l 1
 1116 870 l 1
 1116 1462 l 1
 1391 1462 l 1
 1391 0 l 1
 1116 0 l 1
 1116 647 l 1
 469 647 l 1
 469 0 l 1
 199 0 l 1
EndSplineSet
EndChar

StartChar: I.ssty1
Encoding: 1114121 -1 38
Width: 851
GlyphClass: 2
Flags: HW
TopAccentHorizontal: 428
AnchorPoint: "Anchor-1" 424 731 basechar 0
LayerCount: 2
Fore
SplineSet
115 0 m 1
 115 156 l 1
 287 209 l 1
 287 1251 l 1
 115 1305 l 1
 115 1462 l 1
 735 1462 l 1
 735 1305 l 1
 561 1251 l 1
 561 209 l 1
 735 156 l 1
 735 0 l 1
 115 0 l 1
EndSplineSet
EndChar

StartChar: J.ssty1
Encoding: 1114122 -1 39
Width: 876
GlyphClass: 2
Flags: HW
TopAccentHorizontal: 555
AnchorPoint: "Anchor-1" 373 522 basechar 0
LayerCount: 2
Fore
SplineSet
238 -416 m 0
 164 -416 100 -409 57 -393 c 1
 57 -180 l 1
 104 -190 154 -201 207 -201 c 0
 352 -201 418 -125 418 61 c 2
 418 1462 l 1
 690 1462 l 1
 690 82 l 2
 690 -274 517 -416 238 -416 c 0
EndSplineSet
EndChar

StartChar: K.ssty1
Encoding: 1114123 -1 40
Width: 1374
GlyphClass: 2
Flags: HW
TopAccentHorizontal: 756
AnchorPoint: "Anchor-1" 776 731 basechar 0
LayerCount: 2
Fore
SplineSet
199 0 m 1
 199 1462 l 1
 471 1462 l 1
 471 772 l 1
 512 829 559 891 608 948 c 2
 1047 1462 l 1
 1350 1462 l 1
 817 823 l 1
 1354 0 l 1
 1040 0 l 1
 623 649 l 1
 471 539 l 1
 471 0 l 1
 199 0 l 1
EndSplineSet
EndChar

StartChar: L.ssty1
Encoding: 1114124 -1 41
Width: 1153
GlyphClass: 2
Flags: HW
TopAccentHorizontal: 334
AnchorPoint: "Anchor-1" 649 731 basechar 0
LayerCount: 2
Fore
SplineSet
199 0 m 1
 199 1462 l 1
 469 1462 l 1
 469 221 l 1
 1102 221 l 1
 1102 0 l 1
 199 0 l 1
EndSplineSet
EndChar

StartChar: M.ssty1
Encoding: 1114125 -1 42
Width: 1955
GlyphClass: 2
Flags: HW
TopAccentHorizontal: 979
AnchorPoint: "Anchor-1" 977 731 basechar 0
LayerCount: 2
Fore
SplineSet
199 0 m 1
 199 1462 l 1
 571 1462 l 1
 975 315 l 1
 981 315 l 1
 1384 1462 l 1
 1755 1462 l 1
 1755 0 l 1
 1501 0 l 1
 1501 827 l 2
 1501 942 1507 1123 1513 1184 c 1
 1507 1184 l 1
 1096 0 l 1
 848 0 l 1
 436 1186 l 1
 430 1186 l 1
 434 1116 444 942 444 817 c 2
 444 0 l 1
 199 0 l 1
EndSplineSet
EndChar

StartChar: N.ssty1
Encoding: 1114126 -1 43
Width: 1669
GlyphClass: 2
Flags: HW
TopAccentHorizontal: 836
AnchorPoint: "Anchor-1" 834 731 basechar 0
LayerCount: 2
Fore
SplineSet
199 0 m 1
 199 1462 l 1
 539 1462 l 1
 1229 326 l 1
 1235 326 l 1
 1229 400 1225 557 1225 684 c 2
 1225 1462 l 1
 1468 1462 l 1
 1468 0 l 1
 1128 0 l 1
 436 1145 l 1
 426 1145 l 1
 432 1059 442 893 442 772 c 2
 442 0 l 1
 199 0 l 1
EndSplineSet
EndChar

StartChar: O.ssty1
Encoding: 1114127 -1 44
Width: 1646
GlyphClass: 2
Flags: HW
TopAccentHorizontal: 825
AnchorPoint: "Anchor-1" 823 731 basechar 0
LayerCount: 2
Fore
SplineSet
823 -20 m 0
 348 -20 125 282 125 737 c 0
 125 1183 350 1485 825 1485 c 0
 1302 1485 1522 1182 1522 733 c 0
 1522 282 1302 -20 823 -20 c 0
823 209 m 0
 1114 209 1233 411 1233 733 c 0
 1233 1065 1104 1260 823 1260 c 0
 534 1260 408 1055 408 733 c 0
 408 411 534 209 823 209 c 0
EndSplineSet
EndChar

StartChar: P.ssty1
Encoding: 1114128 -1 45
Width: 1290
GlyphClass: 2
Flags: HW
TopAccentHorizontal: 676
AnchorPoint: "Anchor-1" 692 731 basechar 0
LayerCount: 2
Fore
SplineSet
199 0 m 1
 199 1462 l 1
 641 1462 l 2
 1020 1462 1186 1295 1186 1014 c 0
 1186 762 1042 535 612 535 c 2
 469 535 l 1
 469 0 l 1
 199 0 l 1
469 760 m 1
 586 760 l 2
 793 760 911 830 911 1004 c 0
 911 1162 822 1239 625 1239 c 2
 469 1239 l 1
 469 760 l 1
EndSplineSet
EndChar

StartChar: Q.ssty1
Encoding: 1114129 -1 46
Width: 1646
GlyphClass: 2
Flags: HW
TopAccentHorizontal: 825
AnchorPoint: "Anchor-1" 823 567 basechar 0
LayerCount: 2
Fore
SplineSet
1126 -348 m 1
 852 -20 l 1
 823 -20 l 2
 348 -20 125 282 125 737 c 0
 125 1183 350 1485 825 1485 c 0
 1302 1485 1522 1182 1522 733 c 0
 1522 401 1400 139 1130 35 c 1
 1485 -348 l 1
 1126 -348 l 1
823 205 m 0
 1116 205 1237 409 1237 733 c 0
 1237 1065 1106 1260 825 1260 c 0
 538 1260 412 1055 412 733 c 0
 412 411 534 205 823 205 c 0
EndSplineSet
EndChar

StartChar: R.ssty1
Encoding: 1114130 -1 47
Width: 1376
GlyphClass: 2
Flags: HW
TopAccentHorizontal: 688
AnchorPoint: "Anchor-1" 772 731 basechar 0
LayerCount: 2
Fore
SplineSet
199 0 m 1
 199 1462 l 1
 625 1462 l 2
 1016 1462 1206 1319 1206 1038 c 0
 1206 848 1106 717 924 645 c 1
 1346 0 l 1
 1038 0 l 1
 688 575 l 1
 469 575 l 1
 469 0 l 1
 199 0 l 1
469 791 m 1
 629 791 l 2
 819 791 930 858 930 1024 c 0
 930 1184 823 1249 616 1249 c 2
 469 1249 l 1
 469 791 l 1
EndSplineSet
EndChar

StartChar: S.ssty1
Encoding: 1114131 -1 48
Width: 1263
GlyphClass: 2
Flags: HW
TopAccentHorizontal: 655
AnchorPoint: "Anchor-1" 637 731 basechar 0
LayerCount: 2
Fore
SplineSet
580 -20 m 0
 396 -20 264 4 145 59 c 1
 145 303 l 1
 278 242 436 201 586 201 c 0
 752 201 856 272 856 391 c 0
 856 518 740 569 537 647 c 0
 312 733 160 833 160 1077 c 0
 160 1337 375 1483 676 1483 c 0
 838 1483 983 1442 1112 1389 c 1
 1024 1178 l 1
 899 1231 777 1266 668 1266 c 0
 521 1266 428 1198 428 1087 c 0
 428 962 534 918 745 834 c 0
 974 742 1128 645 1128 412 c 0
 1128 158 930 -20 580 -20 c 0
EndSplineSet
EndChar

StartChar: T.ssty1
Encoding: 1114132 -1 49
Width: 1169
GlyphClass: 2
Flags: HW
TopAccentHorizontal: 586
AnchorPoint: "Anchor-1" 584 731 basechar 0
LayerCount: 2
Fore
SplineSet
446 0 m 1
 446 1237 l 1
 29 1237 l 1
 29 1462 l 1
 1139 1462 l 1
 1139 1237 l 1
 717 1237 l 1
 717 0 l 1
 446 0 l 1
EndSplineSet
EndChar

StartChar: U.ssty1
Encoding: 1114133 -1 50
Width: 1574
GlyphClass: 2
Flags: HW
TopAccentHorizontal: 788
AnchorPoint: "Anchor-1" 786 721 basechar 0
LayerCount: 2
Fore
SplineSet
782 -20 m 0
 395 -20 184 189 184 541 c 2
 184 1462 l 1
 459 1462 l 1
 459 561 l 2
 459 319 575 205 788 205 c 0
 1007 205 1114 325 1114 561 c 2
 1114 1462 l 1
 1389 1462 l 1
 1389 543 l 2
 1389 199 1177 -20 782 -20 c 0
EndSplineSet
EndChar

StartChar: V.ssty1
Encoding: 1114134 -1 51
Width: 1337
GlyphClass: 2
Flags: HW
TopAccentHorizontal: 676
AnchorPoint: "Anchor-1" 668 731 basechar 0
LayerCount: 2
Fore
SplineSet
516 0 m 1
 0 1462 l 1
 295 1462 l 1
 592 537 l 2
 625 437 650 342 668 264 c 1
 686 346 719 449 748 537 c 2
 1044 1462 l 1
 1337 1462 l 1
 821 0 l 1
 516 0 l 1
EndSplineSet
EndChar

StartChar: W.ssty1
Encoding: 1114135 -1 52
Width: 2029
GlyphClass: 2
Flags: HW
TopAccentHorizontal: 1016
AnchorPoint: "Anchor-1" 1014 731 basechar 0
LayerCount: 2
Fore
SplineSet
422 0 m 1
 35 1462 l 1
 301 1462 l 1
 508 635 l 2
 535 529 572 358 586 262 c 1
 604 368 637 526 668 645 c 2
 881 1462 l 1
 1143 1462 l 1
 1358 639 l 2
 1385 537 1424 367 1442 258 c 1
 1452 348 1493 512 1511 586 c 2
 1726 1462 l 1
 1993 1462 l 1
 1604 0 l 1
 1300 0 l 1
 1077 850 l 2
 1054 938 1022 1079 1014 1161 c 1
 1000 1077 972 934 952 856 c 2
 725 0 l 1
 422 0 l 1
EndSplineSet
EndChar

StartChar: X.ssty1
Encoding: 1114136 -1 53
Width: 1357
GlyphClass: 2
Flags: HW
TopAccentHorizontal: 676
AnchorPoint: "Anchor-1" 678 731 basechar 0
LayerCount: 2
Fore
SplineSet
12 0 m 1
 508 754 l 1
 51 1462 l 1
 350 1462 l 1
 680 930 l 1
 1008 1462 l 1
 1313 1462 l 1
 846 741 l 1
 1346 0 l 1
 1034 0 l 1
 676 561 l 1
 315 0 l 1
 12 0 l 1
EndSplineSet
EndChar

StartChar: Y.ssty1
Encoding: 1114137 -1 54
Width: 1265
GlyphClass: 2
Flags: HW
TopAccentHorizontal: 633
AnchorPoint: "Anchor-1" 633 731 basechar 0
LayerCount: 2
Fore
SplineSet
496 0 m 1
 496 557 l 1
 0 1462 l 1
 297 1462 l 1
 633 807 l 1
 967 1462 l 1
 1266 1462 l 1
 770 567 l 1
 770 0 l 1
 496 0 l 1
EndSplineSet
EndChar

StartChar: Z.ssty1
Encoding: 1114138 -1 55
Width: 1327
GlyphClass: 2
Flags: HW
TopAccentHorizontal: 674
AnchorPoint: "Anchor-1" 662 731 basechar 0
LayerCount: 2
Fore
SplineSet
109 0 m 1
 109 172 l 1
 856 1239 l 1
 135 1239 l 1
 135 1462 l 1
 1194 1462 l 1
 1194 1290 l 1
 449 221 l 1
 1214 221 l 1
 1214 0 l 1
 109 0 l 1
EndSplineSet
EndChar

StartChar: A.ssty2
Encoding: 1114139 -1 56
Width: 1583
GlyphClass: 2
Flags: HW
TopAccentHorizontal: 788
AnchorPoint: "Anchor-1" 791 733 basechar 0
LayerCount: 2
Fore
SplineSet
55 0 m 1
 604 1468 l 1
 979 1468 l 1
 1528 0 l 1
 1200 0 l 1
 1077 354 l 1
 508 354 l 1
 383 0 l 1
 55 0 l 1
584 606 m 1
 1004 606 l 1
 887 942 l 2
 867 1001 816 1172 793 1260 c 1
 770 1170 725 1006 702 940 c 2
 584 606 l 1
EndSplineSet
EndChar

StartChar: B.ssty2
Encoding: 1114140 -1 57
Width: 1556
GlyphClass: 2
Flags: HW
TopAccentHorizontal: 770
AnchorPoint: "Anchor-1" 840 731 basechar 0
LayerCount: 2
Fore
SplineSet
279 0 m 1
 279 1462 l 1
 760 1462 l 2
 1176 1462 1362 1352 1362 1096 c 0
 1362 920 1255 803 1112 776 c 1
 1112 766 l 1
 1264 737 1401 655 1401 424 c 0
 1401 150 1180 0 836 0 c 2
 279 0 l 1
580 874 m 1
 786 874 l 2
 983 874 1053 944 1053 1055 c 0
 1053 1174 965 1225 768 1225 c 2
 580 1225 l 1
 580 874 l 1
580 242 m 1
 807 242 l 2
 1010 242 1085 324 1085 451 c 0
 1085 568 1010 645 795 645 c 2
 580 645 l 1
 580 242 l 1
EndSplineSet
EndChar

StartChar: C.ssty2
Encoding: 1114141 -1 58
Width: 1447
GlyphClass: 2
Flags: HW
TopAccentHorizontal: 870
AnchorPoint: "Anchor-1" 766 731 basechar 0
LayerCount: 2
Fore
SplineSet
877 -20 m 0
 390 -20 174 285 174 729 c 0
 174 1171 438 1483 909 1483 c 0
 1059 1483 1219 1448 1360 1382 c 1
 1262 1141 l 1
 1147 1192 1028 1233 905 1233 c 0
 641 1233 485 1044 485 727 c 0
 485 414 616 229 905 229 c 0
 1042 229 1167 262 1300 309 c 1
 1300 55 l 1
 1171 4 1043 -20 877 -20 c 0
EndSplineSet
EndChar

StartChar: D.ssty2
Encoding: 1114142 -1 59
Width: 1667
GlyphClass: 2
Flags: HW
TopAccentHorizontal: 825
AnchorPoint: "Anchor-1" 909 731 basechar 0
LayerCount: 2
Fore
SplineSet
279 0 m 1
 279 1462 l 1
 766 1462 l 2
 1253 1462 1542 1215 1542 752 c 0
 1542 250 1233 0 721 0 c 2
 279 0 l 1
580 248 m 1
 735 248 l 2
 1067 248 1227 411 1227 741 c 0
 1227 1063 1073 1217 768 1217 c 2
 580 1217 l 1
 580 248 l 1
EndSplineSet
EndChar

StartChar: E.ssty2
Encoding: 1114143 -1 60
Width: 1284
GlyphClass: 2
Flags: HW
TopAccentHorizontal: 705
AnchorPoint: "Anchor-1" 719 731 basechar 0
LayerCount: 2
Fore
SplineSet
279 0 m 1
 279 1462 l 1
 1161 1462 l 1
 1161 1217 l 1
 580 1217 l 1
 580 883 l 1
 1124 883 l 1
 1124 639 l 1
 580 639 l 1
 580 248 l 1
 1161 248 l 1
 1161 0 l 1
 279 0 l 1
EndSplineSet
EndChar

StartChar: F.ssty2
Encoding: 1114144 -1 61
Width: 1224
GlyphClass: 2
Flags: HW
TopAccentHorizontal: 702
AnchorPoint: "Anchor-1" 719 731 basechar 0
LayerCount: 2
Fore
SplineSet
279 0 m 1
 279 1462 l 1
 1159 1462 l 1
 1159 1217 l 1
 575 1217 l 1
 575 827 l 1
 1120 827 l 1
 1120 582 l 1
 575 582 l 1
 575 0 l 1
 279 0 l 1
EndSplineSet
EndChar

StartChar: G.ssty2
Encoding: 1114145 -1 62
Width: 1605
GlyphClass: 2
Flags: HW
TopAccentHorizontal: 893
AnchorPoint: "Anchor-1" 813 731 basechar 0
LayerCount: 2
Fore
SplineSet
903 -20 m 0
 450 -20 174 229 174 733 c 0
 174 1188 461 1483 971 1483 c 0
 1145 1483 1309 1448 1438 1393 c 1
 1337 1153 l 1
 1228 1202 1104 1233 967 1233 c 0
 654 1233 485 1016 485 727 c 0
 485 412 635 229 932 229 c 0
 1024 229 1108 244 1165 258 c 1
 1165 573 l 1
 838 573 l 1
 838 817 l 1
 1454 817 l 1
 1454 68 l 1
 1300 15 1120 -20 903 -20 c 0
EndSplineSet
EndChar

StartChar: H.ssty2
Encoding: 1114146 -1 63
Width: 1726
GlyphClass: 2
Flags: HW
TopAccentHorizontal: 864
AnchorPoint: "Anchor-1" 901 731 basechar 0
LayerCount: 2
Fore
SplineSet
279 0 m 1
 279 1462 l 1
 582 1462 l 1
 582 885 l 1
 1223 885 l 1
 1223 1462 l 1
 1526 1462 l 1
 1526 0 l 1
 1223 0 l 1
 1223 635 l 1
 582 635 l 1
 582 0 l 1
 279 0 l 1
EndSplineSet
EndChar

StartChar: I.ssty2
Encoding: 1114147 -1 64
Width: 1032
GlyphClass: 2
Flags: HW
TopAccentHorizontal: 518
AnchorPoint: "Anchor-1" 514 731 basechar 0
LayerCount: 2
Fore
SplineSet
180 0 m 1
 180 174 l 1
 362 240 l 1
 362 1223 l 1
 180 1288 l 1
 180 1462 l 1
 848 1462 l 1
 848 1288 l 1
 666 1223 l 1
 666 240 l 1
 848 174 l 1
 848 0 l 1
 180 0 l 1
EndSplineSet
EndChar

StartChar: J.ssty2
Encoding: 1114148 -1 65
Width: 1017
GlyphClass: 2
Flags: HW
TopAccentHorizontal: 645
AnchorPoint: "Anchor-1" 424 516 basechar 0
LayerCount: 2
Fore
SplineSet
283 -428 m 0
 195 -428 133 -415 90 -403 c 1
 90 -162 l 1
 135 -172 187 -184 246 -184 c 0
 383 -184 455 -111 455 82 c 2
 455 1462 l 1
 758 1462 l 1
 758 100 l 2
 758 -269 568 -428 283 -428 c 0
EndSplineSet
EndChar

StartChar: K.ssty2
Encoding: 1114149 -1 66
Width: 1492
GlyphClass: 2
Flags: HW
TopAccentHorizontal: 819
AnchorPoint: "Anchor-1" 885 731 basechar 0
LayerCount: 2
Fore
SplineSet
279 0 m 1
 279 1462 l 1
 582 1462 l 1
 582 786 l 1
 629 849 682 914 727 967 c 2
 1151 1462 l 1
 1491 1462 l 1
 946 819 l 1
 1493 0 l 1
 1147 0 l 1
 729 633 l 1
 582 526 l 1
 582 0 l 1
 279 0 l 1
EndSplineSet
EndChar

StartChar: L.ssty2
Encoding: 1114150 -1 67
Width: 1300
GlyphClass: 2
Flags: HW
TopAccentHorizontal: 438
AnchorPoint: "Anchor-1" 754 731 basechar 0
LayerCount: 2
Fore
SplineSet
279 0 m 1
 279 1462 l 1
 580 1462 l 1
 580 248 l 1
 1229 248 l 1
 1229 0 l 1
 279 0 l 1
EndSplineSet
EndChar

StartChar: M.ssty2
Encoding: 1114151 -1 68
Width: 2086
GlyphClass: 2
Flags: HW
TopAccentHorizontal: 1044
AnchorPoint: "Anchor-1" 1083 731 basechar 0
LayerCount: 2
Fore
SplineSet
279 0 m 1
 279 1462 l 1
 688 1462 l 1
 1075 322 l 1
 1083 322 l 1
 1479 1462 l 1
 1888 1462 l 1
 1888 0 l 1
 1608 0 l 1
 1608 760 l 2
 1608 895 1616 1093 1622 1163 c 1
 1614 1163 l 1
 1212 0 l 1
 928 0 l 1
 537 1167 l 1
 528 1167 l 1
 534 1097 547 902 547 748 c 2
 547 0 l 1
 279 0 l 1
EndSplineSet
EndChar

StartChar: N.ssty2
Encoding: 1114152 -1 69
Width: 1816
GlyphClass: 2
Flags: HW
TopAccentHorizontal: 907
AnchorPoint: "Anchor-1" 948 731 basechar 0
LayerCount: 2
Fore
SplineSet
279 0 m 1
 279 1462 l 1
 664 1462 l 1
 1356 340 l 1
 1362 340 l 1
 1358 440 1350 598 1348 721 c 2
 1348 1462 l 1
 1618 1462 l 1
 1618 0 l 1
 1231 0 l 1
 539 1130 l 1
 530 1130 l 1
 536 1019 545 868 547 735 c 2
 547 0 l 1
 279 0 l 1
EndSplineSet
EndChar

StartChar: O.ssty2
Encoding: 1114153 -1 70
Width: 1759
GlyphClass: 2
Flags: HW
TopAccentHorizontal: 881
AnchorPoint: "Anchor-1" 903 731 basechar 0
LayerCount: 2
Fore
SplineSet
903 -20 m 0
 405 -20 174 280 174 735 c 0
 174 1177 403 1485 907 1485 c 0
 1403 1485 1634 1192 1634 733 c 0
 1634 282 1405 -20 903 -20 c 0
903 231 m 0
 1200 231 1317 430 1317 733 c 0
 1317 1040 1196 1235 907 1235 c 0
 614 1235 492 1036 492 733 c 0
 492 430 614 231 903 231 c 0
EndSplineSet
EndChar

StartChar: P.ssty2
Encoding: 1114154 -1 71
Width: 1468
GlyphClass: 2
Flags: HW
TopAccentHorizontal: 770
AnchorPoint: "Anchor-1" 801 731 basechar 0
LayerCount: 2
Fore
SplineSet
279 0 m 1
 279 1462 l 1
 758 1462 l 2
 1141 1462 1323 1299 1323 1012 c 0
 1323 754 1171 524 737 524 c 2
 580 524 l 1
 580 0 l 1
 279 0 l 1
580 772 m 1
 711 772 l 2
 891 772 1016 833 1016 1001 c 0
 1016 1140 931 1217 745 1217 c 2
 580 1217 l 1
 580 772 l 1
EndSplineSet
EndChar

StartChar: Q.ssty2
Encoding: 1114155 -1 72
Width: 1759
GlyphClass: 2
Flags: HW
TopAccentHorizontal: 881
AnchorPoint: "Anchor-1" 903 567 basechar 0
LayerCount: 2
Fore
SplineSet
1217 -348 m 1
 938 -20 l 1
 907 -20 l 2
 405 -20 174 276 174 735 c 0
 174 1177 403 1485 907 1485 c 0
 1407 1485 1634 1184 1634 733 c 0
 1634 407 1511 150 1243 41 c 1
 1610 -348 l 1
 1217 -348 l 1
903 231 m 0
 1200 231 1317 430 1317 733 c 0
 1317 1040 1196 1235 907 1235 c 0
 614 1235 492 1036 492 733 c 0
 492 430 614 231 903 231 c 0
EndSplineSet
EndChar

StartChar: R.ssty2
Encoding: 1114156 -1 73
Width: 1529
GlyphClass: 2
Flags: HW
TopAccentHorizontal: 766
AnchorPoint: "Anchor-1" 883 731 basechar 0
LayerCount: 2
Fore
SplineSet
279 0 m 1
 279 1462 l 1
 733 1462 l 2
 1130 1462 1327 1327 1327 1034 c 0
 1327 833 1200 711 1042 643 c 1
 1487 0 l 1
 1143 0 l 1
 786 565 l 1
 580 565 l 1
 580 0 l 1
 279 0 l 1
580 803 m 1
 729 803 l 2
 919 803 1022 870 1022 1024 c 0
 1022 1165 926 1225 717 1225 c 2
 580 1225 l 1
 580 803 l 1
EndSplineSet
EndChar

StartChar: S.ssty2
Encoding: 1114157 -1 74
Width: 1452
GlyphClass: 2
Flags: HW
TopAccentHorizontal: 754
AnchorPoint: "Anchor-1" 735 731 basechar 0
LayerCount: 2
Fore
SplineSet
672 -20 m 0
 486 -20 352 11 229 66 c 1
 229 338 l 1
 372 275 536 225 690 225 c 0
 856 225 942 287 942 393 c 0
 942 506 828 553 623 635 c 0
 422 715 244 817 244 1073 c 0
 244 1341 459 1483 774 1483 c 0
 948 1483 1092 1441 1229 1382 c 1
 1133 1151 l 1
 1000 1206 879 1239 762 1239 c 0
 623 1239 543 1179 543 1083 c 0
 543 972 643 930 860 842 c 0
 1098 746 1241 652 1241 414 c 0
 1241 162 1045 -20 672 -20 c 0
EndSplineSet
EndChar

StartChar: T.ssty2
Encoding: 1114158 -1 75
Width: 1251
GlyphClass: 2
Flags: HW
TopAccentHorizontal: 627
AnchorPoint: "Anchor-1" 623 731 basechar 0
LayerCount: 2
Fore
SplineSet
473 0 m 1
 473 1212 l 1
 45 1212 l 1
 45 1462 l 1
 1202 1462 l 1
 1202 1212 l 1
 774 1212 l 1
 774 0 l 1
 473 0 l 1
EndSplineSet
EndChar

StartChar: U.ssty2
Encoding: 1114159 -1 76
Width: 1703
GlyphClass: 2
Flags: HW
TopAccentHorizontal: 854
AnchorPoint: "Anchor-1" 887 721 basechar 0
LayerCount: 2
Fore
SplineSet
883 -20 m 0
 477 -20 258 201 258 555 c 2
 258 1462 l 1
 561 1462 l 1
 561 588 l 2
 561 342 674 231 889 231 c 0
 1112 231 1214 350 1214 586 c 2
 1214 1462 l 1
 1518 1462 l 1
 1518 555 l 2
 1518 219 1305 -20 883 -20 c 0
EndSplineSet
EndChar

StartChar: V.ssty2
Encoding: 1114160 -1 77
Width: 1394
GlyphClass: 2
Flags: HW
TopAccentHorizontal: 705
AnchorPoint: "Anchor-1" 696 731 basechar 0
LayerCount: 2
Fore
SplineSet
528 0 m 1
 0 1462 l 1
 326 1462 l 1
 616 598 l 2
 641 526 686 363 698 281 c 1
 710 363 749 522 776 596 c 2
 1069 1462 l 1
 1395 1462 l 1
 866 0 l 1
 528 0 l 1
EndSplineSet
EndChar

StartChar: W.ssty2
Encoding: 1114161 -1 78
Width: 2150
GlyphClass: 2
Flags: HW
TopAccentHorizontal: 1075
AnchorPoint: "Anchor-1" 1071 731 basechar 0
LayerCount: 2
Fore
SplineSet
444 0 m 1
 53 1462 l 1
 350 1462 l 1
 557 629 l 2
 580 545 617 366 631 272 c 1
 647 395 692 607 721 707 c 2
 926 1462 l 1
 1217 1462 l 1
 1425 705 l 2
 1452 605 1500 387 1516 272 c 1
 1528 364 1564 539 1587 629 c 2
 1796 1462 l 1
 2091 1462 l 1
 1700 0 l 1
 1356 0 l 1
 1141 801 l 2
 1123 864 1079 1054 1071 1122 c 1
 1063 1046 1020 862 1006 807 c 2
 791 0 l 1
 444 0 l 1
EndSplineSet
EndChar

StartChar: X.ssty2
Encoding: 1114162 -1 79
Width: 1464
GlyphClass: 2
Flags: HW
TopAccentHorizontal: 729
AnchorPoint: "Anchor-1" 731 731 basechar 0
LayerCount: 2
Fore
SplineSet
18 0 m 1
 539 754 l 1
 51 1462 l 1
 389 1462 l 1
 733 934 l 1
 1071 1462 l 1
 1409 1462 l 1
 915 733 l 1
 1446 0 l 1
 1094 0 l 1
 723 553 l 1
 354 0 l 1
 18 0 l 1
EndSplineSet
EndChar

StartChar: Y.ssty2
Encoding: 1114163 -1 80
Width: 1331
GlyphClass: 2
Flags: HW
TopAccentHorizontal: 666
AnchorPoint: "Anchor-1" 666 731 basechar 0
LayerCount: 2
Fore
SplineSet
516 0 m 1
 516 559 l 1
 0 1462 l 1
 332 1462 l 1
 666 836 l 1
 1001 1462 l 1
 1331 1462 l 1
 817 569 l 1
 817 0 l 1
 516 0 l 1
EndSplineSet
EndChar

StartChar: Z.ssty2
Encoding: 1114164 -1 81
Width: 1507
GlyphClass: 2
Flags: HW
TopAccentHorizontal: 764
AnchorPoint: "Anchor-1" 752 731 basechar 0
LayerCount: 2
Fore
SplineSet
172 0 m 1
 172 190 l 1
 936 1214 l 1
 197 1214 l 1
 197 1462 l 1
 1313 1462 l 1
 1313 1272 l 1
 549 248 l 1
 1331 248 l 1
 1331 0 l 1
 172 0 l 1
EndSplineSet
EndChar

StartChar: a
Encoding: 97 97 82
AltUni2: 01d5ba.ffffffff.0 01d5ba.ffffffff.0
Width: 1148
GlyphClass: 2
Flags: HW
TopAccentHorizontal: 575
AnchorPoint: "Anchor-3" 1047 1098 basechar 0
AnchorPoint: "Anchor-2" 575 1098 basechar 0
AnchorPoint: "Anchor-1" 539 547 basechar 0
AnchorPoint: "Anchor-0" 575 0 basechar 0
LayerCount: 2
Fore
SplineSet
440 -20 m 0
 241 -20 94 82 94 305 c 0
 94 524 263 645 621 655 c 2
 807 662 l 1
 807 727 l 2
 807 909 723 971 580 971 c 0
 465 971 360 930 270 887 c 1
 215 1022 l 1
 311 1073 447 1116 590 1116 c 0
 856 1116 983 1004 983 748 c 2
 983 0 l 1
 852 0 l 1
 817 156 l 1
 809 156 l 1
 713 35 624 -20 440 -20 c 0
481 125 m 0
 665 125 805 225 805 438 c 2
 805 537 l 1
 643 530 l 2
 369 520 281 442 281 303 c 0
 281 180 362 125 481 125 c 0
EndSplineSet
AlternateSubs2: "'ssty' Math Script Style lookup 8 subtable" a.ssty1 a.ssty2
AlternateSubs2: "'aalt' Access All Alternates lookup 1 subtable" a.ssty1 a.ssty2
EndChar

StartChar: b
Encoding: 98 98 83
AltUni2: 01d5bb.ffffffff.0 01d5bb.ffffffff.0
Width: 1257
GlyphClass: 2
Flags: HW
TopAccentHorizontal: 264
AnchorPoint: "Anchor-3" 1055 1556 basechar 0
AnchorPoint: "Anchor-2" 692 1556 basechar 0
AnchorPoint: "Anchor-1" 659 768 basechar 0
AnchorPoint: "Anchor-0" 659 0 basechar 0
LayerCount: 2
Fore
SplineSet
694 -20 m 0
 522 -20 415 51 354 139 c 1
 340 139 l 1
 303 0 l 1
 174 0 l 1
 174 1556 l 1
 354 1556 l 1
 354 1178 l 2
 354 1086 348 997 344 952 c 1
 354 952 l 1
 415 1044 522 1116 694 1116 c 0
 966 1116 1147 926 1147 549 c 0
 1147 172 964 -20 694 -20 c 0
668 129 m 0
 865 129 961 279 961 551 c 0
 961 827 865 967 664 967 c 0
 431 967 354 836 354 555 c 2
 354 547 l 2
 354 277 426 129 668 129 c 0
EndSplineSet
AlternateSubs2: "'ssty' Math Script Style lookup 8 subtable" b.ssty1 b.ssty2
AlternateSubs2: "'aalt' Access All Alternates lookup 1 subtable" b.ssty1 b.ssty2
EndChar

StartChar: c
Encoding: 99 99 84
AltUni2: 01d5bc.ffffffff.0 01d5bc.ffffffff.0
Width: 983
GlyphClass: 2
Flags: HW
TopAccentHorizontal: 582
AnchorPoint: "Anchor-3" 942 1098 basechar 0
AnchorPoint: "Anchor-2" 582 1098 basechar 0
AnchorPoint: "Anchor-1" 514 549 basechar 0
AnchorPoint: "Anchor-0" 575 0 basechar 0
LayerCount: 2
Fore
SplineSet
614 -20 m 0
 321 -20 113 154 113 543 c 0
 113 949 332 1118 627 1118 c 0
 738 1118 849 1092 915 1059 c 1
 860 909 l 1
 794 934 699 961 623 961 c 0
 404 961 299 819 299 545 c 0
 299 281 405 135 612 135 c 0
 731 135 821 164 897 199 c 1
 897 39 l 1
 823 0 739 -20 614 -20 c 0
EndSplineSet
AlternateSubs2: "'ssty' Math Script Style lookup 8 subtable" c.ssty1 c.ssty2
AlternateSubs2: "'aalt' Access All Alternates lookup 1 subtable" c.ssty1 c.ssty2
EndChar

StartChar: d
Encoding: 100 100 85
AltUni2: 01d5bd.ffffffff.0 01d5bd.ffffffff.0
Width: 1259
GlyphClass: 2
Flags: HW
TopAccentHorizontal: 999
AnchorPoint: "Anchor-3" 1133 1556 basechar 0
AnchorPoint: "Anchor-2" 563 1556 basechar 0
AnchorPoint: "Anchor-1" 631 549 basechar 0
AnchorPoint: "Anchor-0" 598 0 basechar 0
LayerCount: 2
Fore
SplineSet
563 -20 m 0
 291 -20 113 170 113 547 c 0
 113 924 293 1118 565 1118 c 0
 735 1118 837 1046 905 956 c 1
 918 956 l 1
 914 991 905 1077 905 1118 c 2
 905 1556 l 1
 1085 1556 l 1
 1085 0 l 1
 940 0 l 1
 913 147 l 1
 905 147 l 1
 839 53 735 -20 563 -20 c 0
592 129 m 0
 823 129 907 256 907 512 c 2
 907 545 l 2
 907 817 834 969 590 969 c 0
 395 969 299 803 299 543 c 0
 299 281 395 129 592 129 c 0
EndSplineSet
AlternateSubs2: "'ssty' Math Script Style lookup 8 subtable" d.ssty1 d.ssty2
AlternateSubs2: "'aalt' Access All Alternates lookup 1 subtable" d.ssty1 d.ssty2
EndChar

StartChar: e
Encoding: 101 101 86
AltUni2: 01d5be.ffffffff.0 01d5be.ffffffff.0
Width: 1155
GlyphClass: 2
Flags: HW
TopAccentHorizontal: 584
AnchorPoint: "Anchor-3" 1114 1098 basechar 0
AnchorPoint: "Anchor-2" 584 1098 basechar 0
AnchorPoint: "Anchor-1" 582 549 basechar 0
AnchorPoint: "Anchor-0" 616 0 basechar 0
LayerCount: 2
Fore
SplineSet
641 -20 m 0
 328 -20 113 174 113 541 c 0
 113 901 307 1118 598 1118 c 0
 879 1118 1051 922 1051 623 c 2
 1051 514 l 1
 299 514 l 1
 305 266 430 133 649 133 c 0
 788 133 886 160 1001 209 c 1
 1001 51 l 1
 888 2 791 -20 641 -20 c 0
303 657 m 1
 862 657 l 1
 862 843 778 971 596 971 c 0
 424 971 321 854 303 657 c 1
EndSplineSet
AlternateSubs2: "'ssty' Math Script Style lookup 8 subtable" e.ssty1 e.ssty2
AlternateSubs2: "'aalt' Access All Alternates lookup 1 subtable" e.ssty1 e.ssty2
EndChar

StartChar: f
Encoding: 102 102 87
AltUni2: 01d5bf.ffffffff.0 01d5bf.ffffffff.0
Width: 704
GlyphClass: 2
Flags: HW
ItalicCorrection: 129
TopAccentHorizontal: 516
AnchorPoint: "Anchor-3" 778 1567 basechar 0
AnchorPoint: "Anchor-2" 516 1567 basechar 0
AnchorPoint: "Anchor-1" 412 782 basechar 0
AnchorPoint: "Anchor-0" 313 0 basechar 0
LayerCount: 2
Fore
SplineSet
223 0 m 1
 223 958 l 1
 31 958 l 1
 31 1042 l 1
 223 1104 l 1
 223 1167 l 2
 223 1450 355 1567 580 1567 c 0
 666 1567 740 1548 793 1530 c 1
 745 1389 l 1
 700 1403 641 1419 582 1419 c 0
 461 1419 403 1341 403 1169 c 2
 403 1098 l 1
 680 1098 l 1
 680 958 l 1
 403 958 l 1
 403 0 l 1
 223 0 l 1
EndSplineSet
AlternateSubs2: "'ssty' Math Script Style lookup 8 subtable" f.ssty1 f.ssty2
AlternateSubs2: "'aalt' Access All Alternates lookup 1 subtable" f.ssty1 f.ssty2
EndChar

StartChar: g
Encoding: 103 103 88
AltUni2: 01d5c0.ffffffff.0 01d5c0.ffffffff.0
Width: 1259
GlyphClass: 2
Flags: HW
TopAccentHorizontal: 608
AnchorPoint: "Anchor-3" 1137 1098 basechar 0
AnchorPoint: "Anchor-2" 608 1098 basechar 0
AnchorPoint: "Anchor-1" 598 313 basechar 0
AnchorPoint: "Anchor-0" 610 -492 basechar 0
LayerCount: 2
Fore
SplineSet
594 -492 m 0
 434 -492 303 -469 199 -422 c 1
 199 -256 l 1
 303 -311 446 -342 604 -342 c 0
 792 -342 907 -226 907 -33 c 2
 907 10 l 2
 907 43 911 120 913 145 c 1
 905 145 l 1
 829 32 715 -20 565 -20 c 0
 280 -20 113 189 113 547 c 0
 113 897 280 1118 563 1118 c 0
 706 1118 825 1065 907 952 c 1
 918 952 l 1
 942 1098 l 1
 1085 1098 l 1
 1085 -18 l 2
 1085 -331 930 -492 594 -492 c 0
592 127 m 0
 813 127 909 240 909 504 c 2
 909 547 l 2
 909 846 809 967 588 967 c 0
 404 967 299 815 299 545 c 0
 299 275 399 127 592 127 c 0
EndSplineSet
AlternateSubs2: "'ssty' Math Script Style lookup 8 subtable" g.ssty1 g.ssty2
AlternateSubs2: "'aalt' Access All Alternates lookup 1 subtable" g.ssty1 g.ssty2
EndChar

StartChar: h
Encoding: 104 104 89
AltUni2: 01d5c1.ffffffff.0 01d5c1.ffffffff.0
Width: 1265
GlyphClass: 2
Flags: HW
TopAccentHorizontal: 264
AnchorPoint: "Anchor-3" 1096 1556 basechar 0
AnchorPoint: "Anchor-2" 266 1556 basechar 0
AnchorPoint: "Anchor-1" 633 549 basechar 0
AnchorPoint: "Anchor-0" 635 0 basechar 0
LayerCount: 2
Fore
SplineSet
174 0 m 1
 174 1556 l 1
 354 1556 l 1
 354 1100 l 2
 354 1047 350 989 344 946 c 1
 356 946 l 1
 426 1059 557 1116 698 1116 c 0
 964 1116 1100 996 1100 715 c 2
 1100 0 l 1
 922 0 l 1
 922 702 l 2
 922 878 844 967 676 967 c 0
 430 967 354 823 354 567 c 2
 354 0 l 1
 174 0 l 1
EndSplineSet
AlternateSubs2: "'ssty' Math Script Style lookup 8 subtable" h.ssty1 h.ssty2
AlternateSubs2: "'aalt' Access All Alternates lookup 1 subtable" h.ssty1 h.ssty2
EndChar

StartChar: i
Encoding: 105 105 90
AltUni2: 01d5c2.ffffffff.0 01d5c2.ffffffff.0
Width: 528
GlyphClass: 2
Flags: HW
TopAccentHorizontal: 264
AnchorPoint: "Anchor-3" 487 1509 basechar 0
AnchorPoint: "Anchor-2" 264 1509 basechar 0
AnchorPoint: "Anchor-1" 264 754 basechar 0
AnchorPoint: "Anchor-0" 268 0 basechar 0
LayerCount: 2
Fore
SplineSet
266 1280 m 0
 207 1280 160 1317 160 1395 c 0
 160 1475 207 1509 266 1509 c 0
 321 1509 371 1475 371 1395 c 0
 371 1317 321 1280 266 1280 c 0
174 0 m 1
 174 1098 l 1
 354 1098 l 1
 354 0 l 1
 174 0 l 1
EndSplineSet
Substitution2: "Single Substitution lookup 10 subtable" dotlessi
AlternateSubs2: "'ssty' Math Script Style lookup 8 subtable" i.ssty1 i.ssty2
Substitution2: "'dtls' Dotless Forms lookup 7 subtable" dotlessi
Substitution2: "Single Substitution lookup 3 subtable" dotlessi
AlternateSubs2: "'aalt' Access All Alternates lookup 1 subtable" dotlessi i.ssty1 i.ssty2
EndChar

StartChar: dotlessi
Encoding: 305 305 91
Width: 528
GlyphClass: 2
Flags: HW
TopAccentHorizontal: 264
AnchorPoint: "Anchor-3" 487 1509 basechar 0
AnchorPoint: "Anchor-2" 264 1098 basechar 0
AnchorPoint: "Anchor-1" 264 549 basechar 0
AnchorPoint: "Anchor-0" 268 0 basechar 0
LayerCount: 2
Fore
SplineSet
174 0 m 1
 174 1098 l 1
 354 1098 l 1
 354 0 l 1
 174 0 l 1
EndSplineSet
AlternateSubs2: "'ssty' Math Script Style lookup 8 subtable" dotlessi.ssty1 dotlessi.ssty2
AlternateSubs2: "'aalt' Access All Alternates lookup 1 subtable" dotlessi.ssty1 dotlessi.ssty2
EndChar

StartChar: j
Encoding: 106 106 92
AltUni2: 01d5c3.ffffffff.0 01d5c3.ffffffff.0
Width: 681
GlyphClass: 2
Flags: HW
TopAccentHorizontal: 418
AnchorPoint: "Anchor-3" 641 1509 basechar 0
AnchorPoint: "Anchor-2" 418 1509 basechar 0
AnchorPoint: "Anchor-1" 274 303 basechar 0
AnchorPoint: "Anchor-0" 199 -492 basechar 0
LayerCount: 2
Fore
SplineSet
420 1280 m 0
 361 1280 313 1317 313 1395 c 0
 313 1475 361 1509 420 1509 c 0
 475 1509 524 1475 524 1395 c 0
 524 1317 475 1280 420 1280 c 0
199 -492 m 0
 129 -492 78 -481 41 -467 c 1
 41 -322 l 1
 82 -334 123 -342 176 -342 c 0
 264 -342 328 -303 328 -170 c 2
 328 1098 l 1
 508 1098 l 1
 508 -164 l 2
 508 -369 414 -492 199 -492 c 0
EndSplineSet
Substitution2: "Single Substitution lookup 10 subtable" uni0237
AlternateSubs2: "'ssty' Math Script Style lookup 8 subtable" j.ssty1 j.ssty2
Substitution2: "'dtls' Dotless Forms lookup 7 subtable" uni0237
Substitution2: "Single Substitution lookup 3 subtable" uni0237
AlternateSubs2: "'aalt' Access All Alternates lookup 1 subtable" uni0237 j.ssty1 j.ssty2
EndChar

StartChar: uni0237
Encoding: 567 567 93
Width: 681
GlyphClass: 2
Flags: HW
TopAccentHorizontal: 418
AnchorPoint: "Anchor-3" 641 1509 basechar 0
AnchorPoint: "Anchor-2" 418 1098 basechar 0
AnchorPoint: "Anchor-1" 274 303 basechar 0
AnchorPoint: "Anchor-0" 199 -492 basechar 0
LayerCount: 2
Fore
SplineSet
199 -492 m 0
 129 -492 78 -481 41 -467 c 1
 41 -322 l 1
 82 -334 123 -342 176 -342 c 0
 264 -342 328 -303 328 -170 c 2
 328 1098 l 1
 508 1098 l 1
 508 -164 l 2
 508 -369 414 -492 199 -492 c 0
EndSplineSet
AlternateSubs2: "'ssty' Math Script Style lookup 8 subtable" uni0237.ssty1 uni0237.ssty2
AlternateSubs2: "'aalt' Access All Alternates lookup 1 subtable" uni0237.ssty1 uni0237.ssty2
EndChar

StartChar: k
Encoding: 107 107 94
AltUni2: 01d5c4.ffffffff.0 01d5c4.ffffffff.0
Width: 1093
GlyphClass: 2
Flags: HW
TopAccentHorizontal: 264
AnchorPoint: "Anchor-3" 1083 1556 basechar 0
AnchorPoint: "Anchor-2" 264 1556 basechar 0
AnchorPoint: "Anchor-1" 625 778 basechar 0
AnchorPoint: "Anchor-0" 547 0 basechar 0
LayerCount: 2
Fore
SplineSet
174 0 m 1
 174 1556 l 1
 352 1556 l 1
 352 743 l 2
 352 700 348 616 344 565 c 1
 352 565 l 1
 377 598 446 686 483 727 c 2
 834 1098 l 1
 1044 1098 l 1
 600 629 l 1
 1075 0 l 1
 858 0 l 1
 477 512 l 1
 352 403 l 1
 352 0 l 1
 174 0 l 1
EndSplineSet
AlternateSubs2: "'ssty' Math Script Style lookup 8 subtable" k.ssty1 k.ssty2
AlternateSubs2: "'aalt' Access All Alternates lookup 1 subtable" k.ssty1 k.ssty2
EndChar

StartChar: l
Encoding: 108 108 95
AltUni2: 01d5c5.ffffffff.0 01d5c5.ffffffff.0
Width: 528
GlyphClass: 2
Flags: HW
TopAccentHorizontal: 264
AnchorPoint: "Anchor-3" 414 1556 basechar 0
AnchorPoint: "Anchor-2" 264 1556 basechar 0
AnchorPoint: "Anchor-1" 264 549 basechar 0
AnchorPoint: "Anchor-0" 264 0 basechar 0
LayerCount: 2
Fore
SplineSet
174 0 m 1
 174 1556 l 1
 354 1556 l 1
 354 0 l 1
 174 0 l 1
EndSplineSet
AlternateSubs2: "'ssty' Math Script Style lookup 8 subtable" l.ssty1 l.ssty2
AlternateSubs2: "'aalt' Access All Alternates lookup 1 subtable" l.ssty1 l.ssty2
EndChar

StartChar: m
Encoding: 109 109 96
AltUni2: 01d5c6.ffffffff.0 01d5c6.ffffffff.0
Width: 1914
GlyphClass: 2
Flags: HW
TopAccentHorizontal: 981
AnchorPoint: "Anchor-3" 1812 1098 basechar 0
AnchorPoint: "Anchor-2" 981 1098 basechar 0
AnchorPoint: "Anchor-1" 961 559 basechar 0
AnchorPoint: "Anchor-0" 965 0 basechar 0
LayerCount: 2
Fore
SplineSet
174 0 m 1
 174 1098 l 1
 319 1098 l 1
 346 948 l 1
 356 948 l 1
 424 1063 549 1118 680 1118 c 0
 848 1118 963 1059 1016 934 c 1
 1026 934 l 1
 1100 1059 1235 1118 1378 1118 c 0
 1626 1118 1749 998 1749 715 c 2
 1749 0 l 1
 1571 0 l 1
 1571 707 l 2
 1571 879 1500 967 1348 967 c 0
 1135 967 1051 839 1051 606 c 2
 1051 0 l 1
 872 0 l 1
 872 707 l 2
 872 879 801 967 647 967 c 0
 426 967 354 825 354 569 c 2
 354 0 l 1
 174 0 l 1
EndSplineSet
AlternateSubs2: "'ssty' Math Script Style lookup 8 subtable" m.ssty1 m.ssty2
AlternateSubs2: "'aalt' Access All Alternates lookup 1 subtable" m.ssty1 m.ssty2
EndChar

StartChar: n
Encoding: 110 110 97
AltUni2: 01d5c7.ffffffff.0 01d5c7.ffffffff.0
Width: 1265
GlyphClass: 2
Flags: HW
TopAccentHorizontal: 633
AnchorPoint: "Anchor-3" 1151 1098 basechar 0
AnchorPoint: "Anchor-2" 633 1098 basechar 0
AnchorPoint: "Anchor-1" 637 559 basechar 0
AnchorPoint: "Anchor-0" 633 0 basechar 0
LayerCount: 2
Fore
SplineSet
174 0 m 1
 174 1098 l 1
 319 1098 l 1
 346 948 l 1
 356 948 l 1
 428 1063 563 1118 702 1118 c 0
 964 1118 1100 998 1100 715 c 2
 1100 0 l 1
 922 0 l 1
 922 702 l 2
 922 878 844 967 676 967 c 0
 432 967 354 825 354 569 c 2
 354 0 l 1
 174 0 l 1
EndSplineSet
AlternateSubs2: "'ssty' Math Script Style lookup 8 subtable" n.ssty1 n.ssty2
AlternateSubs2: "'aalt' Access All Alternates lookup 1 subtable" n.ssty1 n.ssty2
EndChar

StartChar: o
Encoding: 111 111 98
AltUni2: 01d5c8.ffffffff.0 01d5c8.ffffffff.0
Width: 1239
GlyphClass: 2
Flags: HW
TopAccentHorizontal: 621
AnchorPoint: "Anchor-3" 1178 1098 basechar 0
AnchorPoint: "Anchor-2" 621 1098 basechar 0
AnchorPoint: "Anchor-1" 621 549 basechar 0
AnchorPoint: "Anchor-0" 616 0 basechar 0
LayerCount: 2
Fore
SplineSet
616 -20 m 0
 325 -20 113 186 113 551 c 0
 113 913 308 1118 623 1118 c 0
 920 1118 1128 913 1128 551 c 0
 1128 186 929 -20 616 -20 c 0
621 129 m 0
 842 129 942 291 942 551 c 0
 942 811 841 967 618 967 c 0
 395 967 299 811 299 551 c 0
 299 291 398 129 621 129 c 0
EndSplineSet
AlternateSubs2: "'ssty' Math Script Style lookup 8 subtable" o.ssty1 o.ssty2
AlternateSubs2: "'aalt' Access All Alternates lookup 1 subtable" o.ssty1 o.ssty2
EndChar

StartChar: p
Encoding: 112 112 99
AltUni2: 01d5c9.ffffffff.0 01d5c9.ffffffff.0
Width: 1257
GlyphClass: 2
Flags: HW
TopAccentHorizontal: 680
AnchorPoint: "Anchor-3" 1198 1098 basechar 0
AnchorPoint: "Anchor-2" 680 1098 basechar 0
AnchorPoint: "Anchor-1" 659 313 basechar 0
AnchorPoint: "Anchor-0" 264 -492 basechar 0
LayerCount: 2
Fore
SplineSet
174 -492 m 1
 174 1098 l 1
 322 1098 l 1
 346 948 l 1
 354 948 l 1
 420 1042 518 1118 696 1118 c 0
 966 1118 1147 930 1147 551 c 0
 1147 176 966 -20 694 -20 c 0
 524 -20 417 53 354 139 c 1
 342 139 l 1
 348 92 354 10 354 -41 c 2
 354 -492 l 1
 174 -492 l 1
668 129 m 0
 867 129 961 307 961 553 c 0
 961 803 867 967 664 967 c 0
 441 967 358 842 354 586 c 2
 354 551 l 2
 354 281 428 129 668 129 c 0
EndSplineSet
AlternateSubs2: "'ssty' Math Script Style lookup 8 subtable" p.ssty1 p.ssty2
AlternateSubs2: "'aalt' Access All Alternates lookup 1 subtable" p.ssty1 p.ssty2
EndChar

StartChar: q
Encoding: 113 113 100
AltUni2: 01d5ca.ffffffff.0 01d5ca.ffffffff.0
Width: 1259
GlyphClass: 2
Flags: HW
TopAccentHorizontal: 631
AnchorPoint: "Anchor-3" 1137 1098 basechar 0
AnchorPoint: "Anchor-2" 631 1098 basechar 0
AnchorPoint: "Anchor-1" 598 313 basechar 0
AnchorPoint: "Anchor-0" 995 -492 basechar 0
LayerCount: 2
Fore
SplineSet
905 -492 m 1
 905 -23 l 2
 905 26 907 100 915 147 c 1
 903 147 l 1
 840 53 733 -20 559 -20 c 0
 293 -20 113 170 113 547 c 0
 113 924 297 1118 565 1118 c 0
 737 1118 841 1042 907 948 c 1
 915 948 l 1
 942 1098 l 1
 1085 1098 l 1
 1085 -492 l 1
 905 -492 l 1
594 129 m 0
 819 129 903 252 907 508 c 2
 907 545 l 2
 907 824 828 969 590 969 c 0
 393 969 299 803 299 543 c 0
 299 283 393 129 594 129 c 0
EndSplineSet
AlternateSubs2: "'ssty' Math Script Style lookup 8 subtable" q.ssty1 q.ssty2
AlternateSubs2: "'aalt' Access All Alternates lookup 1 subtable" q.ssty1 q.ssty2
EndChar

StartChar: r
Encoding: 114 114 101
AltUni2: 01d5cb.ffffffff.0 01d5cb.ffffffff.0
Width: 845
GlyphClass: 2
Flags: HW
TopAccentHorizontal: 492
AnchorPoint: "Anchor-3" 805 1098 basechar 0
AnchorPoint: "Anchor-2" 492 1098 basechar 0
AnchorPoint: "Anchor-1" 494 559 basechar 0
AnchorPoint: "Anchor-0" 258 0 basechar 0
LayerCount: 2
Fore
SplineSet
174 0 m 1
 174 1098 l 1
 322 1098 l 1
 342 897 l 1
 350 897 l 1
 420 1018 532 1118 686 1118 c 0
 727 1118 778 1114 815 1106 c 1
 793 940 l 1
 758 948 711 954 674 954 c 0
 504 954 354 807 354 586 c 2
 354 0 l 1
 174 0 l 1
EndSplineSet
AlternateSubs2: "'ssty' Math Script Style lookup 8 subtable" r.ssty1 r.ssty2
AlternateSubs2: "'aalt' Access All Alternates lookup 1 subtable" r.ssty1 r.ssty2
EndChar

StartChar: s
Encoding: 115 115 102
AltUni2: 01d5cc.ffffffff.0 01d5cc.ffffffff.0
Width: 980
GlyphClass: 2
Flags: HW
TopAccentHorizontal: 492
AnchorPoint: "Anchor-3" 899 1098 basechar 0
AnchorPoint: "Anchor-2" 492 1098 basechar 0
AnchorPoint: "Anchor-1" 496 549 basechar 0
AnchorPoint: "Anchor-0" 492 0 basechar 0
LayerCount: 2
Fore
SplineSet
451 -20 m 0
 297 -20 190 4 106 49 c 1
 106 213 l 1
 192 170 326 125 455 125 c 0
 637 125 715 189 715 287 c 0
 715 369 659 418 444 500 c 0
 231 582 104 647 104 827 c 0
 104 1013 270 1118 516 1118 c 0
 649 1118 764 1089 866 1044 c 1
 805 901 l 1
 713 940 610 971 504 971 c 0
 357 971 276 920 276 838 c 0
 276 746 348 711 559 629 c 0
 766 549 889 479 889 303 c 0
 889 90 719 -20 451 -20 c 0
EndSplineSet
AlternateSubs2: "'ssty' Math Script Style lookup 8 subtable" s.ssty1 s.ssty2
AlternateSubs2: "'aalt' Access All Alternates lookup 1 subtable" s.ssty1 s.ssty2
EndChar

StartChar: t
Encoding: 116 116 103
AltUni2: 01d5cd.ffffffff.0 01d5cd.ffffffff.0
Width: 739
GlyphClass: 2
Flags: HW
TopAccentHorizontal: 315
AnchorPoint: "Anchor-3" 686 1350 basechar 0
AnchorPoint: "Anchor-2" 315 1350 basechar 0
AnchorPoint: "Anchor-1" 371 549 basechar 0
AnchorPoint: "Anchor-0" 438 0 basechar 0
LayerCount: 2
Fore
SplineSet
510 -20 m 0
 338 -20 188 53 188 319 c 2
 188 958 l 1
 33 958 l 1
 33 1044 l 1
 190 1116 l 1
 262 1350 l 1
 369 1350 l 1
 369 1098 l 1
 686 1098 l 1
 686 958 l 1
 369 958 l 1
 369 324 l 2
 369 191 441 127 541 127 c 0
 594 127 659 138 694 150 c 1
 694 12 l 1
 655 -6 576 -20 510 -20 c 0
EndSplineSet
AlternateSubs2: "'ssty' Math Script Style lookup 8 subtable" t.ssty1 t.ssty2
AlternateSubs2: "'aalt' Access All Alternates lookup 1 subtable" t.ssty1 t.ssty2
EndChar

StartChar: u
Encoding: 117 117 104
AltUni2: 01d5ce.ffffffff.0 01d5ce.ffffffff.0
Width: 1265
GlyphClass: 2
Flags: HW
TopAccentHorizontal: 633
AnchorPoint: "Anchor-3" 1151 1098 basechar 0
AnchorPoint: "Anchor-2" 633 1098 basechar 0
AnchorPoint: "Anchor-1" 627 539 basechar 0
AnchorPoint: "Anchor-0" 602 0 basechar 0
LayerCount: 2
Fore
SplineSet
561 -20 m 0
 297 -20 162 100 162 379 c 2
 162 1098 l 1
 344 1098 l 1
 344 391 l 2
 344 215 422 129 588 129 c 0
 832 129 911 270 911 526 c 2
 911 1098 l 1
 1092 1098 l 1
 1092 0 l 1
 944 0 l 1
 918 145 l 1
 909 145 l 1
 837 30 702 -20 561 -20 c 0
EndSplineSet
AlternateSubs2: "'ssty' Math Script Style lookup 8 subtable" u.ssty1 u.ssty2
AlternateSubs2: "'aalt' Access All Alternates lookup 1 subtable" u.ssty1 u.ssty2
EndChar

StartChar: v
Encoding: 118 118 105
AltUni2: 01d5cf.ffffffff.0 01d5cf.ffffffff.0
Width: 1040
GlyphClass: 2
Flags: HW
TopAccentHorizontal: 516
AnchorPoint: "Anchor-3" 999 1098 basechar 0
AnchorPoint: "Anchor-2" 516 1098 basechar 0
AnchorPoint: "Anchor-1" 520 549 basechar 0
AnchorPoint: "Anchor-0" 516 0 basechar 0
LayerCount: 2
Fore
SplineSet
416 0 m 1
 0 1098 l 1
 193 1098 l 1
 426 451 l 2
 459 361 502 228 514 160 c 1
 522 160 l 1
 536 228 583 363 614 451 c 2
 848 1098 l 1
 1040 1098 l 1
 623 0 l 1
 416 0 l 1
EndSplineSet
AlternateSubs2: "'ssty' Math Script Style lookup 8 subtable" v.ssty1 v.ssty2
AlternateSubs2: "'aalt' Access All Alternates lookup 1 subtable" v.ssty1 v.ssty2
EndChar

StartChar: w
Encoding: 119 119 106
AltUni2: 01d5d0.ffffffff.0 01d5d0.ffffffff.0
Width: 1609
GlyphClass: 2
Flags: HW
TopAccentHorizontal: 805
AnchorPoint: "Anchor-3" 1569 1098 basechar 0
AnchorPoint: "Anchor-2" 805 1098 basechar 0
AnchorPoint: "Anchor-1" 805 551 basechar 0
AnchorPoint: "Anchor-0" 801 0 basechar 0
LayerCount: 2
Fore
SplineSet
324 2 m 1
 23 1100 l 1
 209 1100 l 1
 360 514 l 2
 391 395 422 264 432 186 c 1
 440 186 l 1
 454 254 485 391 514 481 c 2
 709 1100 l 1
 905 1100 l 1
 1094 481 l 2
 1123 387 1157 266 1167 188 c 1
 1176 188 l 1
 1184 256 1216 389 1249 514 c 2
 1403 1100 l 1
 1587 1100 l 1
 1282 2 l 1
 1071 2 l 1
 883 621 l 2
 848 734 819 850 807 911 c 1
 799 911 l 1
 789 850 762 733 725 618 c 2
 528 2 l 1
 324 2 l 1
EndSplineSet
AlternateSubs2: "'ssty' Math Script Style lookup 8 subtable" w.ssty1 w.ssty2
AlternateSubs2: "'aalt' Access All Alternates lookup 1 subtable" w.ssty1 w.ssty2
EndChar

StartChar: x
Encoding: 120 120 107
AltUni2: 01d5d1.ffffffff.0 01d5d1.ffffffff.0
Width: 1083
GlyphClass: 2
Flags: HW
TopAccentHorizontal: 539
AnchorPoint: "Anchor-3" 1042 1098 basechar 0
AnchorPoint: "Anchor-2" 539 1098 basechar 0
AnchorPoint: "Anchor-1" 541 549 basechar 0
AnchorPoint: "Anchor-0" 543 0 basechar 0
LayerCount: 2
Fore
SplineSet
37 0 m 1
 434 561 l 1
 55 1098 l 1
 260 1098 l 1
 543 684 l 1
 823 1098 l 1
 1026 1098 l 1
 647 561 l 1
 1047 0 l 1
 842 0 l 1
 543 438 l 1
 240 0 l 1
 37 0 l 1
EndSplineSet
AlternateSubs2: "'ssty' Math Script Style lookup 8 subtable" x.ssty1 x.ssty2
AlternateSubs2: "'aalt' Access All Alternates lookup 1 subtable" x.ssty1 x.ssty2
EndChar

StartChar: y
Encoding: 121 121 108
AltUni2: 01d5d2.ffffffff.0 01d5d2.ffffffff.0
Width: 1044
GlyphClass: 2
Flags: HW
TopAccentHorizontal: 522
AnchorPoint: "Anchor-3" 1004 1098 basechar 0
AnchorPoint: "Anchor-2" 522 1098 basechar 0
AnchorPoint: "Anchor-1" 522 303 basechar 0
AnchorPoint: "Anchor-0" 193 -492 basechar 0
LayerCount: 2
Fore
SplineSet
172 -492 m 0
 106 -492 58 -483 23 -475 c 1
 23 -332 l 1
 52 -338 96 -344 143 -344 c 0
 268 -344 340 -267 387 -150 c 2
 444 -4 l 1
 2 1098 l 1
 195 1098 l 1
 432 473 l 2
 473 362 508 264 524 174 c 1
 532 174 l 1
 548 242 586 362 627 475 c 2
 850 1098 l 1
 1044 1098 l 1
 571 -152 l 2
 493 -359 385 -492 172 -492 c 0
EndSplineSet
AlternateSubs2: "'ssty' Math Script Style lookup 8 subtable" y.ssty1 y.ssty2
AlternateSubs2: "'aalt' Access All Alternates lookup 1 subtable" y.ssty1 y.ssty2
EndChar

StartChar: z
Encoding: 122 122 109
AltUni2: 01d5d3.ffffffff.0 01d5d3.ffffffff.0
Width: 962
GlyphClass: 2
Flags: HW
TopAccentHorizontal: 481
AnchorPoint: "Anchor-3" 881 1098 basechar 0
AnchorPoint: "Anchor-2" 481 1098 basechar 0
AnchorPoint: "Anchor-1" 481 549 basechar 0
AnchorPoint: "Anchor-0" 496 0 basechar 0
LayerCount: 2
Fore
SplineSet
80 0 m 1
 80 119 l 1
 670 958 l 1
 115 958 l 1
 115 1098 l 1
 868 1098 l 1
 868 963 l 1
 287 139 l 1
 883 139 l 1
 883 0 l 1
 80 0 l 1
EndSplineSet
AlternateSubs2: "'ssty' Math Script Style lookup 8 subtable" z.ssty1 z.ssty2
AlternateSubs2: "'aalt' Access All Alternates lookup 1 subtable" z.ssty1 z.ssty2
EndChar

StartChar: a.ssty1
Encoding: 1114165 -1 110
Width: 1261
GlyphClass: 2
Flags: HW
TopAccentHorizontal: 633
AnchorPoint: "Anchor-1" 612 555 basechar 0
LayerCount: 2
Fore
SplineSet
477 -20 m 0
 278 -20 131 88 131 326 c 0
 131 557 299 670 639 680 c 2
 831 686 l 1
 831 739 l 2
 831 876 760 932 641 932 c 0
 530 932 428 895 328 850 c 1
 242 1034 l 1
 353 1093 499 1133 653 1133 c 0
 942 1133 1096 1009 1096 745 c 2
 1096 0 l 1
 907 0 l 1
 856 154 l 1
 848 154 l 1
 752 33 663 -20 477 -20 c 0
569 178 m 0
 716 178 831 264 831 430 c 2
 831 524 l 1
 698 518 l 2
 479 508 406 441 406 324 c 0
 406 220 471 178 569 178 c 0
EndSplineSet
EndChar

StartChar: b.ssty1
Encoding: 1114166 -1 111
Width: 1351
GlyphClass: 2
Flags: HW
TopAccentHorizontal: 309
AnchorPoint: "Anchor-1" 684 768 basechar 0
LayerCount: 2
Fore
SplineSet
760 -20 m 0
 594 -20 499 49 440 127 c 1
 422 127 l 1
 375 0 l 1
 174 0 l 1
 174 1556 l 1
 440 1556 l 1
 440 1190 l 2
 440 1102 434 1012 428 967 c 1
 440 967 l 1
 499 1059 600 1133 766 1133 c 0
 1022 1133 1196 936 1196 557 c 0
 1196 176 1020 -20 760 -20 c 0
692 197 m 0
 839 197 924 325 924 561 c 0
 924 799 840 918 688 918 c 0
 506 918 440 809 440 584 c 2
 440 559 l 2
 440 323 499 197 692 197 c 0
EndSplineSet
EndChar

StartChar: c.ssty1
Encoding: 1114167 -1 112
Width: 1120
GlyphClass: 2
Flags: HW
TopAccentHorizontal: 664
AnchorPoint: "Anchor-1" 592 555 basechar 0
LayerCount: 2
Fore
SplineSet
674 -20 m 0
 352 -20 158 156 158 549 c 0
 158 959 379 1133 696 1133 c 0
 835 1133 948 1100 1026 1061 c 1
 946 852 l 1
 860 887 774 913 694 913 c 0
 516 913 430 793 430 551 c 0
 430 315 522 199 692 199 c 0
 815 199 907 232 995 285 c 1
 995 55 l 1
 907 2 819 -20 674 -20 c 0
EndSplineSet
EndChar

StartChar: d.ssty1
Encoding: 1114168 -1 113
Width: 1353
GlyphClass: 2
Flags: HW
TopAccentHorizontal: 1051
AnchorPoint: "Anchor-1" 668 768 basechar 0
LayerCount: 2
Fore
SplineSet
588 -20 m 0
 332 -20 158 176 158 553 c 0
 158 936 334 1133 596 1133 c 0
 758 1133 859 1061 922 969 c 1
 934 969 l 1
 926 1010 913 1100 913 1174 c 2
 913 1556 l 1
 1180 1556 l 1
 1180 0 l 1
 975 0 l 1
 926 145 l 1
 913 145 l 1
 852 53 754 -20 588 -20 c 0
672 195 m 0
 858 195 928 303 928 518 c 2
 928 551 l 2
 928 787 869 915 668 915 c 0
 514 915 428 782 428 549 c 0
 428 318 514 195 672 195 c 0
EndSplineSet
EndChar

StartChar: e.ssty1
Encoding: 1114169 -1 114
Width: 1304
GlyphClass: 2
Flags: HW
TopAccentHorizontal: 659
AnchorPoint: "Anchor-1" 657 555 basechar 0
LayerCount: 2
Fore
SplineSet
717 -20 m 0
 389 -20 158 168 158 547 c 0
 158 930 365 1133 674 1133 c 0
 973 1133 1159 946 1159 629 c 2
 1159 494 l 1
 428 494 l 1
 434 297 543 184 729 184 c 0
 872 184 979 211 1100 268 c 1
 1100 57 l 1
 989 4 883 -20 717 -20 c 0
434 678 m 1
 903 678 l 1
 901 828 830 936 674 936 c 0
 539 936 448 850 434 678 c 1
EndSplineSet
EndChar

StartChar: f.ssty1
Encoding: 1114170 -1 115
Width: 774
GlyphClass: 2
Flags: HW
ItalicCorrection: 145
TopAccentHorizontal: 567
AnchorPoint: "Anchor-1" 453 782 basechar 0
LayerCount: 2
Fore
SplineSet
219 0 m 1
 219 911 l 1
 43 911 l 1
 43 1038 l 1
 219 1114 l 1
 219 1190 l 2
 219 1475 366 1567 602 1567 c 0
 711 1567 803 1547 862 1524 c 1
 795 1325 l 1
 748 1339 693 1354 627 1354 c 0
 529 1354 485 1291 485 1182 c 2
 485 1112 l 1
 754 1112 l 1
 754 911 l 1
 485 911 l 1
 485 0 l 1
 219 0 l 1
EndSplineSet
EndChar

StartChar: g.ssty1
Encoding: 1114171 -1 116
Width: 1353
GlyphClass: 2
Flags: HW
TopAccentHorizontal: 653
AnchorPoint: "Anchor-1" 668 319 basechar 0
LayerCount: 2
Fore
SplineSet
641 -492 m 0
 483 -492 352 -473 231 -424 c 1
 231 -205 l 1
 358 -262 503 -291 657 -291 c 0
 825 -291 915 -196 915 -20 c 2
 915 8 l 2
 915 47 920 112 922 145 c 1
 913 145 l 1
 837 30 727 -20 590 -20 c 0
 320 -20 158 193 158 553 c 0
 158 915 322 1133 594 1133 c 0
 733 1133 846 1078 924 969 c 1
 934 969 l 1
 958 1112 l 1
 1180 1112 l 1
 1180 -6 l 2
 1180 -325 1001 -492 641 -492 c 0
672 190 m 0
 848 190 930 278 930 514 c 2
 930 553 l 2
 930 811 850 915 668 915 c 0
 512 915 430 791 430 551 c 0
 430 313 510 190 672 190 c 0
EndSplineSet
EndChar

StartChar: h.ssty1
Encoding: 1114172 -1 117
Width: 1339
GlyphClass: 2
Flags: HW
TopAccentHorizontal: 309
AnchorPoint: "Anchor-1" 674 778 basechar 0
LayerCount: 2
Fore
SplineSet
174 0 m 1
 174 1556 l 1
 440 1556 l 1
 440 1196 l 2
 440 1104 432 1008 428 967 c 1
 442 967 l 1
 514 1080 633 1133 772 1133 c 0
 1022 1133 1174 1010 1174 725 c 2
 1174 0 l 1
 907 0 l 1
 907 668 l 2
 907 834 844 918 707 918 c 0
 504 918 440 783 440 539 c 2
 440 0 l 1
 174 0 l 1
EndSplineSet
EndChar

StartChar: i.ssty1
Encoding: 1114173 -1 118
Width: 610
GlyphClass: 2
Flags: HW
TopAccentHorizontal: 305
AnchorPoint: "Anchor-1" 305 770 basechar 0
LayerCount: 2
Fore
SplineSet
307 1264 m 0
 225 1264 160 1301 160 1403 c 0
 160 1507 225 1542 307 1542 c 0
 387 1542 453 1507 453 1403 c 0
 453 1301 387 1264 307 1264 c 0
172 0 m 1
 172 1112 l 1
 438 1112 l 1
 438 0 l 1
 172 0 l 1
EndSplineSet
EndChar

StartChar: dotlessi.ssty1
Encoding: 1114174 -1 119
Width: 614
GlyphClass: 2
Flags: HW
TopAccentHorizontal: 307
AnchorPoint: "Anchor-1" 307 555 basechar 0
LayerCount: 2
Fore
SplineSet
174 0 m 1
 174 1112 l 1
 440 1112 l 1
 440 0 l 1
 174 0 l 1
EndSplineSet
EndChar

StartChar: j.ssty1
Encoding: 1114175 -1 120
Width: 786
GlyphClass: 2
Flags: HW
TopAccentHorizontal: 481
AnchorPoint: "Anchor-1" 326 524 basechar 0
LayerCount: 2
Fore
SplineSet
479 1264 m 0
 397 1264 332 1301 332 1403 c 0
 332 1507 397 1542 479 1542 c 0
 559 1542 625 1507 625 1403 c 0
 625 1301 559 1264 479 1264 c 0
244 -492 m 0
 174 -492 102 -481 57 -467 c 1
 57 -256 l 1
 104 -268 144 -276 199 -276 c 0
 281 -276 346 -239 346 -104 c 2
 346 1112 l 1
 612 1112 l 1
 612 -135 l 2
 612 -340 508 -492 244 -492 c 0
EndSplineSet
EndChar

StartChar: uni0237.ssty1
Encoding: 1114176 -1 121
Width: 786
GlyphClass: 2
Flags: HW
TopAccentHorizontal: 481
AnchorPoint: "Anchor-1" 334 309 basechar 0
LayerCount: 2
Fore
SplineSet
244 -492 m 0
 174 -492 102 -481 57 -467 c 1
 57 -256 l 1
 104 -268 144 -276 199 -276 c 0
 281 -276 346 -239 346 -104 c 2
 346 1112 l 1
 612 1112 l 1
 612 -135 l 2
 612 -340 508 -492 244 -492 c 0
EndSplineSet
EndChar

StartChar: k.ssty1
Encoding: 1114177 -1 122
Width: 1236
GlyphClass: 2
Flags: HW
TopAccentHorizontal: 309
AnchorPoint: "Anchor-1" 696 778 basechar 0
LayerCount: 2
Fore
SplineSet
174 0 m 1
 174 1556 l 1
 440 1556 l 1
 440 823 l 2
 440 751 432 662 426 594 c 1
 432 594 l 1
 467 645 518 713 563 762 c 2
 889 1112 l 1
 1192 1112 l 1
 748 631 l 1
 1219 0 l 1
 909 0 l 1
 569 471 l 1
 440 365 l 1
 440 0 l 1
 174 0 l 1
EndSplineSet
EndChar

StartChar: l.ssty1
Encoding: 1114178 -1 123
Width: 614
GlyphClass: 2
Flags: HW
TopAccentHorizontal: 307
AnchorPoint: "Anchor-1" 307 778 basechar 0
LayerCount: 2
Fore
SplineSet
174 0 m 1
 174 1556 l 1
 440 1556 l 1
 440 0 l 1
 174 0 l 1
EndSplineSet
EndChar

StartChar: m.ssty1
Encoding: 1114179 -1 124
Width: 1998
GlyphClass: 2
Flags: HW
TopAccentHorizontal: 1024
AnchorPoint: "Anchor-1" 1004 565 basechar 0
LayerCount: 2
Fore
SplineSet
174 0 m 1
 174 1112 l 1
 381 1112 l 1
 418 967 l 1
 432 967 l 1
 500 1082 627 1133 756 1133 c 0
 922 1133 1037 1080 1096 963 c 1
 1116 963 l 1
 1186 1080 1319 1133 1454 1133 c 0
 1706 1133 1833 1010 1833 725 c 2
 1833 0 l 1
 1569 0 l 1
 1569 670 l 2
 1569 834 1509 918 1382 918 c 0
 1206 918 1137 796 1137 575 c 2
 1137 0 l 1
 870 0 l 1
 870 670 l 2
 870 834 813 918 686 918 c 0
 500 918 440 783 440 541 c 2
 440 0 l 1
 174 0 l 1
EndSplineSet
EndChar

StartChar: n.ssty1
Encoding: 1114180 -1 125
Width: 1339
GlyphClass: 2
Flags: HW
TopAccentHorizontal: 670
AnchorPoint: "Anchor-1" 674 565 basechar 0
LayerCount: 2
Fore
SplineSet
174 0 m 1
 174 1112 l 1
 381 1112 l 1
 418 967 l 1
 432 967 l 1
 504 1082 637 1133 776 1133 c 0
 1022 1133 1174 1010 1174 725 c 2
 1174 0 l 1
 907 0 l 1
 907 668 l 2
 907 834 846 918 707 918 c 0
 504 918 440 783 440 541 c 2
 440 0 l 1
 174 0 l 1
EndSplineSet
EndChar

StartChar: o.ssty1
Encoding: 1114181 -1 126
Width: 1376
GlyphClass: 2
Flags: HW
TopAccentHorizontal: 690
AnchorPoint: "Anchor-1" 688 555 basechar 0
LayerCount: 2
Fore
SplineSet
686 -20 m 0
 379 -20 158 188 158 557 c 0
 158 926 360 1133 692 1133 c 0
 999 1133 1221 926 1221 557 c 0
 1221 188 1014 -20 686 -20 c 0
690 195 m 0
 870 195 948 326 948 557 c 0
 948 790 870 915 688 915 c 0
 506 915 430 790 430 557 c 0
 430 326 508 195 690 195 c 0
EndSplineSet
EndChar

StartChar: p.ssty1
Encoding: 1114182 -1 127
Width: 1351
GlyphClass: 2
Flags: HW
TopAccentHorizontal: 731
AnchorPoint: "Anchor-1" 684 319 basechar 0
LayerCount: 2
Fore
SplineSet
174 -492 m 1
 174 1112 l 1
 391 1112 l 1
 428 965 l 1
 440 965 l 1
 501 1057 598 1133 766 1133 c 0
 1024 1133 1196 936 1196 557 c 0
 1196 178 1018 -20 760 -20 c 0
 596 -20 501 51 440 127 c 1
 426 127 l 1
 434 76 440 12 440 -41 c 2
 440 -492 l 1
 174 -492 l 1
692 197 m 0
 850 197 924 334 924 561 c 0
 924 790 850 918 688 918 c 0
 508 918 440 809 440 592 c 2
 440 559 l 2
 440 326 499 197 692 197 c 0
EndSplineSet
EndChar

StartChar: q.ssty1
Encoding: 1114183 -1 128
Width: 1353
GlyphClass: 2
Flags: HW
TopAccentHorizontal: 678
AnchorPoint: "Anchor-1" 668 319 basechar 0
LayerCount: 2
Fore
SplineSet
913 -492 m 1
 913 -23 l 2
 913 30 918 94 926 145 c 1
 913 145 l 1
 854 53 754 -20 588 -20 c 0
 332 -20 158 176 158 553 c 0
 158 934 336 1133 594 1133 c 0
 760 1133 858 1059 924 967 c 1
 932 967 l 1
 958 1112 l 1
 1180 1112 l 1
 1180 -492 l 1
 913 -492 l 1
674 190 m 0
 858 190 928 297 928 514 c 2
 928 551 l 2
 928 789 867 915 670 915 c 0
 508 915 430 782 430 549 c 0
 430 316 508 190 674 190 c 0
EndSplineSet
EndChar

StartChar: r.ssty1
Encoding: 1114184 -1 129
Width: 905
GlyphClass: 2
Flags: HW
TopAccentHorizontal: 526
AnchorPoint: "Anchor-1" 524 565 basechar 0
LayerCount: 2
Fore
SplineSet
174 0 m 1
 174 1112 l 1
 379 1112 l 1
 418 920 l 1
 430 920 l 1
 496 1037 612 1133 764 1133 c 0
 799 1133 845 1128 874 1122 c 1
 852 874 l 1
 827 880 783 885 754 885 c 0
 592 885 440 788 440 573 c 2
 440 0 l 1
 174 0 l 1
EndSplineSet
EndChar

StartChar: s.ssty1
Encoding: 1114185 -1 130
Width: 1101
GlyphClass: 2
Flags: HW
TopAccentHorizontal: 553
AnchorPoint: "Anchor-1" 559 555 basechar 0
LayerCount: 2
Fore
SplineSet
508 -20 m 0
 352 -20 251 0 147 47 c 1
 147 270 l 1
 258 219 403 178 516 178 c 0
 655 178 713 225 713 295 c 0
 713 358 678 393 461 483 c 0
 250 571 145 641 145 827 c 0
 145 1028 318 1133 578 1133 c 0
 715 1133 833 1106 958 1049 c 1
 874 854 l 1
 770 897 673 932 571 932 c 0
 462 932 408 899 408 840 c 0
 408 774 454 744 655 664 c 0
 852 586 973 514 973 324 c 0
 973 101 809 -20 508 -20 c 0
EndSplineSet
EndChar

StartChar: t.ssty1
Encoding: 1114186 -1 131
Width: 847
GlyphClass: 2
Flags: HW
TopAccentHorizontal: 362
AnchorPoint: "Anchor-1" 414 666 basechar 0
LayerCount: 2
Fore
SplineSet
535 -20 m 0
 342 -20 193 59 193 340 c 2
 193 911 l 1
 45 911 l 1
 45 1026 l 1
 209 1118 l 1
 293 1354 l 1
 459 1354 l 1
 459 1112 l 1
 774 1112 l 1
 774 911 l 1
 459 911 l 1
 459 342 l 2
 459 242 518 193 604 193 c 0
 667 193 731 207 784 223 c 1
 784 25 l 1
 727 0 635 -20 535 -20 c 0
EndSplineSet
EndChar

StartChar: u.ssty1
Encoding: 1114187 -1 132
Width: 1337
GlyphClass: 2
Flags: HW
TopAccentHorizontal: 668
AnchorPoint: "Anchor-1" 662 545 basechar 0
LayerCount: 2
Fore
SplineSet
561 -20 m 0
 313 -20 162 102 162 385 c 2
 162 1112 l 1
 430 1112 l 1
 430 442 l 2
 430 276 492 195 629 195 c 0
 834 195 897 327 897 571 c 2
 897 1112 l 1
 1163 1112 l 1
 1163 0 l 1
 956 0 l 1
 920 143 l 1
 905 143 l 1
 833 28 700 -20 561 -20 c 0
EndSplineSet
EndChar

StartChar: v.ssty1
Encoding: 1114188 -1 133
Width: 1126
GlyphClass: 2
Flags: HW
TopAccentHorizontal: 559
AnchorPoint: "Anchor-1" 563 555 basechar 0
LayerCount: 2
Fore
SplineSet
422 0 m 1
 0 1112 l 1
 281 1112 l 1
 500 471 l 2
 529 389 551 289 557 223 c 1
 565 223 l 1
 573 293 600 391 627 471 c 2
 846 1112 l 1
 1126 1112 l 1
 702 0 l 1
 422 0 l 1
EndSplineSet
EndChar

StartChar: w.ssty1
Encoding: 1114189 -1 134
Width: 1728
GlyphClass: 2
Flags: HW
TopAccentHorizontal: 864
AnchorPoint: "Anchor-1" 864 555 basechar 0
LayerCount: 2
Fore
SplineSet
344 0 m 1
 31 1112 l 1
 299 1112 l 1
 434 588 l 2
 463 479 490 311 500 233 c 1
 508 233 l 1
 514 309 549 494 565 551 c 2
 721 1112 l 1
 1014 1112 l 1
 1161 551 l 2
 1179 481 1215 312 1219 236 c 1
 1227 236 l 1
 1235 304 1265 477 1294 588 c 2
 1434 1112 l 1
 1698 1112 l 1
 1380 0 l 1
 1087 0 l 1
 969 463 l 2
 944 561 882 817 866 893 c 1
 858 893 l 1
 842 817 783 561 756 459 c 2
 633 0 l 1
 344 0 l 1
EndSplineSet
EndChar

StartChar: x.ssty1
Encoding: 1114190 -1 135
Width: 1218
GlyphClass: 2
Flags: HW
TopAccentHorizontal: 606
AnchorPoint: "Anchor-1" 608 555 basechar 0
LayerCount: 2
Fore
SplineSet
51 0 m 1
 436 567 l 1
 70 1112 l 1
 373 1112 l 1
 610 737 l 1
 848 1112 l 1
 1149 1112 l 1
 780 567 l 1
 1167 0 l 1
 864 0 l 1
 610 399 l 1
 352 0 l 1
 51 0 l 1
EndSplineSet
EndChar

StartChar: y.ssty1
Encoding: 1114191 -1 136
Width: 1128
GlyphClass: 2
Flags: HW
TopAccentHorizontal: 565
AnchorPoint: "Anchor-1" 563 309 basechar 0
LayerCount: 2
Fore
SplineSet
209 -492 m 0
 141 -492 92 -483 55 -475 c 1
 55 -264 l 1
 84 -270 129 -276 176 -276 c 0
 303 -276 373 -191 414 -80 c 2
 444 4 l 1
 0 1112 l 1
 291 1112 l 1
 510 485 l 2
 537 407 555 334 563 258 c 1
 571 258 l 1
 581 328 602 405 629 485 c 2
 842 1112 l 1
 1128 1112 l 1
 655 -145 l 2
 571 -370 422 -492 209 -492 c 0
EndSplineSet
EndChar

StartChar: z.ssty1
Encoding: 1114192 -1 137
Width: 1083
GlyphClass: 2
Flags: HW
TopAccentHorizontal: 541
AnchorPoint: "Anchor-1" 541 555 basechar 0
LayerCount: 2
Fore
SplineSet
113 0 m 1
 113 162 l 1
 653 907 l 1
 143 907 l 1
 143 1112 l 1
 952 1112 l 1
 952 934 l 1
 424 205 l 1
 971 205 l 1
 971 0 l 1
 113 0 l 1
EndSplineSet
EndChar

StartChar: a.ssty2
Encoding: 1114193 -1 138
Width: 1470
GlyphClass: 2
Flags: HW
TopAccentHorizontal: 737
AnchorPoint: "Anchor-1" 723 557 basechar 0
LayerCount: 2
Fore
SplineSet
780 1137 m 0
 1073 1137 1239 1005 1239 741 c 2
 1239 0 l 1
 1030 0 l 1
 971 160 l 1
 963 160 l 1
 867 37 772 -20 567 -20 c 0
 364 -20 207 82 207 326 c 0
 207 562 387 670 735 684 c 2
 940 692 l 1
 940 733 l 2
 940 868 869 922 750 922 c 0
 639 922 527 885 416 836 c 1
 322 1038 l 1
 447 1099 602 1137 780 1137 c 0
809 514 m 2
 596 508 514 445 514 334 c 0
 514 238 582 197 680 197 c 0
 834 197 940 283 942 428 c 2
 942 520 l 1
 809 514 l 2
EndSplineSet
EndChar

StartChar: b.ssty2
Encoding: 1114194 -1 139
Width: 1480
GlyphClass: 2
Flags: HW
TopAccentHorizontal: 399
AnchorPoint: "Anchor-1" 784 768 basechar 0
LayerCount: 2
Fore
SplineSet
545 1188 m 2
 545 1098 538 1005 532 956 c 1
 543 956 l 1
 600 1052 707 1137 885 1137 c 0
 1147 1137 1325 940 1325 561 c 0
 1325 184 1146 -20 870 -20 c 0
 690 -20 600 59 545 133 c 1
 524 133 l 1
 473 0 l 1
 244 0 l 1
 244 1556 l 1
 545 1556 l 1
 545 1188 l 2
786 901 m 0
 616 901 547 801 545 590 c 2
 545 555 l 2
 545 338 604 223 786 223 c 0
 933 223 1020 346 1020 565 c 0
 1020 788 938 901 786 901 c 0
EndSplineSet
EndChar

StartChar: c.ssty2
Encoding: 1114195 -1 140
Width: 1341
GlyphClass: 2
Flags: HW
TopAccentHorizontal: 795
AnchorPoint: "Anchor-1" 719 557 basechar 0
LayerCount: 2
Fore
SplineSet
807 -20 m 0
 461 -20 248 164 248 553 c 0
 248 963 500 1137 838 1137 c 0
 979 1137 1100 1106 1192 1061 c 1
 1104 834 l 1
 1008 873 922 899 834 899 c 0
 656 899 553 778 553 555 c 0
 553 334 651 221 827 221 c 0
 954 221 1061 256 1159 311 c 1
 1159 63 l 1
 1067 10 965 -20 807 -20 c 0
EndSplineSet
EndChar

StartChar: d.ssty2
Encoding: 1114196 -1 141
Width: 1572
GlyphClass: 2
Flags: HW
TopAccentHorizontal: 1182
AnchorPoint: "Anchor-1" 788 768 basechar 0
LayerCount: 2
Fore
SplineSet
690 -20 m 0
 426 -20 248 174 248 553 c 0
 248 940 433 1137 705 1137 c 0
 879 1137 979 1056 1038 958 c 1
 1047 958 l 1
 1039 1007 1028 1114 1028 1206 c 2
 1028 1556 l 1
 1329 1556 l 1
 1329 0 l 1
 1102 0 l 1
 1038 162 l 1
 1028 162 l 1
 973 66 868 -20 690 -20 c 0
799 219 m 0
 985 219 1049 323 1053 528 c 2
 1053 549 l 2
 1053 770 992 895 799 895 c 0
 645 895 551 776 551 549 c 0
 551 328 641 219 799 219 c 0
EndSplineSet
EndChar

StartChar: e.ssty2
Encoding: 1114197 -1 142
Width: 1548
GlyphClass: 2
Flags: HW
TopAccentHorizontal: 782
AnchorPoint: "Anchor-1" 782 559 basechar 0
LayerCount: 2
Fore
SplineSet
801 1139 m 0
 1125 1139 1319 957 1319 625 c 2
 1319 485 l 1
 553 485 l 1
 559 311 667 199 864 199 c 0
 1014 199 1124 226 1253 283 c 1
 1253 59 l 1
 1140 4 1026 -20 840 -20 c 0
 498 -20 248 160 248 551 c 0
 248 934 469 1139 801 1139 c 0
807 928 m 0
 672 928 575 846 559 682 c 1
 1040 682 l 1
 1038 823 963 928 807 928 c 0
EndSplineSet
EndChar

StartChar: f.ssty2
Encoding: 1114198 -1 143
Width: 835
GlyphClass: 2
Flags: HW
ItalicCorrection: 178
TopAccentHorizontal: 612
AnchorPoint: "Anchor-1" 496 782 basechar 0
LayerCount: 2
Fore
SplineSet
815 893 m 1
 545 893 l 1
 545 0 l 1
 246 0 l 1
 246 893 l 1
 68 893 l 1
 68 1040 l 1
 248 1116 l 1
 248 1184 l 2
 248 1463 385 1567 641 1567 c 0
 756 1567 848 1547 924 1522 c 1
 854 1313 l 1
 807 1327 752 1339 686 1339 c 0
 588 1339 545 1284 545 1184 c 2
 545 1116 l 1
 815 1116 l 1
 815 893 l 1
EndSplineSet
EndChar

StartChar: g.ssty2
Encoding: 1114199 -1 144
Width: 1572
GlyphClass: 2
Flags: HW
TopAccentHorizontal: 760
AnchorPoint: "Anchor-1" 788 322 basechar 0
LayerCount: 2
Fore
SplineSet
700 1137 m 0
 862 1137 970 1069 1042 969 c 1
 1049 969 l 1
 1073 1116 l 1
 1329 1116 l 1
 1329 -18 l 2
 1329 -325 1143 -492 758 -492 c 0
 578 -492 440 -473 311 -426 c 1
 311 -178 l 1
 444 -233 580 -264 758 -264 c 0
 942 -264 1028 -172 1028 -20 c 2
 1028 14 l 2
 1028 57 1032 111 1038 158 c 1
 1028 158 l 1
 965 45 852 -20 690 -20 c 0
 418 -20 248 186 248 555 c 0
 248 924 419 1137 700 1137 c 0
799 901 m 0
 635 901 553 778 553 551 c 0
 553 324 635 211 799 211 c 0
 985 211 1053 315 1053 518 c 2
 1053 565 l 2
 1053 786 987 901 799 901 c 0
EndSplineSet
EndChar

StartChar: h.ssty2
Encoding: 1114200 -1 145
Width: 1480
GlyphClass: 2
Flags: HW
TopAccentHorizontal: 399
AnchorPoint: "Anchor-1" 778 778 basechar 0
LayerCount: 2
Fore
SplineSet
545 1239 m 2
 545 1110 534 1010 532 963 c 1
 547 963 l 1
 621 1082 739 1137 895 1137 c 0
 1143 1137 1315 1018 1315 725 c 2
 1315 0 l 1
 1014 0 l 1
 1014 649 l 2
 1014 815 946 901 811 901 c 0
 616 901 545 768 545 528 c 2
 545 0 l 1
 244 0 l 1
 244 1556 l 1
 545 1556 l 1
 545 1239 l 2
EndSplineSet
EndChar

StartChar: i.ssty2
Encoding: 1114201 -1 146
Width: 712
GlyphClass: 2
Flags: HW
TopAccentHorizontal: 356
AnchorPoint: "Anchor-1" 389 776 basechar 0
LayerCount: 2
Fore
SplineSet
387 1268 m 0
 297 1268 223 1300 223 1411 c 0
 223 1522 297 1554 387 1554 c 0
 477 1554 555 1522 555 1411 c 0
 555 1300 477 1268 387 1268 c 0
238 0 m 1
 238 1116 l 1
 537 1116 l 1
 537 0 l 1
 238 0 l 1
EndSplineSet
EndChar

StartChar: dotlessi.ssty2
Encoding: 1114202 -1 147
Width: 716
GlyphClass: 2
Flags: HW
TopAccentHorizontal: 358
AnchorPoint: "Anchor-1" 393 557 basechar 0
LayerCount: 2
Fore
SplineSet
244 0 m 1
 244 1116 l 1
 543 1116 l 1
 543 0 l 1
 244 0 l 1
EndSplineSet
EndChar

StartChar: j.ssty2
Encoding: 1114203 -1 148
Width: 925
GlyphClass: 2
Flags: HW
TopAccentHorizontal: 532
AnchorPoint: "Anchor-1" 332 530 basechar 0
LayerCount: 2
Fore
SplineSet
369 1411 m 0
 369 1522 442 1554 532 1554 c 0
 620 1554 698 1522 698 1411 c 0
 698 1300 622 1268 532 1268 c 0
 440 1268 369 1300 369 1411 c 0
293 -492 m 0
 223 -492 139 -481 90 -467 c 1
 90 -233 l 1
 139 -247 178 -254 231 -254 c 0
 315 -254 381 -215 381 -76 c 2
 381 1116 l 1
 682 1116 l 1
 682 -131 l 2
 682 -321 576 -492 293 -492 c 0
EndSplineSet
EndChar

StartChar: uni0237.ssty2
Encoding: 1114204 -1 149
Width: 925
GlyphClass: 2
Flags: HW
TopAccentHorizontal: 567
AnchorPoint: "Anchor-1" 385 311 basechar 0
LayerCount: 2
Fore
SplineSet
293 -492 m 0
 223 -492 139 -481 90 -467 c 1
 90 -233 l 1
 139 -247 178 -254 231 -254 c 0
 315 -254 381 -215 381 -76 c 2
 381 1116 l 1
 682 1116 l 1
 682 -131 l 2
 682 -321 576 -492 293 -492 c 0
EndSplineSet
EndChar

StartChar: k.ssty2
Encoding: 1114205 -1 150
Width: 1402
GlyphClass: 2
Flags: HW
TopAccentHorizontal: 399
AnchorPoint: "Anchor-1" 809 778 basechar 0
LayerCount: 2
Fore
SplineSet
545 870 m 2
 545 784 536 678 528 588 c 1
 532 588 l 1
 571 637 625 709 670 760 c 2
 1004 1116 l 1
 1346 1116 l 1
 895 631 l 1
 1376 0 l 1
 1028 0 l 1
 688 453 l 1
 545 334 l 1
 545 0 l 1
 244 0 l 1
 244 1556 l 1
 545 1556 l 1
 545 870 l 2
EndSplineSet
EndChar

StartChar: l.ssty2
Encoding: 1114206 -1 151
Width: 718
GlyphClass: 2
Flags: HW
TopAccentHorizontal: 360
AnchorPoint: "Anchor-1" 393 778 basechar 0
LayerCount: 2
Fore
SplineSet
545 0 m 1
 244 0 l 1
 244 1556 l 1
 545 1556 l 1
 545 0 l 1
EndSplineSet
EndChar

StartChar: m.ssty2
Encoding: 1114207 -1 152
Width: 2170
GlyphClass: 2
Flags: HW
TopAccentHorizontal: 1112
AnchorPoint: "Anchor-1" 1124 567 basechar 0
LayerCount: 2
Fore
SplineSet
1604 1137 m 0
 1862 1137 2005 1016 2005 731 c 2
 2005 0 l 1
 1704 0 l 1
 1704 653 l 2
 1704 827 1639 901 1518 901 c 0
 1348 901 1274 784 1274 565 c 2
 1274 0 l 1
 975 0 l 1
 975 653 l 2
 975 823 909 901 788 901 c 0
 614 901 545 777 545 537 c 2
 545 0 l 1
 244 0 l 1
 244 1116 l 1
 473 1116 l 1
 516 967 l 1
 528 967 l 1
 591 1071 717 1137 879 1137 c 0
 1049 1137 1165 1082 1231 965 c 1
 1247 965 l 1
 1319 1078 1454 1137 1604 1137 c 0
EndSplineSet
EndChar

StartChar: n.ssty2
Encoding: 1114208 -1 153
Width: 1480
GlyphClass: 2
Flags: HW
TopAccentHorizontal: 741
AnchorPoint: "Anchor-1" 778 567 basechar 0
LayerCount: 2
Fore
SplineSet
899 1137 m 0
 1151 1137 1315 1016 1315 725 c 2
 1315 0 l 1
 1016 0 l 1
 1016 649 l 2
 1016 817 948 901 813 901 c 0
 614 901 545 766 545 528 c 2
 545 0 l 1
 244 0 l 1
 244 1116 l 1
 473 1116 l 1
 514 956 l 1
 528 956 l 1
 600 1071 731 1137 899 1137 c 0
EndSplineSet
EndChar

StartChar: o.ssty2
Encoding: 1114209 -1 154
Width: 1615
GlyphClass: 2
Flags: HW
TopAccentHorizontal: 809
AnchorPoint: "Anchor-1" 809 557 basechar 0
LayerCount: 2
Fore
SplineSet
1372 561 m 0
 1372 184 1153 -20 807 -20 c 0
 483 -20 248 184 248 561 c 0
 248 932 469 1137 815 1137 c 0
 1145 1137 1372 921 1372 561 c 0
553 561 m 0
 553 340 631 211 811 211 c 0
 991 211 1067 340 1067 561 c 0
 1067 778 993 907 811 907 c 0
 633 907 553 784 553 561 c 0
EndSplineSet
EndChar

StartChar: p.ssty2
Encoding: 1114210 -1 155
Width: 1482
GlyphClass: 2
Flags: HW
TopAccentHorizontal: 801
AnchorPoint: "Anchor-1" 784 324 basechar 0
LayerCount: 2
Fore
SplineSet
887 1137 m 0
 1155 1137 1325 938 1325 563 c 0
 1325 178 1136 -20 872 -20 c 0
 690 -20 598 59 545 133 c 1
 530 133 l 1
 538 80 545 15 545 -59 c 2
 545 -489 l 1
 244 -489 l 1
 244 1116 l 1
 489 1116 l 1
 530 954 l 1
 545 954 l 1
 600 1046 703 1137 887 1137 c 0
786 899 m 0
 612 899 549 793 545 592 c 2
 545 565 l 2
 545 344 606 221 786 221 c 0
 940 221 1020 340 1020 567 c 0
 1020 792 942 899 786 899 c 0
EndSplineSet
EndChar

StartChar: q.ssty2
Encoding: 1114211 -1 156
Width: 1574
GlyphClass: 2
Flags: HW
TopAccentHorizontal: 788
AnchorPoint: "Anchor-1" 788 324 basechar 0
LayerCount: 2
Fore
SplineSet
1030 -12 m 2
 1030 45 1034 111 1042 160 c 1
 1030 160 l 1
 975 64 870 -20 690 -20 c 0
 424 -20 248 176 248 557 c 0
 248 930 426 1137 700 1137 c 0
 878 1137 983 1055 1042 965 c 1
 1051 965 l 1
 1075 1116 l 1
 1331 1116 l 1
 1331 -489 l 1
 1030 -489 l 1
 1030 -12 l 2
799 211 m 0
 985 211 1051 319 1053 524 c 2
 1053 559 l 2
 1053 776 991 901 801 901 c 0
 637 901 555 774 555 553 c 0
 555 324 633 211 799 211 c 0
EndSplineSet
EndChar

StartChar: r.ssty2
Encoding: 1114212 -1 157
Width: 1044
GlyphClass: 2
Flags: HW
TopAccentHorizontal: 606
AnchorPoint: "Anchor-1" 623 567 basechar 0
LayerCount: 2
Fore
SplineSet
877 1137 m 0
 920 1137 974 1130 1001 1124 c 1
 977 848 l 1
 946 856 903 862 852 862 c 0
 700 862 545 794 545 571 c 2
 545 0 l 1
 244 0 l 1
 244 1116 l 1
 471 1116 l 1
 516 926 l 1
 530 926 l 1
 596 1043 723 1137 877 1137 c 0
EndSplineSet
EndChar

StartChar: s.ssty2
Encoding: 1114213 -1 158
Width: 1318
GlyphClass: 2
Flags: HW
TopAccentHorizontal: 662
AnchorPoint: "Anchor-1" 672 557 basechar 0
LayerCount: 2
Fore
SplineSet
1116 330 m 0
 1116 115 963 -20 629 -20 c 0
 461 -20 346 -2 229 45 c 1
 229 287 l 1
 362 230 523 197 629 197 c 0
 772 197 829 237 829 303 c 0
 829 373 770 401 555 483 c 0
 342 561 231 630 231 825 c 0
 231 1032 416 1137 692 1137 c 0
 842 1137 967 1108 1102 1051 c 1
 1014 846 l 1
 901 893 780 926 688 926 c 0
 582 926 524 897 524 840 c 0
 524 770 583 748 786 676 c 0
 993 600 1116 531 1116 330 c 0
EndSplineSet
EndChar

StartChar: t.ssty2
Encoding: 1114214 -1 159
Width: 964
GlyphClass: 2
Flags: HW
TopAccentHorizontal: 412
AnchorPoint: "Anchor-1" 469 668 basechar 0
LayerCount: 2
Fore
SplineSet
672 215 m 0
 746 215 807 232 866 252 c 1
 866 31 l 1
 796 2 709 -20 586 -20 c 0
 377 -20 225 61 225 354 c 2
 225 893 l 1
 72 893 l 1
 72 1018 l 1
 250 1118 l 1
 336 1356 l 1
 526 1356 l 1
 526 1116 l 1
 854 1116 l 1
 854 893 l 1
 526 893 l 1
 526 365 l 2
 526 267 582 215 672 215 c 0
EndSplineSet
EndChar

StartChar: u.ssty2
Encoding: 1114215 -1 160
Width: 1472
GlyphClass: 2
Flags: HW
TopAccentHorizontal: 737
AnchorPoint: "Anchor-1" 762 547 basechar 0
LayerCount: 2
Fore
SplineSet
1298 1116 m 1
 1298 0 l 1
 1069 0 l 1
 1028 156 l 1
 1012 156 l 1
 940 37 799 -20 641 -20 c 0
 395 -20 227 98 227 389 c 2
 227 1116 l 1
 526 1116 l 1
 526 465 l 2
 526 299 592 215 731 215 c 0
 926 215 997 348 997 592 c 2
 997 1116 l 1
 1298 1116 l 1
EndSplineSet
EndChar

StartChar: v.ssty2
Encoding: 1114216 -1 161
Width: 1206
GlyphClass: 2
Flags: HW
TopAccentHorizontal: 598
AnchorPoint: "Anchor-1" 602 557 basechar 0
LayerCount: 2
Fore
SplineSet
453 0 m 1
 0 1116 l 1
 315 1116 l 1
 553 434 l 2
 573 385 592 305 598 254 c 1
 604 254 l 1
 612 313 633 385 651 438 c 2
 891 1116 l 1
 1206 1116 l 1
 754 0 l 1
 453 0 l 1
EndSplineSet
EndChar

StartChar: w.ssty2
Encoding: 1114217 -1 162
Width: 1855
GlyphClass: 2
Flags: HW
TopAccentHorizontal: 928
AnchorPoint: "Anchor-1" 928 557 basechar 0
LayerCount: 2
Fore
SplineSet
1020 498 m 2
 993 596 944 815 930 883 c 1
 924 883 l 1
 910 817 860 595 831 489 c 2
 690 0 l 1
 375 0 l 1
 49 1116 l 1
 346 1116 l 1
 483 590 l 2
 510 486 535 328 545 248 c 1
 551 248 l 1
 559 330 596 518 610 559 c 2
 768 1116 l 1
 1096 1116 l 1
 1245 557 l 2
 1263 487 1299 326 1305 248 c 1
 1311 248 l 1
 1321 332 1347 502 1376 604 c 2
 1513 1116 l 1
 1806 1116 l 1
 1481 0 l 1
 1159 0 l 1
 1020 498 l 2
EndSplineSet
EndChar

StartChar: x.ssty2
Encoding: 1114218 -1 163
Width: 1378
GlyphClass: 2
Flags: HW
TopAccentHorizontal: 686
AnchorPoint: "Anchor-1" 688 557 basechar 0
LayerCount: 2
Fore
SplineSet
485 569 m 1
 102 1116 l 1
 446 1116 l 1
 688 750 l 1
 934 1116 l 1
 1278 1116 l 1
 889 571 l 1
 1296 0 l 1
 950 0 l 1
 690 395 l 1
 428 0 l 1
 82 0 l 1
 485 569 l 1
EndSplineSet
EndChar

StartChar: y.ssty2
Encoding: 1114219 -1 164
Width: 1210
GlyphClass: 2
Flags: HW
TopAccentHorizontal: 606
AnchorPoint: "Anchor-1" 606 311 basechar 0
LayerCount: 2
Fore
SplineSet
4 1116 m 1
 326 1116 l 1
 559 453 l 2
 582 392 598 327 606 266 c 1
 612 266 l 1
 622 329 641 394 664 451 c 2
 895 1116 l 1
 1210 1116 l 1
 715 -129 l 2
 621 -362 477 -492 229 -492 c 0
 157 -492 111 -483 72 -475 c 1
 72 -242 l 1
 103 -248 150 -254 201 -254 c 0
 334 -254 401 -161 444 -57 c 2
 471 10 l 1
 4 1116 l 1
EndSplineSet
EndChar

StartChar: z.ssty2
Encoding: 1114220 -1 165
Width: 1282
GlyphClass: 2
Flags: HW
TopAccentHorizontal: 641
AnchorPoint: "Anchor-1" 641 557 basechar 0
LayerCount: 2
Fore
SplineSet
1106 0 m 1
 176 0 l 1
 176 174 l 1
 745 889 l 1
 211 889 l 1
 211 1116 l 1
 1090 1116 l 1
 1090 926 l 1
 535 227 l 1
 1106 227 l 1
 1106 0 l 1
EndSplineSet
EndChar

StartChar: Alpha
Encoding: 913 913 166
Width: 1308
GlyphClass: 2
Flags: HW
TopAccentHorizontal: 651
AnchorPoint: "Anchor-3" 1063 1462 basechar 0
AnchorPoint: "Anchor-2" 651 1462 basechar 0
AnchorPoint: "Anchor-1" 653 733 basechar 0
AnchorPoint: "Anchor-0" 664 0 basechar 0
LayerCount: 2
Fore
SplineSet
0 0 m 1
 571 1468 l 1
 737 1468 l 1
 1307 0 l 1
 1116 0 l 1
 940 453 l 1
 360 453 l 1
 186 0 l 1
 0 0 l 1
422 616 m 1
 885 616 l 1
 721 1059 l 2
 709 1092 665 1227 651 1278 c 1
 631 1194 604 1106 588 1059 c 2
 422 616 l 1
EndSplineSet
AlternateSubs2: "'ssty' Math Script Style lookup 8 subtable" Alpha.ssty1 Alpha.ssty2
AlternateSubs2: "'aalt' Access All Alternates lookup 1 subtable" Alpha.ssty1 Alpha.ssty2
EndChar

StartChar: Beta
Encoding: 914 914 167
Width: 1331
GlyphClass: 2
Flags: HW
TopAccentHorizontal: 659
AnchorPoint: "Anchor-3" 1290 1462 basechar 0
AnchorPoint: "Anchor-2" 659 1462 basechar 0
AnchorPoint: "Anchor-1" 709 731 basechar 0
AnchorPoint: "Anchor-0" 645 0 basechar 0
LayerCount: 2
Fore
SplineSet
199 0 m 1
 199 1462 l 1
 616 1462 l 2
 981 1462 1171 1366 1171 1100 c 0
 1171 928 1073 809 893 776 c 1
 893 766 l 1
 1077 735 1221 643 1221 416 c 0
 1221 150 1026 0 713 0 c 2
 199 0 l 1
383 840 m 1
 653 840 l 2
 903 840 981 921 981 1079 c 0
 981 1239 873 1305 625 1305 c 2
 383 1305 l 1
 383 840 l 1
383 156 m 1
 678 156 l 2
 936 156 1024 266 1024 430 c 0
 1024 584 934 686 664 686 c 2
 383 686 l 1
 383 156 l 1
EndSplineSet
AlternateSubs2: "'ssty' Math Script Style lookup 8 subtable" Beta.ssty1 Beta.ssty2
AlternateSubs2: "'aalt' Access All Alternates lookup 1 subtable" Beta.ssty1 Beta.ssty2
EndChar

StartChar: Gamma
Encoding: 915 915 168
Width: 1073
GlyphClass: 2
Flags: HW
TopAccentHorizontal: 625
AnchorPoint: "Anchor-2" 625 1462 basechar 0
AnchorPoint: "Anchor-1" 610 731 basechar 0
AnchorPoint: "Anchor-0" 537 0 basechar 0
LayerCount: 2
Fore
SplineSet
199 0 m 1
 199 1462 l 1
 1024 1462 l 1
 1024 1298 l 1
 383 1298 l 1
 383 0 l 1
 199 0 l 1
EndSplineSet
AlternateSubs2: "'ssty' Math Script Style lookup 8 subtable" Gamma.ssty1 Gamma.ssty2
AlternateSubs2: "'aalt' Access All Alternates lookup 1 subtable" Gamma.ssty1 Gamma.ssty2
EndChar

StartChar: uni0394
Encoding: 916 916 169
Width: 1189
GlyphClass: 2
Flags: HW
TopAccentHorizontal: 596
AnchorPoint: "Anchor-2" 596 1462 basechar 0
AnchorPoint: "Anchor-1" 594 731 basechar 0
AnchorPoint: "Anchor-0" 596 0 basechar 0
LayerCount: 2
Fore
SplineSet
41 0 m 1
 41 113 l 1
 502 1462 l 1
 686 1462 l 1
 1149 111 l 1
 1149 0 l 1
 41 0 l 1
238 162 m 1
 946 162 l 1
 690 924 l 2
 649 1047 615 1164 592 1262 c 1
 567 1164 537 1047 498 932 c 2
 238 162 l 1
EndSplineSet
AlternateSubs2: "'ssty' Math Script Style lookup 8 subtable" uni0394.ssty1 uni0394.ssty2
AlternateSubs2: "'aalt' Access All Alternates lookup 1 subtable" uni0394.ssty1 uni0394.ssty2
EndChar

StartChar: Epsilon
Encoding: 917 917 170
Width: 1138
GlyphClass: 2
Flags: HW
TopAccentHorizontal: 625
AnchorPoint: "Anchor-3" 1098 1462 basechar 0
AnchorPoint: "Anchor-2" 625 1462 basechar 0
AnchorPoint: "Anchor-1" 606 731 basechar 0
AnchorPoint: "Anchor-0" 614 0 basechar 0
LayerCount: 2
Fore
SplineSet
199 0 m 1
 199 1462 l 1
 1016 1462 l 1
 1016 1300 l 1
 383 1300 l 1
 383 844 l 1
 979 844 l 1
 979 684 l 1
 383 684 l 1
 383 162 l 1
 1016 162 l 1
 1016 0 l 1
 199 0 l 1
EndSplineSet
AlternateSubs2: "'ssty' Math Script Style lookup 8 subtable" Epsilon.ssty1 Epsilon.ssty2
AlternateSubs2: "'aalt' Access All Alternates lookup 1 subtable" Epsilon.ssty1 Epsilon.ssty2
EndChar

StartChar: Zeta
Encoding: 918 918 171
Width: 1171
GlyphClass: 2
Flags: HW
TopAccentHorizontal: 594
AnchorPoint: "Anchor-3" 1130 1462 basechar 0
AnchorPoint: "Anchor-2" 594 1462 basechar 0
AnchorPoint: "Anchor-1" 584 731 basechar 0
AnchorPoint: "Anchor-0" 608 0 basechar 0
LayerCount: 2
Fore
SplineSet
78 0 m 1
 78 139 l 1
 848 1298 l 1
 102 1298 l 1
 102 1462 l 1
 1071 1462 l 1
 1071 1323 l 1
 301 164 l 1
 1092 164 l 1
 1092 0 l 1
 78 0 l 1
EndSplineSet
AlternateSubs2: "'ssty' Math Script Style lookup 8 subtable" Zeta.ssty1 Zeta.ssty2
AlternateSubs2: "'aalt' Access All Alternates lookup 1 subtable" Zeta.ssty1 Zeta.ssty2
EndChar

StartChar: Eta
Encoding: 919 919 172
Width: 1517
GlyphClass: 2
Flags: HW
TopAccentHorizontal: 760
AnchorPoint: "Anchor-3" 1477 1462 basechar 0
AnchorPoint: "Anchor-2" 760 1462 basechar 0
AnchorPoint: "Anchor-1" 760 731 basechar 0
AnchorPoint: "Anchor-0" 754 0 basechar 0
LayerCount: 2
Fore
SplineSet
199 0 m 1
 199 1462 l 1
 383 1462 l 1
 383 844 l 1
 1133 844 l 1
 1133 1462 l 1
 1317 1462 l 1
 1317 0 l 1
 1133 0 l 1
 1133 682 l 1
 383 682 l 1
 383 0 l 1
 199 0 l 1
EndSplineSet
AlternateSubs2: "'ssty' Math Script Style lookup 8 subtable" Eta.ssty1 Eta.ssty2
AlternateSubs2: "'aalt' Access All Alternates lookup 1 subtable" Eta.ssty1 Eta.ssty2
EndChar

StartChar: Theta
Encoding: 920 920 173
Width: 1599
GlyphClass: 2
Flags: HW
TopAccentHorizontal: 801
AnchorPoint: "Anchor-3" 1559 1462 basechar 0
AnchorPoint: "Anchor-2" 801 1462 basechar 0
AnchorPoint: "Anchor-1" 801 731 basechar 0
AnchorPoint: "Anchor-0" 803 0 basechar 0
LayerCount: 2
Fore
SplineSet
801 -20 m 0
 344 -20 125 282 125 735 c 0
 125 1184 344 1485 803 1485 c 0
 1241 1485 1475 1188 1475 733 c 0
 1475 280 1241 -20 801 -20 c 0
801 139 m 0
 1133 139 1280 364 1280 733 c 0
 1280 1102 1133 1323 803 1323 c 0
 471 1323 319 1102 319 733 c 0
 319 364 471 139 801 139 c 0
489 664 m 1
 489 823 l 1
 1108 823 l 1
 1108 664 l 1
 489 664 l 1
EndSplineSet
AlternateSubs2: "'ssty' Math Script Style lookup 8 subtable" Theta.ssty1 Theta.ssty2
AlternateSubs2: "'aalt' Access All Alternates lookup 1 subtable" Theta.ssty1 Theta.ssty2
EndChar

StartChar: Iota
Encoding: 921 921 174
Width: 694
GlyphClass: 2
Flags: HW
TopAccentHorizontal: 348
AnchorPoint: "Anchor-3" 653 1462 basechar 0
AnchorPoint: "Anchor-2" 348 1462 basechar 0
AnchorPoint: "Anchor-1" 346 731 basechar 0
AnchorPoint: "Anchor-0" 348 0 basechar 0
LayerCount: 2
Fore
SplineSet
82 0 m 1
 82 106 l 1
 254 145 l 1
 254 1315 l 1
 82 1356 l 1
 82 1462 l 1
 610 1462 l 1
 610 1356 l 1
 438 1315 l 1
 438 145 l 1
 610 106 l 1
 610 0 l 1
 82 0 l 1
EndSplineSet
AlternateSubs2: "'ssty' Math Script Style lookup 8 subtable" Iota.ssty1 Iota.ssty2
AlternateSubs2: "'aalt' Access All Alternates lookup 1 subtable" Iota.ssty1 Iota.ssty2
EndChar

StartChar: Kappa
Encoding: 922 922 175
Width: 1267
GlyphClass: 2
Flags: HW
TopAccentHorizontal: 696
AnchorPoint: "Anchor-3" 1227 1462 basechar 0
AnchorPoint: "Anchor-2" 696 1462 basechar 0
AnchorPoint: "Anchor-1" 733 731 basechar 0
AnchorPoint: "Anchor-0" 676 0 basechar 0
LayerCount: 2
Fore
SplineSet
199 0 m 1
 199 1462 l 1
 383 1462 l 1
 383 741 l 1
 467 833 551 926 635 1020 c 2
 1030 1462 l 1
 1245 1462 l 1
 666 825 l 1
 1268 0 l 1
 1051 0 l 1
 532 698 l 1
 383 567 l 1
 383 0 l 1
 199 0 l 1
EndSplineSet
AlternateSubs2: "'ssty' Math Script Style lookup 8 subtable" Kappa.ssty1 Kappa.ssty2
AlternateSubs2: "'aalt' Access All Alternates lookup 1 subtable" Kappa.ssty1 Kappa.ssty2
EndChar

StartChar: Lambda
Encoding: 923 923 176
Width: 1245
GlyphClass: 2
Flags: HW
TopAccentHorizontal: 623
AnchorPoint: "Anchor-2" 623 1462 basechar 0
AnchorPoint: "Anchor-1" 621 731 basechar 0
AnchorPoint: "Anchor-0" 623 0 basechar 0
LayerCount: 2
Fore
SplineSet
0 0 m 1
 524 1462 l 1
 717 1462 l 1
 1243 0 l 1
 1049 0 l 1
 725 922 l 2
 680 1049 643 1164 618 1262 c 1
 598 1164 559 1047 516 924 c 2
 195 0 l 1
 0 0 l 1
EndSplineSet
AlternateSubs2: "'ssty' Math Script Style lookup 8 subtable" Lambda.ssty1 Lambda.ssty2
AlternateSubs2: "'aalt' Access All Alternates lookup 1 subtable" Lambda.ssty1 Lambda.ssty2
EndChar

StartChar: Mu
Encoding: 924 924 177
Width: 1857
GlyphClass: 2
Flags: HW
TopAccentHorizontal: 930
AnchorPoint: "Anchor-3" 1817 1462 basechar 0
AnchorPoint: "Anchor-2" 930 1462 basechar 0
AnchorPoint: "Anchor-1" 928 731 basechar 0
AnchorPoint: "Anchor-0" 918 0 basechar 0
LayerCount: 2
Fore
SplineSet
199 0 m 1
 199 1462 l 1
 471 1462 l 1
 922 264 l 1
 930 264 l 1
 1389 1462 l 1
 1659 1462 l 1
 1659 0 l 1
 1477 0 l 1
 1477 899 l 2
 1477 1040 1485 1192 1491 1280 c 1
 1483 1280 l 1
 995 0 l 1
 844 0 l 1
 362 1282 l 1
 354 1282 l 1
 362 1198 369 1043 369 887 c 2
 369 0 l 1
 199 0 l 1
EndSplineSet
AlternateSubs2: "'ssty' Math Script Style lookup 8 subtable" Mu.ssty1 Mu.ssty2
AlternateSubs2: "'aalt' Access All Alternates lookup 1 subtable" Mu.ssty1 Mu.ssty2
EndChar

StartChar: Nu
Encoding: 925 925 178
Width: 1556
GlyphClass: 2
Flags: HW
TopAccentHorizontal: 778
AnchorPoint: "Anchor-3" 1516 1462 basechar 0
AnchorPoint: "Anchor-2" 778 1462 basechar 0
AnchorPoint: "Anchor-1" 778 731 basechar 0
AnchorPoint: "Anchor-0" 778 0 basechar 0
LayerCount: 2
Fore
SplineSet
199 0 m 1
 199 1462 l 1
 412 1462 l 1
 1192 252 l 1
 1200 252 l 1
 1196 318 1186 504 1186 637 c 2
 1186 1462 l 1
 1358 1462 l 1
 1358 0 l 1
 1143 0 l 1
 360 1214 l 1
 352 1214 l 1
 360 1118 369 967 369 817 c 2
 369 0 l 1
 199 0 l 1
EndSplineSet
AlternateSubs2: "'ssty' Math Script Style lookup 8 subtable" Nu.ssty1 Nu.ssty2
AlternateSubs2: "'aalt' Access All Alternates lookup 1 subtable" Nu.ssty1 Nu.ssty2
EndChar

StartChar: Xi
Encoding: 926 926 179
Width: 1136
GlyphClass: 2
Flags: HW
TopAccentHorizontal: 569
AnchorPoint: "Anchor-2" 569 1462 basechar 0
AnchorPoint: "Anchor-1" 567 731 basechar 0
AnchorPoint: "Anchor-0" 569 0 basechar 0
LayerCount: 2
Fore
SplineSet
113 1300 m 1
 113 1462 l 1
 1022 1462 l 1
 1022 1300 l 1
 113 1300 l 1
195 684 m 1
 195 844 l 1
 940 844 l 1
 940 684 l 1
 195 684 l 1
72 0 m 1
 72 162 l 1
 1063 162 l 1
 1063 0 l 1
 72 0 l 1
EndSplineSet
AlternateSubs2: "'ssty' Math Script Style lookup 8 subtable" Xi.ssty1 Xi.ssty2
AlternateSubs2: "'aalt' Access All Alternates lookup 1 subtable" Xi.ssty1 Xi.ssty2
EndChar

StartChar: Omicron
Encoding: 927 927 180
Width: 1599
GlyphClass: 2
Flags: HW
TopAccentHorizontal: 801
AnchorPoint: "Anchor-3" 1559 1462 basechar 0
AnchorPoint: "Anchor-2" 801 1462 basechar 0
AnchorPoint: "Anchor-1" 801 731 basechar 0
AnchorPoint: "Anchor-0" 803 0 basechar 0
LayerCount: 2
Fore
SplineSet
801 -20 m 0
 344 -20 125 282 125 735 c 0
 125 1184 344 1485 803 1485 c 0
 1241 1485 1475 1188 1475 733 c 0
 1475 280 1241 -20 801 -20 c 0
801 139 m 0
 1133 139 1280 364 1280 733 c 0
 1280 1102 1133 1323 803 1323 c 0
 471 1323 319 1102 319 733 c 0
 319 364 471 139 801 139 c 0
EndSplineSet
AlternateSubs2: "'ssty' Math Script Style lookup 8 subtable" Omicron.ssty1 Omicron.ssty2
AlternateSubs2: "'aalt' Access All Alternates lookup 1 subtable" Omicron.ssty1 Omicron.ssty2
EndChar

StartChar: Pi
Encoding: 928 928 181
Width: 1497
GlyphClass: 2
Flags: HW
TopAccentHorizontal: 750
AnchorPoint: "Anchor-2" 750 1462 basechar 0
AnchorPoint: "Anchor-1" 748 731 basechar 0
AnchorPoint: "Anchor-0" 750 0 basechar 0
LayerCount: 2
Fore
SplineSet
199 0 m 1
 199 1462 l 1
 1296 1462 l 1
 1296 0 l 1
 1114 0 l 1
 1114 1300 l 1
 383 1300 l 1
 383 0 l 1
 199 0 l 1
EndSplineSet
AlternateSubs2: "'ssty' Math Script Style lookup 8 subtable" Pi.ssty1 Pi.ssty2
AlternateSubs2: "'aalt' Access All Alternates lookup 1 subtable" Pi.ssty1 Pi.ssty2
EndChar

StartChar: Rho
Encoding: 929 929 182
Width: 1239
GlyphClass: 2
Flags: HW
TopAccentHorizontal: 649
AnchorPoint: "Anchor-3" 1198 1462 basechar 0
AnchorPoint: "Anchor-2" 649 1462 basechar 0
AnchorPoint: "Anchor-1" 666 731 basechar 0
AnchorPoint: "Anchor-0" 621 0 basechar 0
LayerCount: 2
Fore
SplineSet
199 0 m 1
 199 1462 l 1
 586 1462 l 2
 969 1462 1135 1304 1135 1032 c 0
 1135 790 989 569 551 569 c 2
 383 569 l 1
 383 0 l 1
 199 0 l 1
383 727 m 1
 530 727 l 2
 809 727 944 809 944 1024 c 0
 944 1212 827 1305 569 1305 c 2
 383 1305 l 1
 383 727 l 1
EndSplineSet
AlternateSubs2: "'ssty' Math Script Style lookup 8 subtable" Rho.ssty1 Rho.ssty2
AlternateSubs2: "'aalt' Access All Alternates lookup 1 subtable" Rho.ssty1 Rho.ssty2
EndChar

StartChar: Sigma
Encoding: 931 931 183
Width: 1167
GlyphClass: 2
Flags: HW
TopAccentHorizontal: 584
AnchorPoint: "Anchor-2" 584 1462 basechar 0
AnchorPoint: "Anchor-1" 596 731 basechar 0
AnchorPoint: "Anchor-0" 584 0 basechar 0
LayerCount: 2
Fore
SplineSet
74 0 m 1
 74 152 l 1
 553 764 l 1
 86 1309 l 1
 86 1462 l 1
 1059 1462 l 1
 1059 1298 l 1
 537 1298 l 2
 478 1298 340 1298 297 1300 c 1
 758 766 l 1
 276 160 l 1
 378 162 481 162 590 162 c 2
 1118 162 l 1
 1118 0 l 1
 74 0 l 1
EndSplineSet
AlternateSubs2: "'ssty' Math Script Style lookup 8 subtable" Sigma.ssty1 Sigma.ssty2
AlternateSubs2: "'aalt' Access All Alternates lookup 1 subtable" Sigma.ssty1 Sigma.ssty2
EndChar

StartChar: Tau
Encoding: 932 932 184
Width: 1138
GlyphClass: 2
Flags: HW
TopAccentHorizontal: 569
AnchorPoint: "Anchor-3" 1098 1462 basechar 0
AnchorPoint: "Anchor-2" 569 1462 basechar 0
AnchorPoint: "Anchor-1" 569 731 basechar 0
AnchorPoint: "Anchor-0" 569 0 basechar 0
LayerCount: 2
Fore
SplineSet
477 0 m 1
 477 1300 l 1
 20 1300 l 1
 20 1462 l 1
 1116 1462 l 1
 1116 1300 l 1
 662 1300 l 1
 662 0 l 1
 477 0 l 1
EndSplineSet
AlternateSubs2: "'ssty' Math Script Style lookup 8 subtable" Tau.ssty1 Tau.ssty2
AlternateSubs2: "'aalt' Access All Alternates lookup 1 subtable" Tau.ssty1 Tau.ssty2
EndChar

StartChar: Upsilon
Encoding: 933 933 185
Width: 1159
GlyphClass: 2
Flags: HW
TopAccentHorizontal: 580
AnchorPoint: "Anchor-3" 1118 1462 basechar 0
AnchorPoint: "Anchor-2" 580 1462 basechar 0
AnchorPoint: "Anchor-1" 580 731 basechar 0
AnchorPoint: "Anchor-0" 580 0 basechar 0
LayerCount: 2
Fore
SplineSet
487 0 m 1
 487 559 l 1
 0 1462 l 1
 201 1462 l 1
 580 743 l 1
 961 1462 l 1
 1159 1462 l 1
 672 567 l 1
 672 0 l 1
 487 0 l 1
EndSplineSet
AlternateSubs2: "'ssty' Math Script Style lookup 8 subtable" Upsilon.ssty1 Upsilon.ssty2
AlternateSubs2: "'aalt' Access All Alternates lookup 1 subtable" Upsilon.ssty1 Upsilon.ssty2
EndChar

StartChar: Phi
Encoding: 934 934 186
Width: 1646
GlyphClass: 2
Flags: HW
TopAccentHorizontal: 823
AnchorPoint: "Anchor-2" 823 1462 basechar 0
AnchorPoint: "Anchor-1" 821 731 basechar 0
AnchorPoint: "Anchor-0" 823 0 basechar 0
LayerCount: 2
Fore
SplineSet
731 -20 m 1
 731 205 l 1
 233 215 104 506 104 758 c 0
 104 1047 260 1295 731 1303 c 1
 731 1483 l 1
 913 1483 l 1
 913 1303 l 1
 1388 1295 1540 1055 1540 758 c 0
 1540 494 1398 215 913 205 c 1
 913 -20 l 1
 731 -20 l 1
731 356 m 1
 731 1147 l 1
 401 1139 291 987 291 760 c 0
 291 518 424 366 731 356 c 1
913 356 m 1
 1228 366 1354 524 1354 760 c 0
 1354 991 1243 1139 913 1147 c 1
 913 356 l 1
EndSplineSet
AlternateSubs2: "'ssty' Math Script Style lookup 8 subtable" Phi.ssty1 Phi.ssty2
AlternateSubs2: "'aalt' Access All Alternates lookup 1 subtable" Phi.ssty1 Phi.ssty2
EndChar

StartChar: Chi
Encoding: 935 935 187
Width: 1200
GlyphClass: 2
Flags: HW
TopAccentHorizontal: 598
AnchorPoint: "Anchor-3" 1159 1462 basechar 0
AnchorPoint: "Anchor-2" 598 1462 basechar 0
AnchorPoint: "Anchor-1" 600 731 basechar 0
AnchorPoint: "Anchor-0" 600 0 basechar 0
LayerCount: 2
Fore
SplineSet
8 0 m 1
 494 762 l 1
 39 1462 l 1
 244 1462 l 1
 602 889 l 1
 963 1462 l 1
 1157 1462 l 1
 705 766 l 1
 1192 0 l 1
 983 0 l 1
 596 635 l 1
 203 0 l 1
 8 0 l 1
EndSplineSet
AlternateSubs2: "'ssty' Math Script Style lookup 8 subtable" Chi.ssty1 Chi.ssty2
AlternateSubs2: "'aalt' Access All Alternates lookup 1 subtable" Chi.ssty1 Chi.ssty2
EndChar

StartChar: Psi
Encoding: 936 936 188
Width: 1646
GlyphClass: 2
Flags: HW
TopAccentHorizontal: 823
AnchorPoint: "Anchor-2" 823 1462 basechar 0
AnchorPoint: "Anchor-1" 823 731 basechar 0
AnchorPoint: "Anchor-0" 823 0 basechar 0
LayerCount: 2
Fore
SplineSet
731 0 m 1
 731 444 l 1
 237 444 109 709 109 979 c 2
 109 1462 l 1
 293 1462 l 1
 293 983 l 2
 293 729 426 602 731 602 c 1
 731 1462 l 1
 911 1462 l 1
 911 602 l 1
 1222 602 1350 731 1350 979 c 2
 1350 1462 l 1
 1538 1462 l 1
 1538 981 l 2
 1538 702 1403 444 911 444 c 1
 911 0 l 1
 731 0 l 1
EndSplineSet
AlternateSubs2: "'ssty' Math Script Style lookup 8 subtable" Psi.ssty1 Psi.ssty2
AlternateSubs2: "'aalt' Access All Alternates lookup 1 subtable" Psi.ssty1 Psi.ssty2
EndChar

StartChar: uni03A9
Encoding: 937 937 189
Width: 1601
GlyphClass: 2
Flags: HW
TopAccentHorizontal: 801
AnchorPoint: "Anchor-2" 801 1462 basechar 0
AnchorPoint: "Anchor-1" 801 741 basechar 0
AnchorPoint: "Anchor-0" 801 0 basechar 0
LayerCount: 2
Fore
SplineSet
78 0 m 1
 78 162 l 1
 442 162 l 1
 268 295 131 522 131 827 c 0
 131 1228 373 1485 801 1485 c 0
 1235 1485 1473 1230 1473 829 c 0
 1473 522 1337 295 1163 162 c 1
 1526 162 l 1
 1526 0 l 1
 936 0 l 1
 936 147 l 1
 1190 327 1280 551 1280 821 c 0
 1280 1132 1131 1323 801 1323 c 0
 473 1323 326 1132 326 821 c 0
 326 549 414 329 668 147 c 1
 668 0 l 1
 78 0 l 1
EndSplineSet
AlternateSubs2: "'ssty' Math Script Style lookup 8 subtable" uni03A9.ssty1 uni03A9.ssty2
AlternateSubs2: "'aalt' Access All Alternates lookup 1 subtable" uni03A9.ssty1 uni03A9.ssty2
EndChar

StartChar: uni03DC
Encoding: 988 988 190
Width: 1093
GlyphClass: 2
Flags: HW
TopAccentHorizontal: 616
AnchorPoint: "Anchor-1" 596 731 basechar 0
LayerCount: 2
Fore
SplineSet
199 1462 m 1
 995 1462 l 1
 995 1300 l 1
 383 1300 l 1
 383 782 l 1
 946 782 l 1
 946 358 l 1
 770 358 l 1
 770 621 l 1
 383 621 l 1
 383 0 l 1
 199 0 l 1
 199 1462 l 1
EndSplineSet
EndChar

StartChar: uni03F4
Encoding: 1012 1012 191
Width: 1601
GlyphClass: 2
Flags: HW
TopAccentHorizontal: 801
AnchorPoint: "Anchor-2" 801 1462 basechar 0
AnchorPoint: "Anchor-1" 799 731 basechar 0
AnchorPoint: "Anchor-0" 801 0 basechar 0
LayerCount: 2
Fore
SplineSet
801 -20 m 0
 344 -20 125 282 125 735 c 0
 125 1184 344 1485 803 1485 c 0
 1241 1485 1475 1188 1475 733 c 0
 1475 280 1241 -20 801 -20 c 0
322 825 m 1
 1276 825 l 1
 1251 1136 1106 1323 803 1323 c 0
 496 1323 347 1136 322 825 c 1
801 139 m 0
 1112 139 1262 336 1278 666 c 1
 322 666 l 1
 338 336 488 139 801 139 c 0
EndSplineSet
EndChar

StartChar: uni2207
Encoding: 8711 8711 192
Width: 1189
GlyphClass: 2
Flags: HW
TopAccentHorizontal: 594
AnchorPoint: "Anchor-1" 594 731 basechar 0
LayerCount: 2
Fore
SplineSet
504 0 m 1
 41 1352 l 1
 41 1462 l 1
 1149 1462 l 1
 1149 1350 l 1
 688 0 l 1
 504 0 l 1
598 201 m 1
 635 342 665 450 692 530 c 2
 952 1300 l 1
 244 1300 l 1
 502 530 l 2
 545 403 578 295 598 201 c 1
EndSplineSet
AlternateSubs2: "'ssty' Math Script Style lookup 8 subtable" uni2207.ssty1 uni2207.ssty2
AlternateSubs2: "'aalt' Access All Alternates lookup 1 subtable" uni2207.ssty1 uni2207.ssty2
EndChar

StartChar: Alpha.ssty1
Encoding: 1114221 -1 193
Width: 1421
GlyphClass: 2
Flags: HW
TopAccentHorizontal: 707
AnchorPoint: "Anchor-1" 711 733 basechar 0
LayerCount: 2
Fore
SplineSet
20 0 m 1
 553 1468 l 1
 866 1468 l 1
 1401 0 l 1
 1112 0 l 1
 983 381 l 1
 436 381 l 1
 309 0 l 1
 20 0 l 1
508 610 m 1
 915 610 l 1
 791 983 l 2
 773 1040 729 1179 711 1253 c 1
 691 1169 647 1028 633 983 c 2
 508 610 l 1
EndSplineSet
EndChar

StartChar: Beta.ssty1
Encoding: 1114222 -1 194
Width: 1382
GlyphClass: 2
Flags: HW
TopAccentHorizontal: 684
AnchorPoint: "Anchor-1" 735 731 basechar 0
LayerCount: 2
Fore
SplineSet
199 0 m 1
 199 1462 l 1
 662 1462 l 2
 1063 1462 1241 1342 1241 1092 c 0
 1241 918 1133 803 977 774 c 1
 977 764 l 1
 1147 733 1272 645 1272 422 c 0
 1272 150 1061 0 725 0 c 2
 199 0 l 1
469 858 m 1
 686 858 l 2
 883 858 961 928 961 1059 c 0
 961 1188 867 1249 668 1249 c 2
 469 1249 l 1
 469 858 l 1
469 213 m 1
 707 213 l 2
 906 213 993 297 993 442 c 0
 993 573 903 657 692 657 c 2
 469 657 l 1
 469 213 l 1
EndSplineSet
EndChar

StartChar: Gamma.ssty1
Encoding: 1114223 -1 195
Width: 1036
GlyphClass: 2
Flags: HW
TopAccentHorizontal: 604
AnchorPoint: "Anchor-1" 594 731 basechar 0
LayerCount: 2
Fore
SplineSet
199 0 m 1
 199 1462 l 1
 989 1462 l 1
 989 1237 l 1
 467 1237 l 1
 467 0 l 1
 199 0 l 1
EndSplineSet
EndChar

StartChar: uni0394.ssty1
Encoding: 1114224 -1 196
Width: 1394
GlyphClass: 2
Flags: HW
TopAccentHorizontal: 698
AnchorPoint: "Anchor-1" 696 733 basechar 0
LayerCount: 2
Fore
SplineSet
41 0 m 1
 41 147 l 1
 541 1468 l 1
 852 1468 l 1
 1354 143 l 1
 1354 0 l 1
 41 0 l 1
352 231 m 1
 1040 231 l 1
 782 983 l 2
 762 1040 714 1179 696 1253 c 1
 676 1169 632 1038 614 983 c 2
 352 231 l 1
EndSplineSet
EndChar

StartChar: Epsilon.ssty1
Encoding: 1114225 -1 197
Width: 1173
GlyphClass: 2
Flags: HW
TopAccentHorizontal: 643
AnchorPoint: "Anchor-1" 625 731 basechar 0
LayerCount: 2
Fore
SplineSet
199 0 m 1
 199 1462 l 1
 1051 1462 l 1
 1051 1245 l 1
 469 1245 l 1
 469 866 l 1
 1014 866 l 1
 1014 649 l 1
 469 649 l 1
 469 219 l 1
 1051 219 l 1
 1051 0 l 1
 199 0 l 1
EndSplineSet
EndChar

StartChar: Zeta.ssty1
Encoding: 1114226 -1 198
Width: 1327
GlyphClass: 2
Flags: HW
TopAccentHorizontal: 674
AnchorPoint: "Anchor-1" 662 731 basechar 0
LayerCount: 2
Fore
SplineSet
109 0 m 1
 109 172 l 1
 856 1239 l 1
 135 1239 l 1
 135 1462 l 1
 1194 1462 l 1
 1194 1290 l 1
 449 221 l 1
 1214 221 l 1
 1214 0 l 1
 109 0 l 1
EndSplineSet
EndChar

StartChar: Eta.ssty1
Encoding: 1114227 -1 199
Width: 1591
GlyphClass: 2
Flags: HW
TopAccentHorizontal: 797
AnchorPoint: "Anchor-1" 795 731 basechar 0
LayerCount: 2
Fore
SplineSet
199 0 m 1
 199 1462 l 1
 469 1462 l 1
 469 870 l 1
 1116 870 l 1
 1116 1462 l 1
 1391 1462 l 1
 1391 0 l 1
 1116 0 l 1
 1116 647 l 1
 469 647 l 1
 469 0 l 1
 199 0 l 1
EndSplineSet
EndChar

StartChar: Theta.ssty1
Encoding: 1114228 -1 200
Width: 1646
GlyphClass: 2
Flags: HW
TopAccentHorizontal: 821
AnchorPoint: "Anchor-1" 821 731 basechar 0
LayerCount: 2
Fore
SplineSet
823 -20 m 0
 348 -20 125 282 125 737 c 0
 125 1183 350 1485 825 1485 c 0
 1302 1485 1522 1182 1522 733 c 0
 1522 282 1302 -20 823 -20 c 0
823 209 m 0
 1114 209 1233 411 1233 733 c 0
 1233 1065 1104 1260 823 1260 c 0
 534 1260 408 1055 408 733 c 0
 408 411 534 209 823 209 c 0
543 631 m 1
 543 856 l 1
 1094 856 l 1
 1094 631 l 1
 543 631 l 1
EndSplineSet
EndChar

StartChar: Iota.ssty1
Encoding: 1114229 -1 201
Width: 851
GlyphClass: 2
Flags: HW
TopAccentHorizontal: 428
AnchorPoint: "Anchor-1" 424 731 basechar 0
LayerCount: 2
Fore
SplineSet
115 0 m 1
 115 156 l 1
 287 209 l 1
 287 1251 l 1
 115 1305 l 1
 115 1462 l 1
 735 1462 l 1
 735 1305 l 1
 561 1251 l 1
 561 209 l 1
 735 156 l 1
 735 0 l 1
 115 0 l 1
EndSplineSet
EndChar

StartChar: Kappa.ssty1
Encoding: 1114230 -1 202
Width: 1374
GlyphClass: 2
Flags: HW
TopAccentHorizontal: 756
AnchorPoint: "Anchor-1" 776 731 basechar 0
LayerCount: 2
Fore
SplineSet
199 0 m 1
 199 1462 l 1
 471 1462 l 1
 471 772 l 1
 512 829 559 891 608 948 c 2
 1047 1462 l 1
 1350 1462 l 1
 817 823 l 1
 1354 0 l 1
 1040 0 l 1
 623 649 l 1
 471 539 l 1
 471 0 l 1
 199 0 l 1
EndSplineSet
EndChar

StartChar: Lambda.ssty1
Encoding: 1114231 -1 203
Width: 1374
GlyphClass: 2
Flags: HW
TopAccentHorizontal: 688
AnchorPoint: "Anchor-1" 686 733 basechar 0
LayerCount: 2
Fore
SplineSet
20 0 m 1
 530 1468 l 1
 842 1468 l 1
 1354 0 l 1
 1063 0 l 1
 762 983 l 2
 744 1040 704 1179 686 1253 c 1
 666 1169 628 1028 614 983 c 2
 309 0 l 1
 20 0 l 1
EndSplineSet
EndChar

StartChar: Mu.ssty1
Encoding: 1114232 -1 204
Width: 1955
GlyphClass: 2
Flags: HW
TopAccentHorizontal: 979
AnchorPoint: "Anchor-1" 977 731 basechar 0
LayerCount: 2
Fore
SplineSet
199 0 m 1
 199 1462 l 1
 571 1462 l 1
 975 315 l 1
 981 315 l 1
 1384 1462 l 1
 1755 1462 l 1
 1755 0 l 1
 1501 0 l 1
 1501 827 l 2
 1501 942 1507 1123 1513 1184 c 1
 1507 1184 l 1
 1096 0 l 1
 848 0 l 1
 436 1186 l 1
 430 1186 l 1
 434 1116 444 942 444 817 c 2
 444 0 l 1
 199 0 l 1
EndSplineSet
EndChar

StartChar: Nu.ssty1
Encoding: 1114233 -1 205
Width: 1669
GlyphClass: 2
Flags: HW
TopAccentHorizontal: 836
AnchorPoint: "Anchor-1" 834 731 basechar 0
LayerCount: 2
Fore
SplineSet
199 0 m 1
 199 1462 l 1
 539 1462 l 1
 1229 326 l 1
 1235 326 l 1
 1229 400 1225 557 1225 684 c 2
 1225 1462 l 1
 1468 1462 l 1
 1468 0 l 1
 1128 0 l 1
 436 1145 l 1
 426 1145 l 1
 432 1059 442 893 442 772 c 2
 442 0 l 1
 199 0 l 1
EndSplineSet
EndChar

StartChar: Xi.ssty1
Encoding: 1114234 -1 206
Width: 1261
GlyphClass: 2
Flags: HW
TopAccentHorizontal: 633
AnchorPoint: "Anchor-1" 618 731 basechar 0
LayerCount: 2
Fore
SplineSet
141 1233 m 1
 141 1462 l 1
 1098 1462 l 1
 1098 1233 l 1
 141 1233 l 1
223 647 m 1
 223 877 l 1
 1016 877 l 1
 1016 647 l 1
 223 647 l 1
100 0 m 1
 100 229 l 1
 1139 229 l 1
 1139 0 l 1
 100 0 l 1
EndSplineSet
EndChar

StartChar: Omicron.ssty1
Encoding: 1114235 -1 207
Width: 1646
GlyphClass: 2
Flags: HW
TopAccentHorizontal: 825
AnchorPoint: "Anchor-1" 823 731 basechar 0
LayerCount: 2
Fore
SplineSet
823 -20 m 0
 348 -20 125 282 125 737 c 0
 125 1183 350 1485 825 1485 c 0
 1302 1485 1522 1182 1522 733 c 0
 1522 282 1302 -20 823 -20 c 0
823 209 m 0
 1114 209 1233 411 1233 733 c 0
 1233 1065 1104 1260 823 1260 c 0
 534 1260 408 1055 408 733 c 0
 408 411 534 209 823 209 c 0
EndSplineSet
EndChar

StartChar: Pi.ssty1
Encoding: 1114236 -1 208
Width: 1552
GlyphClass: 2
Flags: HW
TopAccentHorizontal: 778
AnchorPoint: "Anchor-1" 774 731 basechar 0
LayerCount: 2
Fore
SplineSet
199 0 m 1
 199 1462 l 1
 1352 1462 l 1
 1352 0 l 1
 1081 0 l 1
 1081 1235 l 1
 469 1235 l 1
 469 0 l 1
 199 0 l 1
EndSplineSet
EndChar

StartChar: Rho.ssty1
Encoding: 1114237 -1 209
Width: 1290
GlyphClass: 2
Flags: HW
TopAccentHorizontal: 676
AnchorPoint: "Anchor-1" 692 731 basechar 0
LayerCount: 2
Fore
SplineSet
199 0 m 1
 199 1462 l 1
 641 1462 l 2
 1020 1462 1186 1295 1186 1014 c 0
 1186 762 1042 535 612 535 c 2
 469 535 l 1
 469 0 l 1
 199 0 l 1
469 760 m 1
 586 760 l 2
 793 760 911 830 911 1004 c 0
 911 1162 822 1239 625 1239 c 2
 469 1239 l 1
 469 760 l 1
EndSplineSet
EndChar

StartChar: Sigma.ssty1
Encoding: 1114238 -1 210
Width: 1280
GlyphClass: 2
Flags: HW
TopAccentHorizontal: 639
AnchorPoint: "Anchor-1" 635 731 basechar 0
LayerCount: 2
Fore
SplineSet
102 0 m 1
 102 215 l 1
 563 762 l 1
 123 1257 l 1
 123 1462 l 1
 1147 1462 l 1
 1147 1237 l 1
 651 1237 l 2
 596 1237 517 1237 451 1243 c 1
 834 809 l 1
 834 739 l 1
 395 219 l 1
 491 225 572 227 670 227 c 2
 1167 227 l 1
 1167 0 l 1
 102 0 l 1
EndSplineSet
EndChar

StartChar: Tau.ssty1
Encoding: 1114239 -1 211
Width: 1169
GlyphClass: 2
Flags: HW
TopAccentHorizontal: 586
AnchorPoint: "Anchor-1" 584 731 basechar 0
LayerCount: 2
Fore
SplineSet
446 0 m 1
 446 1237 l 1
 29 1237 l 1
 29 1462 l 1
 1139 1462 l 1
 1139 1237 l 1
 717 1237 l 1
 717 0 l 1
 446 0 l 1
EndSplineSet
EndChar

StartChar: Upsilon.ssty1
Encoding: 1114240 -1 212
Width: 1265
GlyphClass: 2
Flags: HW
TopAccentHorizontal: 633
AnchorPoint: "Anchor-1" 633 731 basechar 0
LayerCount: 2
Fore
SplineSet
496 0 m 1
 496 557 l 1
 0 1462 l 1
 297 1462 l 1
 633 807 l 1
 967 1462 l 1
 1266 1462 l 1
 770 567 l 1
 770 0 l 1
 496 0 l 1
EndSplineSet
EndChar

StartChar: Phi.ssty1
Encoding: 1114241 -1 213
Width: 1908
GlyphClass: 2
Flags: HW
TopAccentHorizontal: 954
AnchorPoint: "Anchor-1" 952 731 basechar 0
LayerCount: 2
Fore
SplineSet
829 -14 m 1
 829 184 l 1
 272 194 145 512 145 758 c 0
 145 1045 299 1313 829 1323 c 1
 829 1477 l 1
 1077 1477 l 1
 1077 1323 l 1
 1607 1313 1759 1047 1759 758 c 0
 1759 506 1624 194 1077 184 c 1
 1077 -14 l 1
 829 -14 l 1
829 397 m 1
 829 1108 l 1
 487 1098 403 946 403 760 c 0
 403 557 505 407 829 397 c 1
1077 397 m 1
 1403 407 1501 559 1501 760 c 0
 1501 948 1417 1098 1077 1108 c 1
 1077 397 l 1
EndSplineSet
EndChar

StartChar: Chi.ssty1
Encoding: 1114242 -1 214
Width: 1357
GlyphClass: 2
Flags: HW
TopAccentHorizontal: 676
AnchorPoint: "Anchor-1" 678 731 basechar 0
LayerCount: 2
Fore
SplineSet
12 0 m 1
 508 754 l 1
 51 1462 l 1
 350 1462 l 1
 680 930 l 1
 1008 1462 l 1
 1313 1462 l 1
 846 741 l 1
 1346 0 l 1
 1034 0 l 1
 676 561 l 1
 315 0 l 1
 12 0 l 1
EndSplineSet
EndChar

StartChar: Psi.ssty1
Encoding: 1114243 -1 215
Width: 1712
GlyphClass: 2
Flags: HW
TopAccentHorizontal: 856
AnchorPoint: "Anchor-1" 856 731 basechar 0
LayerCount: 2
Fore
SplineSet
731 0 m 1
 731 377 l 1
 342 383 152 604 152 973 c 2
 152 1462 l 1
 410 1462 l 1
 410 961 l 2
 410 687 536 598 731 598 c 1
 731 1462 l 1
 979 1462 l 1
 979 598 l 1
 1159 598 1300 682 1300 956 c 2
 1300 1462 l 1
 1561 1462 l 1
 1561 975 l 2
 1561 598 1360 383 979 377 c 1
 979 0 l 1
 731 0 l 1
EndSplineSet
EndChar

StartChar: uni03A9.ssty1
Encoding: 1114244 -1 216
Width: 1615
GlyphClass: 2
Flags: HW
TopAccentHorizontal: 807
AnchorPoint: "Anchor-1" 809 741 basechar 0
LayerCount: 2
Fore
SplineSet
109 0 m 1
 109 229 l 1
 422 229 l 1
 242 344 121 547 121 817 c 0
 121 1198 381 1485 809 1485 c 0
 1239 1485 1497 1198 1497 817 c 0
 1497 547 1378 346 1194 229 c 1
 1509 229 l 1
 1509 0 l 1
 926 0 l 1
 926 238 l 1
 1159 367 1219 569 1219 786 c 0
 1219 1071 1073 1257 809 1257 c 0
 547 1257 401 1071 401 784 c 0
 401 565 473 371 692 238 c 1
 692 0 l 1
 109 0 l 1
EndSplineSet
EndChar

StartChar: uni2207.ssty1
Encoding: 1114245 -1 217
Width: 1394
GlyphClass: 2
Flags: HW
TopAccentHorizontal: 696
AnchorPoint: "Anchor-1" 698 729 basechar 0
LayerCount: 2
Fore
SplineSet
1354 1462 m 1
 1354 1315 l 1
 854 -6 l 1
 543 -6 l 1
 41 1319 l 1
 41 1462 l 1
 1354 1462 l 1
1042 1231 m 1
 354 1231 l 1
 612 479 l 2
 632 422 680 283 698 209 c 1
 718 293 762 424 780 479 c 2
 1042 1231 l 1
EndSplineSet
EndChar

StartChar: Alpha.ssty2
Encoding: 1114246 -1 218
Width: 1583
GlyphClass: 2
Flags: HW
TopAccentHorizontal: 788
AnchorPoint: "Anchor-1" 791 733 basechar 0
LayerCount: 2
Fore
SplineSet
55 0 m 1
 604 1468 l 1
 979 1468 l 1
 1528 0 l 1
 1200 0 l 1
 1077 354 l 1
 508 354 l 1
 383 0 l 1
 55 0 l 1
584 606 m 1
 1004 606 l 1
 887 942 l 2
 867 1001 816 1172 793 1260 c 1
 770 1170 725 1006 702 940 c 2
 584 606 l 1
EndSplineSet
EndChar

StartChar: Beta.ssty2
Encoding: 1114247 -1 219
Width: 1556
GlyphClass: 2
Flags: HW
TopAccentHorizontal: 770
AnchorPoint: "Anchor-1" 840 731 basechar 0
LayerCount: 2
Fore
SplineSet
279 0 m 1
 279 1462 l 1
 760 1462 l 2
 1176 1462 1362 1352 1362 1096 c 0
 1362 920 1255 803 1112 776 c 1
 1112 766 l 1
 1264 737 1401 655 1401 424 c 0
 1401 150 1180 0 836 0 c 2
 279 0 l 1
580 874 m 1
 786 874 l 2
 983 874 1053 944 1053 1055 c 0
 1053 1174 965 1225 768 1225 c 2
 580 1225 l 1
 580 874 l 1
580 242 m 1
 807 242 l 2
 1010 242 1085 324 1085 451 c 0
 1085 568 1010 645 795 645 c 2
 580 645 l 1
 580 242 l 1
EndSplineSet
EndChar

StartChar: Gamma.ssty2
Encoding: 1114248 -1 220
Width: 1179
GlyphClass: 2
Flags: HW
TopAccentHorizontal: 686
AnchorPoint: "Anchor-1" 696 731 basechar 0
LayerCount: 2
Fore
SplineSet
279 0 m 1
 279 1462 l 1
 1114 1462 l 1
 1114 1217 l 1
 575 1217 l 1
 575 0 l 1
 279 0 l 1
EndSplineSet
EndChar

StartChar: uni0394.ssty2
Encoding: 1114249 -1 221
Width: 1583
GlyphClass: 2
Flags: HW
TopAccentHorizontal: 793
AnchorPoint: "Anchor-1" 791 733 basechar 0
LayerCount: 2
Fore
SplineSet
90 0 m 1
 90 147 l 1
 604 1468 l 1
 979 1468 l 1
 1493 143 l 1
 1493 0 l 1
 90 0 l 1
444 252 m 1
 1139 252 l 1
 889 942 l 2
 869 1001 816 1172 793 1260 c 1
 770 1170 718 1003 698 940 c 2
 444 252 l 1
EndSplineSet
EndChar

StartChar: Epsilon.ssty2
Encoding: 1114250 -1 222
Width: 1284
GlyphClass: 2
Flags: HW
TopAccentHorizontal: 705
AnchorPoint: "Anchor-1" 719 731 basechar 0
LayerCount: 2
Fore
SplineSet
279 0 m 1
 279 1462 l 1
 1161 1462 l 1
 1161 1217 l 1
 580 1217 l 1
 580 883 l 1
 1124 883 l 1
 1124 639 l 1
 580 639 l 1
 580 248 l 1
 1161 248 l 1
 1161 0 l 1
 279 0 l 1
EndSplineSet
EndChar

StartChar: Zeta.ssty2
Encoding: 1114251 -1 223
Width: 1507
GlyphClass: 2
Flags: HW
TopAccentHorizontal: 764
AnchorPoint: "Anchor-1" 752 731 basechar 0
LayerCount: 2
Fore
SplineSet
172 0 m 1
 172 190 l 1
 936 1214 l 1
 197 1214 l 1
 197 1462 l 1
 1313 1462 l 1
 1313 1272 l 1
 549 248 l 1
 1331 248 l 1
 1331 0 l 1
 172 0 l 1
EndSplineSet
EndChar

StartChar: Eta.ssty2
Encoding: 1114252 -1 224
Width: 1726
GlyphClass: 2
Flags: HW
TopAccentHorizontal: 864
AnchorPoint: "Anchor-1" 901 731 basechar 0
LayerCount: 2
Fore
SplineSet
279 0 m 1
 279 1462 l 1
 582 1462 l 1
 582 885 l 1
 1223 885 l 1
 1223 1462 l 1
 1526 1462 l 1
 1526 0 l 1
 1223 0 l 1
 1223 635 l 1
 582 635 l 1
 582 0 l 1
 279 0 l 1
EndSplineSet
EndChar

StartChar: Theta.ssty2
Encoding: 1114253 -1 225
Width: 1759
GlyphClass: 2
Flags: HW
TopAccentHorizontal: 881
AnchorPoint: "Anchor-1" 903 731 basechar 0
LayerCount: 2
Fore
SplineSet
903 -20 m 0
 405 -20 174 280 174 735 c 0
 174 1177 403 1485 907 1485 c 0
 1403 1485 1634 1192 1634 733 c 0
 1634 282 1405 -20 903 -20 c 0
903 231 m 0
 1200 231 1317 430 1317 733 c 0
 1317 1040 1196 1235 907 1235 c 0
 614 1235 492 1036 492 733 c 0
 492 430 614 231 903 231 c 0
631 623 m 1
 631 862 l 1
 1186 862 l 1
 1186 623 l 1
 631 623 l 1
EndSplineSet
EndChar

StartChar: Iota.ssty2
Encoding: 1114254 -1 226
Width: 1032
GlyphClass: 2
Flags: HW
TopAccentHorizontal: 518
AnchorPoint: "Anchor-1" 514 731 basechar 0
LayerCount: 2
Fore
SplineSet
180 0 m 1
 180 174 l 1
 362 240 l 1
 362 1223 l 1
 180 1288 l 1
 180 1462 l 1
 848 1462 l 1
 848 1288 l 1
 666 1223 l 1
 666 240 l 1
 848 174 l 1
 848 0 l 1
 180 0 l 1
EndSplineSet
EndChar

StartChar: Kappa.ssty2
Encoding: 1114255 -1 227
Width: 1492
GlyphClass: 2
Flags: HW
TopAccentHorizontal: 819
AnchorPoint: "Anchor-1" 885 731 basechar 0
LayerCount: 2
Fore
SplineSet
279 0 m 1
 279 1462 l 1
 582 1462 l 1
 582 786 l 1
 629 849 682 914 727 967 c 2
 1151 1462 l 1
 1491 1462 l 1
 946 819 l 1
 1493 0 l 1
 1147 0 l 1
 729 633 l 1
 582 526 l 1
 582 0 l 1
 279 0 l 1
EndSplineSet
EndChar

StartChar: Lambda.ssty2
Encoding: 1114256 -1 228
Width: 1423
GlyphClass: 2
Flags: HW
TopAccentHorizontal: 713
AnchorPoint: "Anchor-1" 709 733 basechar 0
LayerCount: 2
Fore
SplineSet
0 0 m 1
 522 1468 l 1
 899 1468 l 1
 1419 0 l 1
 1092 0 l 1
 797 942 l 2
 779 1001 734 1172 711 1260 c 1
 688 1170 647 1001 629 940 c 2
 328 0 l 1
 0 0 l 1
EndSplineSet
EndChar

StartChar: Mu.ssty2
Encoding: 1114257 -1 229
Width: 2086
GlyphClass: 2
Flags: HW
TopAccentHorizontal: 1044
AnchorPoint: "Anchor-1" 1083 731 basechar 0
LayerCount: 2
Fore
SplineSet
279 0 m 1
 279 1462 l 1
 688 1462 l 1
 1075 322 l 1
 1083 322 l 1
 1479 1462 l 1
 1888 1462 l 1
 1888 0 l 1
 1608 0 l 1
 1608 760 l 2
 1608 895 1616 1093 1622 1163 c 1
 1614 1163 l 1
 1212 0 l 1
 928 0 l 1
 537 1167 l 1
 528 1167 l 1
 534 1097 547 902 547 748 c 2
 547 0 l 1
 279 0 l 1
EndSplineSet
EndChar

StartChar: Nu.ssty2
Encoding: 1114258 -1 230
Width: 1816
GlyphClass: 2
Flags: HW
TopAccentHorizontal: 907
AnchorPoint: "Anchor-1" 948 731 basechar 0
LayerCount: 2
Fore
SplineSet
279 0 m 1
 279 1462 l 1
 664 1462 l 1
 1356 340 l 1
 1362 340 l 1
 1358 440 1350 598 1348 721 c 2
 1348 1462 l 1
 1618 1462 l 1
 1618 0 l 1
 1231 0 l 1
 539 1130 l 1
 530 1130 l 1
 536 1019 545 868 547 735 c 2
 547 0 l 1
 279 0 l 1
EndSplineSet
EndChar

StartChar: Xi.ssty2
Encoding: 1114259 -1 231
Width: 1398
GlyphClass: 2
Flags: HW
TopAccentHorizontal: 700
AnchorPoint: "Anchor-1" 696 731 basechar 0
LayerCount: 2
Fore
SplineSet
201 1212 m 1
 201 1462 l 1
 1194 1462 l 1
 1194 1212 l 1
 201 1212 l 1
289 635 m 1
 289 885 l 1
 1106 885 l 1
 1106 635 l 1
 289 635 l 1
158 0 m 1
 158 250 l 1
 1237 250 l 1
 1237 0 l 1
 158 0 l 1
EndSplineSet
EndChar

StartChar: Omicron.ssty2
Encoding: 1114260 -1 232
Width: 1759
GlyphClass: 2
Flags: HW
TopAccentHorizontal: 881
AnchorPoint: "Anchor-1" 903 731 basechar 0
LayerCount: 2
Fore
SplineSet
903 -20 m 0
 405 -20 174 280 174 735 c 0
 174 1177 403 1485 907 1485 c 0
 1403 1485 1634 1192 1634 733 c 0
 1634 282 1405 -20 903 -20 c 0
903 231 m 0
 1200 231 1317 430 1317 733 c 0
 1317 1040 1196 1235 907 1235 c 0
 614 1235 492 1036 492 733 c 0
 492 430 614 231 903 231 c 0
EndSplineSet
EndChar

StartChar: Pi.ssty2
Encoding: 1114261 -1 233
Width: 1701
GlyphClass: 2
Flags: HW
TopAccentHorizontal: 852
AnchorPoint: "Anchor-1" 889 731 basechar 0
LayerCount: 2
Fore
SplineSet
279 0 m 1
 279 1462 l 1
 1501 1462 l 1
 1501 0 l 1
 1198 0 l 1
 1198 1212 l 1
 582 1212 l 1
 582 0 l 1
 279 0 l 1
EndSplineSet
EndChar

StartChar: Rho.ssty2
Encoding: 1114262 -1 234
Width: 1468
GlyphClass: 2
Flags: HW
TopAccentHorizontal: 770
AnchorPoint: "Anchor-1" 801 731 basechar 0
LayerCount: 2
Fore
SplineSet
279 0 m 1
 279 1462 l 1
 758 1462 l 2
 1141 1462 1323 1299 1323 1012 c 0
 1323 754 1171 524 737 524 c 2
 580 524 l 1
 580 0 l 1
 279 0 l 1
580 772 m 1
 711 772 l 2
 891 772 1016 833 1016 1001 c 0
 1016 1140 931 1217 745 1217 c 2
 580 1217 l 1
 580 772 l 1
EndSplineSet
EndChar

StartChar: Sigma.ssty2
Encoding: 1114263 -1 235
Width: 1429
GlyphClass: 2
Flags: HW
TopAccentHorizontal: 715
AnchorPoint: "Anchor-1" 741 731 basechar 0
LayerCount: 2
Fore
SplineSet
162 0 m 1
 162 225 l 1
 657 760 l 1
 180 1237 l 1
 180 1462 l 1
 1296 1462 l 1
 1296 1214 l 1
 764 1214 l 2
 713 1214 635 1217 553 1225 c 1
 952 811 l 1
 952 741 l 1
 496 240 l 1
 592 246 695 250 799 250 c 2
 1321 250 l 1
 1321 0 l 1
 162 0 l 1
EndSplineSet
EndChar

StartChar: Tau.ssty2
Encoding: 1114264 -1 236
Width: 1251
GlyphClass: 2
Flags: HW
TopAccentHorizontal: 627
AnchorPoint: "Anchor-1" 623 731 basechar 0
LayerCount: 2
Fore
SplineSet
473 0 m 1
 473 1212 l 1
 45 1212 l 1
 45 1462 l 1
 1202 1462 l 1
 1202 1212 l 1
 774 1212 l 1
 774 0 l 1
 473 0 l 1
EndSplineSet
EndChar

StartChar: Upsilon.ssty2
Encoding: 1114265 -1 237
Width: 1331
GlyphClass: 2
Flags: HW
TopAccentHorizontal: 666
AnchorPoint: "Anchor-1" 666 731 basechar 0
LayerCount: 2
Fore
SplineSet
516 0 m 1
 516 559 l 1
 0 1462 l 1
 332 1462 l 1
 666 836 l 1
 1001 1462 l 1
 1331 1462 l 1
 817 569 l 1
 817 0 l 1
 516 0 l 1
EndSplineSet
EndChar

StartChar: Phi.ssty2
Encoding: 1114266 -1 238
Width: 2164
GlyphClass: 2
Flags: HW
TopAccentHorizontal: 1081
AnchorPoint: "Anchor-1" 1079 731 basechar 0
LayerCount: 2
Fore
SplineSet
938 -14 m 1
 938 182 l 1
 383 190 229 479 229 758 c 0
 229 1043 391 1317 938 1325 c 1
 938 1477 l 1
 1223 1477 l 1
 1223 1325 l 1
 1755 1317 1931 1057 1931 760 c 0
 1931 484 1770 190 1223 182 c 1
 1223 -14 l 1
 938 -14 l 1
938 414 m 1
 938 1092 l 1
 604 1084 520 942 520 758 c 0
 520 572 610 420 938 414 c 1
1223 414 m 1
 1547 420 1640 572 1640 760 c 0
 1640 938 1553 1084 1223 1092 c 1
 1223 414 l 1
EndSplineSet
EndChar

StartChar: Chi.ssty2
Encoding: 1114267 -1 239
Width: 1464
GlyphClass: 2
Flags: HW
TopAccentHorizontal: 729
AnchorPoint: "Anchor-1" 731 731 basechar 0
LayerCount: 2
Fore
SplineSet
18 0 m 1
 539 754 l 1
 51 1462 l 1
 389 1462 l 1
 733 934 l 1
 1071 1462 l 1
 1409 1462 l 1
 915 733 l 1
 1446 0 l 1
 1094 0 l 1
 723 553 l 1
 354 0 l 1
 18 0 l 1
EndSplineSet
EndChar

StartChar: Psi.ssty2
Encoding: 1114268 -1 240
Width: 1986
GlyphClass: 2
Flags: HW
TopAccentHorizontal: 993
AnchorPoint: "Anchor-1" 993 731 basechar 0
LayerCount: 2
Fore
SplineSet
852 0 m 1
 852 365 l 1
 436 371 240 575 240 983 c 2
 240 1462 l 1
 532 1462 l 1
 532 977 l 2
 532 690 657 612 852 610 c 1
 852 1462 l 1
 1137 1462 l 1
 1137 610 l 1
 1309 612 1454 697 1454 973 c 2
 1454 1462 l 1
 1747 1462 l 1
 1747 993 l 2
 1747 581 1547 371 1137 365 c 1
 1137 0 l 1
 852 0 l 1
EndSplineSet
EndChar

StartChar: uni03A9.ssty2
Encoding: 1114269 -1 241
Width: 1824
GlyphClass: 2
Flags: HW
TopAccentHorizontal: 911
AnchorPoint: "Anchor-1" 915 741 basechar 0
LayerCount: 2
Fore
SplineSet
172 0 m 1
 172 250 l 1
 506 250 l 1
 307 365 186 565 186 819 c 0
 186 1198 473 1485 915 1485 c 0
 1359 1485 1647 1202 1647 819 c 0
 1647 563 1530 371 1323 250 c 1
 1659 250 l 1
 1659 0 l 1
 1034 0 l 1
 1034 272 l 1
 1263 395 1333 583 1333 788 c 0
 1333 1071 1165 1235 915 1235 c 0
 665 1235 498 1067 498 786 c 0
 498 587 574 395 795 272 c 1
 795 0 l 1
 172 0 l 1
EndSplineSet
EndChar

StartChar: uni2207.ssty2
Encoding: 1114270 -1 242
Width: 1583
GlyphClass: 2
Flags: HW
TopAccentHorizontal: 791
AnchorPoint: "Anchor-1" 786 731 basechar 0
LayerCount: 2
Fore
SplineSet
1493 1462 m 1
 1493 1315 l 1
 979 -6 l 1
 604 -6 l 1
 90 1319 l 1
 90 1462 l 1
 1493 1462 l 1
1139 1210 m 1
 444 1210 l 1
 694 520 l 2
 714 461 768 291 791 203 c 1
 814 293 865 459 885 522 c 2
 1139 1210 l 1
EndSplineSet
EndChar

StartChar: alpha
Encoding: 945 945 243
Width: 1259
GlyphClass: 2
Flags: HW
TopAccentHorizontal: 637
AnchorPoint: "Anchor-2" 637 1098 basechar 0
AnchorPoint: "Anchor-1" 670 549 basechar 0
AnchorPoint: "Anchor-0" 618 0 basechar 0
LayerCount: 2
Fore
SplineSet
563 -20 m 0
 295 -20 113 170 113 545 c 0
 113 916 285 1118 580 1118 c 0
 742 1118 843 1061 915 950 c 1
 928 950 l 1
 940 997 962 1057 993 1098 c 1
 1135 1098 l 1
 1104 1006 1083 813 1083 668 c 2
 1083 242 l 2
 1083 158 1120 127 1167 127 c 0
 1187 127 1217 133 1229 137 c 1
 1229 6 l 1
 1209 -6 1159 -20 1114 -20 c 0
 1014 -20 949 20 920 147 c 1
 905 147 l 1
 842 55 747 -20 563 -20 c 0
594 129 m 0
 819 129 905 254 905 535 c 2
 905 547 l 2
 905 819 832 967 592 967 c 0
 391 967 299 819 299 543 c 0
 299 269 389 129 594 129 c 0
EndSplineSet
AlternateSubs2: "'ssty' Math Script Style lookup 8 subtable" alpha.ssty1 alpha.ssty2
AlternateSubs2: "'aalt' Access All Alternates lookup 1 subtable" alpha.ssty1 alpha.ssty2
EndChar

StartChar: beta
Encoding: 946 946 244
Width: 1292
GlyphClass: 2
Flags: HW
TopAccentHorizontal: 664
AnchorPoint: "Anchor-3" 1141 1567 basechar 0
AnchorPoint: "Anchor-2" 664 1567 basechar 0
AnchorPoint: "Anchor-1" 686 537 basechar 0
AnchorPoint: "Anchor-0" 770 0 basechar 0
LayerCount: 2
Fore
SplineSet
174 -492 m 1
 174 1096 l 2
 174 1426 381 1567 664 1567 c 0
 938 1567 1135 1436 1135 1176 c 0
 1135 979 1024 864 823 831 c 1
 823 823 l 1
 1071 794 1200 664 1200 416 c 0
 1200 135 1013 -20 700 -20 c 0
 540 -20 442 6 354 49 c 1
 354 -492 l 1
 174 -492 l 1
684 127 m 0
 920 127 1020 235 1020 428 c 0
 1020 643 877 739 664 739 c 2
 555 739 l 1
 555 891 l 1
 643 891 l 2
 856 891 950 1001 950 1167 c 0
 950 1335 835 1417 659 1417 c 0
 495 1417 354 1343 354 1087 c 2
 354 211 l 1
 448 162 545 127 684 127 c 0
EndSplineSet
AlternateSubs2: "'ssty' Math Script Style lookup 8 subtable" beta.ssty1 beta.ssty2
AlternateSubs2: "'aalt' Access All Alternates lookup 1 subtable" beta.ssty1 beta.ssty2
EndChar

StartChar: gamma
Encoding: 947 947 245
Width: 1060
GlyphClass: 2
Flags: HW
TopAccentHorizontal: 530
AnchorPoint: "Anchor-3" 1040 1098 basechar 0
AnchorPoint: "Anchor-2" 530 1098 basechar 0
AnchorPoint: "Anchor-1" 530 303 basechar 0
AnchorPoint: "Anchor-0" 530 -492 basechar 0
LayerCount: 2
Fore
SplineSet
350 -492 m 1
 350 -379 394 -156 455 12 c 1
 10 1098 l 1
 197 1098 l 1
 428 522 l 2
 471 416 527 254 539 182 c 1
 547 182 l 1
 559 248 614 424 647 514 c 2
 864 1098 l 1
 1051 1098 l 1
 645 27 l 2
 582 -139 545 -355 545 -492 c 1
 350 -492 l 1
EndSplineSet
AlternateSubs2: "'ssty' Math Script Style lookup 8 subtable" gamma.ssty1 gamma.ssty2
AlternateSubs2: "'aalt' Access All Alternates lookup 1 subtable" gamma.ssty1 gamma.ssty2
EndChar

StartChar: delta
Encoding: 948 948 246
Width: 1236
GlyphClass: 2
Flags: HW
TopAccentHorizontal: 618
AnchorPoint: "Anchor-2" 618 1556 basechar 0
AnchorPoint: "Anchor-1" 618 768 basechar 0
AnchorPoint: "Anchor-0" 618 0 basechar 0
LayerCount: 2
Fore
SplineSet
614 -20 m 0
 321 -20 111 145 111 438 c 0
 111 700 295 862 539 934 c 1
 385 1022 285 1118 285 1270 c 0
 285 1458 442 1556 653 1556 c 0
 841 1556 969 1499 1075 1446 c 1
 997 1305 l 1
 895 1362 784 1409 645 1409 c 0
 522 1409 467 1344 467 1268 c 0
 467 1170 538 1112 741 1001 c 0
 989 866 1126 721 1126 483 c 0
 1126 155 923 -20 614 -20 c 0
614 129 m 0
 823 129 940 254 940 481 c 0
 940 665 844 772 682 856 c 1
 514 815 299 712 299 436 c 0
 299 256 415 129 614 129 c 0
EndSplineSet
AlternateSubs2: "'ssty' Math Script Style lookup 8 subtable" delta.ssty1 delta.ssty2
AlternateSubs2: "'aalt' Access All Alternates lookup 1 subtable" delta.ssty1 delta.ssty2
EndChar

StartChar: epsilon
Encoding: 949 949 247
Width: 989
GlyphClass: 2
Flags: HW
TopAccentHorizontal: 549
AnchorPoint: "Anchor-2" 549 1098 basechar 0
AnchorPoint: "Anchor-1" 504 549 basechar 0
AnchorPoint: "Anchor-0" 496 0 basechar 0
LayerCount: 2
Fore
SplineSet
549 -20 m 0
 236 -20 88 117 88 299 c 0
 88 463 201 530 332 567 c 1
 332 578 l 1
 209 615 127 694 127 827 c 0
 127 1011 301 1118 549 1118 c 0
 707 1118 811 1089 920 1040 c 1
 852 897 l 1
 762 938 674 969 547 969 c 0
 383 969 299 915 299 813 c 0
 299 692 422 645 612 645 c 2
 727 645 l 1
 727 498 l 1
 578 498 l 2
 369 498 268 434 268 309 c 0
 268 174 395 127 559 127 c 0
 711 127 825 170 915 213 c 1
 915 55 l 1
 831 10 717 -20 549 -20 c 0
EndSplineSet
AlternateSubs2: "'ssty' Math Script Style lookup 8 subtable" epsilon.ssty1 epsilon.ssty2
AlternateSubs2: "'aalt' Access All Alternates lookup 1 subtable" epsilon.ssty1 epsilon.ssty2
EndChar

StartChar: zeta
Encoding: 950 950 248
Width: 991
GlyphClass: 2
Flags: HW
TopAccentHorizontal: 496
AnchorPoint: "Anchor-2" 496 1556 basechar 0
AnchorPoint: "Anchor-1" 524 578 basechar 0
AnchorPoint: "Anchor-0" 496 -399 basechar 0
LayerCount: 2
Fore
SplineSet
629 -399 m 1
 695 -313 756 -203 756 -129 c 0
 756 -72 727 -29 508 10 c 0
 248 55 113 189 113 459 c 0
 113 867 399 1124 723 1415 c 1
 705 1413 559 1407 420 1407 c 2
 174 1407 l 1
 174 1556 l 1
 936 1556 l 1
 936 1421 l 1
 371 948 299 688 299 471 c 0
 299 238 426 197 647 152 c 0
 856 109 936 35 936 -82 c 0
 936 -203 873 -313 807 -399 c 1
 629 -399 l 1
EndSplineSet
AlternateSubs2: "'ssty' Math Script Style lookup 8 subtable" zeta.ssty1 zeta.ssty1
Substitution2: "'aalt' Access All Alternates lookup 0 subtable" zeta.ssty1
EndChar

StartChar: eta
Encoding: 951 951 249
Width: 1265
GlyphClass: 2
Flags: HW
TopAccentHorizontal: 668
AnchorPoint: "Anchor-2" 668 1098 basechar 0
AnchorPoint: "Anchor-1" 637 313 basechar 0
AnchorPoint: "Anchor-0" 633 -492 basechar 0
LayerCount: 2
Fore
SplineSet
922 -492 m 1
 922 702 l 2
 922 876 846 967 676 967 c 0
 434 967 354 825 354 569 c 2
 354 0 l 1
 174 0 l 1
 174 1098 l 1
 319 1098 l 1
 346 948 l 1
 356 948 l 1
 428 1063 563 1118 702 1118 c 0
 964 1118 1100 998 1100 715 c 2
 1100 -492 l 1
 922 -492 l 1
EndSplineSet
AlternateSubs2: "'ssty' Math Script Style lookup 8 subtable" eta.ssty1 eta.ssty2
AlternateSubs2: "'aalt' Access All Alternates lookup 1 subtable" eta.ssty1 eta.ssty2
EndChar

StartChar: theta
Encoding: 952 952 250
Width: 1218
GlyphClass: 2
Flags: HW
TopAccentHorizontal: 610
AnchorPoint: "Anchor-3" 1055 1567 basechar 0
AnchorPoint: "Anchor-2" 610 1567 basechar 0
AnchorPoint: "Anchor-1" 608 772 basechar 0
AnchorPoint: "Anchor-0" 610 0 basechar 0
LayerCount: 2
Fore
SplineSet
606 -20 m 0
 268 -20 113 276 113 772 c 0
 113 1272 252 1567 606 1567 c 0
 946 1567 1106 1276 1106 772 c 0
 1106 276 966 -20 606 -20 c 0
295 868 m 1
 922 868 l 1
 908 1233 815 1419 606 1419 c 0
 397 1419 309 1233 295 868 c 1
606 127 m 0
 819 127 916 324 924 719 c 1
 295 719 l 1
 301 328 389 127 606 127 c 0
EndSplineSet
AlternateSubs2: "'ssty' Math Script Style lookup 8 subtable" theta.ssty1 theta.ssty2
AlternateSubs2: "'aalt' Access All Alternates lookup 1 subtable" theta.ssty1 theta.ssty2
EndChar

StartChar: iota
Encoding: 953 953 251
Width: 708
GlyphClass: 2
Flags: HW
TopAccentHorizontal: 266
AnchorPoint: "Anchor-2" 266 1098 basechar 0
AnchorPoint: "Anchor-1" 420 539 basechar 0
AnchorPoint: "Anchor-0" 428 0 basechar 0
LayerCount: 2
Fore
SplineSet
479 -20 m 0
 299 -20 168 54 168 322 c 2
 168 1098 l 1
 346 1098 l 1
 346 324 l 2
 346 193 393 127 504 127 c 0
 563 127 637 140 672 150 c 1
 672 12 l 1
 633 -6 551 -20 479 -20 c 0
EndSplineSet
AlternateSubs2: "'ssty' Math Script Style lookup 8 subtable" iota.ssty1 iota.ssty2
AlternateSubs2: "'aalt' Access All Alternates lookup 1 subtable" iota.ssty1 iota.ssty2
EndChar

StartChar: kappa
Encoding: 954 954 252
Width: 1093
GlyphClass: 2
Flags: HW
TopAccentHorizontal: 608
AnchorPoint: "Anchor-2" 608 1098 basechar 0
AnchorPoint: "Anchor-1" 629 551 basechar 0
AnchorPoint: "Anchor-0" 608 0 basechar 0
LayerCount: 2
Fore
SplineSet
1083 979 m 1
 878 870 715 770 582 655 c 1
 895 225 l 2
 940 166 971 127 1022 127 c 0
 1042 127 1069 133 1083 137 c 1
 1083 4 l 1
 1052 -10 1014 -20 967 -20 c 0
 893 -20 842 6 801 63 c 2
 459 535 l 1
 424 496 394 453 365 408 c 1
 365 0 l 1
 174 0 l 1
 174 1098 l 1
 365 1098 l 1
 365 813 l 2
 365 743 362 671 358 616 c 1
 524 835 739 985 1020 1124 c 1
 1083 979 l 1
EndSplineSet
AlternateSubs2: "'ssty' Math Script Style lookup 8 subtable" kappa.ssty1 kappa.ssty2
AlternateSubs2: "'aalt' Access All Alternates lookup 1 subtable" kappa.ssty1 kappa.ssty2
EndChar

StartChar: lambda
Encoding: 955 955 253
Width: 1122
GlyphClass: 2
Flags: HW
TopAccentHorizontal: 567
AnchorPoint: "Anchor-2" 567 1569 basechar 0
AnchorPoint: "Anchor-1" 561 774 basechar 0
AnchorPoint: "Anchor-0" 567 0 basechar 0
LayerCount: 2
Fore
SplineSet
1006 -20 m 0
 906 -20 852 24 809 145 c 2
 659 565 l 2
 624 663 573 811 557 891 c 1
 549 891 l 1
 524 795 481 681 436 575 c 2
 186 0 l 1
 0 0 l 1
 473 1077 l 1
 418 1231 l 2
 375 1348 336 1419 219 1419 c 0
 170 1419 133 1413 104 1407 c 1
 104 1552 l 1
 141 1560 191 1569 240 1569 c 0
 451 1569 520 1461 604 1225 c 2
 958 238 l 2
 985 162 1014 127 1061 127 c 0
 1081 127 1108 133 1122 137 c 1
 1122 4 l 1
 1091 -10 1053 -20 1006 -20 c 0
EndSplineSet
AlternateSubs2: "'ssty' Math Script Style lookup 8 subtable" lambda.ssty1 lambda.ssty2
AlternateSubs2: "'aalt' Access All Alternates lookup 1 subtable" lambda.ssty1 lambda.ssty2
EndChar

StartChar: uni03BC
Encoding: 956 956 254
Width: 1275
GlyphClass: 2
Flags: HW
TopAccentHorizontal: 639
AnchorPoint: "Anchor-2" 639 1098 basechar 0
AnchorPoint: "Anchor-1" 637 303 basechar 0
AnchorPoint: "Anchor-0" 639 -492 basechar 0
LayerCount: 2
Fore
SplineSet
174 -492 m 1
 174 1098 l 1
 354 1098 l 1
 354 389 l 2
 354 219 436 129 600 129 c 0
 844 129 922 270 922 526 c 2
 922 1098 l 1
 1102 1098 l 1
 1102 0 l 1
 956 0 l 1
 928 147 l 1
 918 147 l 1
 848 38 742 -20 588 -20 c 0
 482 -20 405 17 352 72 c 1
 344 72 l 1
 350 23 354 -61 354 -172 c 2
 354 -492 l 1
 174 -492 l 1
EndSplineSet
AlternateSubs2: "'ssty' Math Script Style lookup 8 subtable" uni03BC.ssty1 uni03BC.ssty2
AlternateSubs2: "'aalt' Access All Alternates lookup 1 subtable" uni03BC.ssty1 uni03BC.ssty2
EndChar

StartChar: nu
Encoding: 957 957 255
Width: 1120
GlyphClass: 2
Flags: HW
TopAccentHorizontal: 561
AnchorPoint: "Anchor-2" 561 1098 basechar 0
AnchorPoint: "Anchor-1" 518 549 basechar 0
AnchorPoint: "Anchor-0" 561 0 basechar 0
LayerCount: 2
Fore
SplineSet
410 0 m 1
 0 1098 l 1
 186 1098 l 1
 406 506 l 2
 443 408 504 234 524 152 c 1
 532 152 l 1
 784 408 858 701 858 1098 c 1
 1036 1098 l 1
 1036 668 942 340 604 0 c 1
 410 0 l 1
EndSplineSet
AlternateSubs2: "'ssty' Math Script Style lookup 8 subtable" nu.ssty1 nu.ssty2
AlternateSubs2: "'aalt' Access All Alternates lookup 1 subtable" nu.ssty1 nu.ssty2
EndChar

StartChar: xi
Encoding: 958 958 256
Width: 976
GlyphClass: 2
Flags: HW
TopAccentHorizontal: 489
AnchorPoint: "Anchor-2" 489 1556 basechar 0
AnchorPoint: "Anchor-1" 522 578 basechar 0
AnchorPoint: "Anchor-0" 489 -399 basechar 0
LayerCount: 2
Fore
SplineSet
643 -399 m 1
 706 -313 764 -203 764 -127 c 0
 764 -72 733 -27 514 10 c 0
 248 55 111 186 111 422 c 0
 111 627 245 762 397 809 c 1
 397 821 l 1
 262 860 180 944 180 1100 c 0
 180 1293 319 1372 483 1419 c 1
 432 1413 328 1407 236 1407 c 2
 174 1407 l 1
 174 1556 l 1
 883 1556 l 1
 883 1417 l 1
 829 1417 l 2
 596 1417 354 1313 354 1104 c 0
 354 965 444 887 688 887 c 2
 858 887 l 1
 858 750 l 1
 682 750 l 2
 432 750 299 612 299 436 c 0
 299 227 436 195 655 150 c 0
 864 107 936 29 936 -82 c 0
 936 -203 872 -313 813 -399 c 1
 643 -399 l 1
EndSplineSet
AlternateSubs2: "'ssty' Math Script Style lookup 8 subtable" xi.ssty1 xi.ssty2
AlternateSubs2: "'aalt' Access All Alternates lookup 1 subtable" xi.ssty1 xi.ssty2
EndChar

StartChar: omicron
Encoding: 959 959 257
Width: 1239
GlyphClass: 2
Flags: HW
TopAccentHorizontal: 621
AnchorPoint: "Anchor-3" 1178 1098 basechar 0
AnchorPoint: "Anchor-2" 621 1098 basechar 0
AnchorPoint: "Anchor-1" 621 549 basechar 0
AnchorPoint: "Anchor-0" 616 0 basechar 0
LayerCount: 2
Fore
SplineSet
616 -20 m 0
 325 -20 113 186 113 551 c 0
 113 913 308 1118 623 1118 c 0
 920 1118 1128 913 1128 551 c 0
 1128 186 929 -20 616 -20 c 0
621 129 m 0
 842 129 942 291 942 551 c 0
 942 811 841 967 618 967 c 0
 395 967 299 811 299 551 c 0
 299 291 398 129 621 129 c 0
EndSplineSet
AlternateSubs2: "'ssty' Math Script Style lookup 8 subtable" omicron.ssty1 omicron.ssty2
AlternateSubs2: "'aalt' Access All Alternates lookup 1 subtable" omicron.ssty1 omicron.ssty2
EndChar

StartChar: pi
Encoding: 960 960 258
Width: 1349
GlyphClass: 2
Flags: HW
TopAccentHorizontal: 676
AnchorPoint: "Anchor-2" 676 1098 basechar 0
AnchorPoint: "Anchor-1" 653 539 basechar 0
AnchorPoint: "Anchor-0" 676 0 basechar 0
LayerCount: 2
Fore
SplineSet
1118 -20 m 0
 968 -20 891 68 891 242 c 2
 891 948 l 1
 426 948 l 1
 426 0 l 1
 248 0 l 1
 248 948 l 1
 25 948 l 1
 25 1026 l 1
 172 1098 l 1
 1284 1098 l 1
 1284 948 l 1
 1069 948 l 1
 1069 254 l 2
 1069 158 1108 127 1163 127 c 0
 1200 127 1233 137 1253 147 c 1
 1253 6 l 1
 1230 -6 1181 -20 1118 -20 c 0
EndSplineSet
AlternateSubs2: "'ssty' Math Script Style lookup 8 subtable" pi.ssty1 pi.ssty2
AlternateSubs2: "'aalt' Access All Alternates lookup 1 subtable" pi.ssty1 pi.ssty2
EndChar

StartChar: rho
Encoding: 961 961 259
Width: 1239
GlyphClass: 2
Flags: HW
TopAccentHorizontal: 621
AnchorPoint: "Anchor-2" 621 1098 basechar 0
AnchorPoint: "Anchor-1" 643 313 basechar 0
AnchorPoint: "Anchor-0" 621 -492 basechar 0
LayerCount: 2
Fore
SplineSet
162 -492 m 1
 162 563 l 2
 162 936 352 1118 651 1118 c 0
 930 1118 1126 918 1126 549 c 0
 1126 178 940 -20 641 -20 c 0
 530 -20 422 13 344 72 c 1
 334 72 l 1
 340 27 344 -78 344 -201 c 2
 344 -492 l 1
 162 -492 l 1
639 129 m 0
 854 129 942 273 942 549 c 0
 942 830 854 967 643 967 c 0
 440 967 344 831 344 561 c 2
 344 229 l 1
 422 161 528 129 639 129 c 0
EndSplineSet
AlternateSubs2: "'ssty' Math Script Style lookup 8 subtable" rho.ssty1 rho.ssty2
AlternateSubs2: "'aalt' Access All Alternates lookup 1 subtable" rho.ssty1 rho.ssty2
EndChar

StartChar: uni03C2
Encoding: 962 962 260
Width: 991
GlyphClass: 2
Flags: HW
TopAccentHorizontal: 496
AnchorPoint: "Anchor-2" 496 1098 basechar 0
AnchorPoint: "Anchor-1" 524 358 basechar 0
AnchorPoint: "Anchor-0" 496 -399 basechar 0
LayerCount: 2
Fore
SplineSet
643 -399 m 1
 706 -313 766 -203 766 -127 c 0
 766 -70 735 -29 516 12 c 0
 291 55 113 178 113 518 c 0
 113 932 330 1118 641 1118 c 0
 750 1118 862 1092 938 1059 c 1
 881 909 l 1
 809 936 723 961 633 961 c 0
 395 961 299 807 299 520 c 0
 299 276 366 213 653 152 c 0
 864 107 936 31 936 -82 c 0
 936 -203 872 -317 813 -399 c 1
 643 -399 l 1
EndSplineSet
AlternateSubs2: "'ssty' Math Script Style lookup 8 subtable" uni03C2.ssty1 uni03C2.ssty2
AlternateSubs2: "'aalt' Access All Alternates lookup 1 subtable" uni03C2.ssty1 uni03C2.ssty2
EndChar

StartChar: sigma
Encoding: 963 963 261
Width: 1263
GlyphClass: 2
Flags: HW
TopAccentHorizontal: 633
AnchorPoint: "Anchor-2" 633 1098 basechar 0
AnchorPoint: "Anchor-1" 664 539 basechar 0
AnchorPoint: "Anchor-0" 633 0 basechar 0
LayerCount: 2
Fore
SplineSet
616 -20 m 0
 313 -20 113 170 113 524 c 0
 113 936 344 1098 709 1098 c 2
 1214 1098 l 1
 1214 948 l 1
 948 948 l 1
 1054 848 1126 701 1126 504 c 0
 1126 207 952 -20 616 -20 c 0
621 129 m 0
 846 129 942 285 942 500 c 0
 942 676 881 829 772 948 c 1
 709 948 l 2
 435 948 299 833 299 524 c 0
 299 293 394 129 621 129 c 0
EndSplineSet
AlternateSubs2: "'ssty' Math Script Style lookup 8 subtable" sigma.ssty1 sigma.ssty2
AlternateSubs2: "'aalt' Access All Alternates lookup 1 subtable" sigma.ssty1 sigma.ssty2
EndChar

StartChar: tau
Encoding: 964 964 262
Width: 980
GlyphClass: 2
Flags: HW
TopAccentHorizontal: 492
AnchorPoint: "Anchor-2" 492 1098 basechar 0
AnchorPoint: "Anchor-1" 473 537 basechar 0
AnchorPoint: "Anchor-0" 492 0 basechar 0
LayerCount: 2
Fore
SplineSet
668 -23 m 0
 480 -23 315 43 315 317 c 2
 315 946 l 1
 20 946 l 1
 20 1026 l 1
 170 1098 l 1
 926 1098 l 1
 926 946 l 1
 498 946 l 1
 498 336 l 2
 498 178 577 123 694 123 c 0
 753 123 825 133 868 145 c 1
 868 10 l 1
 829 -6 748 -23 668 -23 c 0
EndSplineSet
AlternateSubs2: "'ssty' Math Script Style lookup 8 subtable" tau.ssty1 tau.ssty2
AlternateSubs2: "'aalt' Access All Alternates lookup 1 subtable" tau.ssty1 tau.ssty2
EndChar

StartChar: upsilon
Encoding: 965 965 263
Width: 1255
GlyphClass: 2
Flags: HW
TopAccentHorizontal: 631
AnchorPoint: "Anchor-2" 631 1098 basechar 0
AnchorPoint: "Anchor-1" 653 539 basechar 0
AnchorPoint: "Anchor-0" 629 0 basechar 0
LayerCount: 2
Fore
SplineSet
629 -20 m 0
 264 -20 162 205 162 498 c 2
 162 1098 l 1
 342 1098 l 1
 342 504 l 2
 342 271 432 127 643 127 c 0
 860 127 963 278 963 606 c 0
 963 796 940 934 899 1098 c 1
 1079 1098 l 1
 1122 936 1145 801 1145 598 c 0
 1145 174 969 -20 629 -20 c 0
EndSplineSet
AlternateSubs2: "'ssty' Math Script Style lookup 8 subtable" upsilon.ssty1 upsilon.ssty2
AlternateSubs2: "'aalt' Access All Alternates lookup 1 subtable" upsilon.ssty1 upsilon.ssty2
EndChar

StartChar: phi
Encoding: 966 966 264
Width: 1484
GlyphClass: 2
Flags: HW
TopAccentHorizontal: 743
AnchorPoint: "Anchor-2" 743 1098 basechar 0
AnchorPoint: "Anchor-1" 741 313 basechar 0
AnchorPoint: "Anchor-0" 743 -492 basechar 0
LayerCount: 2
Fore
SplineSet
643 -492 m 1
 643 -18 l 1
 340 -2 113 154 113 555 c 0
 113 776 201 961 322 1108 c 1
 461 1012 l 1
 361 879 293 739 293 549 c 0
 293 250 455 147 643 129 c 1
 643 739 l 2
 643 987 766 1118 967 1118 c 0
 1219 1118 1372 899 1372 575 c 0
 1372 178 1112 -2 819 -18 c 1
 819 -492 l 1
 643 -492 l 1
819 129 m 1
 1028 147 1190 286 1190 573 c 0
 1190 829 1096 969 969 969 c 0
 889 969 819 913 819 741 c 2
 819 129 l 1
EndSplineSet
AlternateSubs2: "'ssty' Math Script Style lookup 8 subtable" phi.ssty1 phi.ssty2
AlternateSubs2: "'aalt' Access All Alternates lookup 1 subtable" phi.ssty1 phi.ssty2
EndChar

StartChar: chi
Encoding: 967 967 265
Width: 1191
GlyphClass: 2
Flags: HW
TopAccentHorizontal: 629
AnchorPoint: "Anchor-3" 1151 1098 basechar 0
AnchorPoint: "Anchor-2" 629 1098 basechar 0
AnchorPoint: "Anchor-1" 610 305 basechar 0
AnchorPoint: "Anchor-0" 629 -492 basechar 0
LayerCount: 2
Fore
SplineSet
41 -492 m 1
 508 348 l 1
 340 784 l 2
 299 893 258 958 188 958 c 0
 163 958 139 954 121 946 c 1
 121 1087 l 1
 150 1095 191 1104 248 1104 c 0
 383 1104 431 1016 494 854 c 2
 633 502 l 1
 946 1098 l 1
 1139 1098 l 1
 709 328 l 1
 899 -156 l 2
 948 -281 987 -344 1087 -344 c 0
 1122 -344 1155 -340 1180 -336 c 1
 1180 -475 l 1
 1149 -483 1110 -492 1053 -492 c 0
 869 -492 801 -387 735 -213 c 2
 590 168 l 1
 233 -492 l 1
 41 -492 l 1
EndSplineSet
AlternateSubs2: "'ssty' Math Script Style lookup 8 subtable" chi.ssty1 chi.ssty2
AlternateSubs2: "'aalt' Access All Alternates lookup 1 subtable" chi.ssty1 chi.ssty2
EndChar

StartChar: psi
Encoding: 968 968 266
Width: 1558
GlyphClass: 2
Flags: HW
TopAccentHorizontal: 780
AnchorPoint: "Anchor-2" 780 1554 basechar 0
AnchorPoint: "Anchor-1" 797 530 basechar 0
AnchorPoint: "Anchor-0" 780 -492 basechar 0
LayerCount: 2
Fore
SplineSet
696 -492 m 1
 696 -18 l 1
 385 -6 162 145 162 553 c 2
 162 1098 l 1
 340 1098 l 1
 340 547 l 2
 340 238 506 145 696 131 c 1
 696 1554 l 1
 872 1554 l 1
 872 133 l 1
 1103 153 1257 284 1257 573 c 0
 1257 761 1235 908 1192 1098 c 1
 1370 1098 l 1
 1413 914 1434 760 1434 580 c 0
 1434 158 1181 0 872 -18 c 1
 872 -492 l 1
 696 -492 l 1
EndSplineSet
AlternateSubs2: "'ssty' Math Script Style lookup 8 subtable" psi.ssty1 psi.ssty2
AlternateSubs2: "'aalt' Access All Alternates lookup 1 subtable" psi.ssty1 psi.ssty2
EndChar

StartChar: omega
Encoding: 969 969 267
Width: 1601
GlyphClass: 2
Flags: HW
TopAccentHorizontal: 797
AnchorPoint: "Anchor-2" 797 1098 basechar 0
AnchorPoint: "Anchor-1" 801 539 basechar 0
AnchorPoint: "Anchor-0" 801 0 basechar 0
LayerCount: 2
Fore
SplineSet
506 -20 m 0
 252 -20 115 202 115 532 c 0
 115 745 152 908 236 1098 c 1
 420 1098 l 1
 334 905 295 747 295 530 c 0
 295 266 383 129 518 129 c 0
 653 129 715 241 715 395 c 2
 715 705 l 1
 887 705 l 1
 887 395 l 2
 887 225 958 129 1081 129 c 0
 1218 129 1307 266 1307 530 c 0
 1307 747 1268 905 1182 1098 c 1
 1366 1098 l 1
 1450 908 1487 745 1487 532 c 0
 1487 202 1350 -20 1096 -20 c 0
 944 -20 850 43 805 164 c 1
 795 164 l 1
 752 43 658 -20 506 -20 c 0
EndSplineSet
AlternateSubs2: "'ssty' Math Script Style lookup 8 subtable" omega.ssty1 omega.ssty2
AlternateSubs2: "'aalt' Access All Alternates lookup 1 subtable" omega.ssty1 omega.ssty2
EndChar

StartChar: partialdiff
Encoding: 8706 8706 268
Width: 1091
GlyphClass: 2
Flags: HW
TopAccentHorizontal: 504
AnchorPoint: "Anchor-1" 518 729 basechar 0
LayerCount: 2
Fore
SplineSet
500 -20 m 0
 254 -20 94 207 94 471 c 0
 94 793 305 992 520 1006 c 0
 618 1014 715 983 795 907 c 1
 746 1161 631 1329 469 1329 c 0
 391 1329 301 1290 201 1200 c 1
 131 1321 l 1
 221 1419 357 1485 494 1485 c 0
 744 1485 997 1266 997 625 c 0
 997 187 779 -20 500 -20 c 0
272 471 m 0
 272 281 348 131 520 131 c 0
 743 131 844 434 819 715 c 1
 760 824 645 882 539 872 c 0
 402 856 272 725 272 471 c 0
EndSplineSet
AlternateSubs2: "'ssty' Math Script Style lookup 8 subtable" partialdiff.ssty1 partialdiff.ssty2
Substitution2: "'rtlm' Right to Left mirrored forms lookup 4 subtable" partialdiff.rtlm
AlternateSubs2: "'aalt' Access All Alternates lookup 1 subtable" partialdiff.rtlm partialdiff.ssty1 partialdiff.ssty2
EndChar

StartChar: uni03DD
Encoding: 989 989 269
Width: 940
GlyphClass: 2
Flags: HW
TopAccentHorizontal: 524
AnchorPoint: "Anchor-1" 524 303 basechar 0
LayerCount: 2
Fore
SplineSet
176 -492 m 1
 176 1098 l 1
 874 1098 l 1
 874 948 l 1
 356 948 l 1
 356 518 l 1
 803 518 l 1
 803 74 l 1
 627 74 l 1
 627 371 l 1
 356 371 l 1
 356 -492 l 1
 176 -492 l 1
EndSplineSet
EndChar

StartChar: uni03D1
Encoding: 977 977 270
Width: 1275
GlyphClass: 2
Flags: HW
TopAccentHorizontal: 647
AnchorPoint: "Anchor-2" 647 1200 basechar 0
AnchorPoint: "Anchor-1" 629 772 basechar 0
LayerCount: 2
Fore
SplineSet
559 -20 m 0
 266 -20 182 158 182 342 c 0
 182 403 189 467 199 522 c 0
 207 567 211 606 211 635 c 0
 211 696 186 717 143 717 c 0
 110 717 71 702 51 690 c 1
 12 817 l 1
 61 840 131 860 203 860 c 0
 338 860 385 780 385 674 c 0
 385 627 379 573 371 516 c 0
 363 463 356 405 356 346 c 0
 356 231 413 125 565 125 c 0
 807 125 936 326 936 729 c 0
 936 760 934 802 932 831 c 1
 422 837 233 1024 233 1262 c 0
 233 1434 342 1567 590 1567 c 0
 889 1567 1053 1341 1102 981 c 1
 1245 981 l 1
 1245 831 l 1
 1114 831 l 1
 1116 800 1118 764 1118 723 c 0
 1118 293 938 -20 559 -20 c 0
920 981 m 1
 885 1262 756 1419 584 1419 c 0
 465 1419 408 1355 408 1251 c 0
 408 1099 541 985 920 981 c 1
EndSplineSet
EndChar

StartChar: uni03D5
Encoding: 981 981 271
Width: 1484
GlyphClass: 2
Flags: HW
TopAccentHorizontal: 743
AnchorPoint: "Anchor-3" 1444 1556 basechar 0
AnchorPoint: "Anchor-2" 743 1556 basechar 0
AnchorPoint: "Anchor-1" 741 532 basechar 0
AnchorPoint: "Anchor-0" 743 -492 basechar 0
LayerCount: 2
Fore
SplineSet
653 -492 m 1
 653 -16 l 1
 327 11 111 215 111 549 c 0
 111 883 313 1087 659 1114 c 1
 659 1556 l 1
 829 1556 l 1
 829 1114 l 1
 1155 1083 1372 881 1372 549 c 0
 1372 217 1167 13 829 -16 c 1
 829 -492 l 1
 653 -492 l 1
659 131 m 1
 659 965 l 1
 407 940 299 797 299 549 c 0
 299 301 409 156 659 131 c 1
829 131 m 1
 1075 158 1186 303 1186 549 c 0
 1186 795 1071 936 829 963 c 1
 829 131 l 1
EndSplineSet
EndChar

StartChar: uni03D6
Encoding: 982 982 272
Width: 1753
GlyphClass: 2
Flags: HW
TopAccentHorizontal: 864
AnchorPoint: "Anchor-2" 864 1200 basechar 0
AnchorPoint: "Anchor-1" 856 539 basechar 0
LayerCount: 2
Fore
SplineSet
567 -20 m 0
 315 -20 176 136 176 455 c 0
 176 617 227 790 303 948 c 1
 23 948 l 1
 23 1026 l 1
 166 1098 l 1
 1690 1098 l 1
 1690 948 l 1
 1438 948 l 1
 1510 788 1550 617 1550 455 c 0
 1550 136 1411 -20 1157 -20 c 0
 1005 -20 911 43 866 164 c 1
 858 164 l 1
 811 43 717 -20 567 -20 c 0
580 129 m 0
 711 129 776 241 776 395 c 2
 776 578 l 1
 950 578 l 1
 950 395 l 2
 950 225 1026 129 1147 129 c 0
 1284 129 1368 213 1368 465 c 0
 1368 627 1330 798 1262 948 c 1
 479 948 l 1
 413 805 356 627 356 465 c 0
 356 211 443 129 580 129 c 0
EndSplineSet
EndChar

StartChar: uni03F0
Encoding: 1008 1008 273
Width: 1341
GlyphClass: 2
Flags: HW
TopAccentHorizontal: 676
AnchorPoint: "Anchor-2" 676 1098 basechar 0
AnchorPoint: "Anchor-1" 659 549 basechar 0
AnchorPoint: "Anchor-0" 676 0 basechar 0
LayerCount: 2
Fore
SplineSet
1190 -20 m 0
 985 -20 868 127 868 451 c 0
 868 535 878 633 905 717 c 1
 344 0 l 1
 160 0 l 1
 234 152 309 397 309 655 c 0
 309 884 225 969 129 969 c 0
 92 969 67 960 49 952 c 1
 0 1094 l 1
 37 1108 88 1118 156 1118 c 0
 369 1118 489 971 489 647 c 0
 489 563 480 467 453 381 c 1
 1020 1098 l 1
 1200 1098 l 1
 1124 946 1049 700 1049 442 c 0
 1049 202 1122 129 1231 129 c 0
 1264 129 1301 137 1321 145 c 1
 1321 4 l 1
 1284 -10 1243 -20 1190 -20 c 0
EndSplineSet
EndChar

StartChar: uni03F1
Encoding: 1009 1009 274
Width: 1239
GlyphClass: 2
Flags: HW
TopAccentHorizontal: 621
AnchorPoint: "Anchor-2" 621 1098 basechar 0
AnchorPoint: "Anchor-1" 618 313 basechar 0
AnchorPoint: "Anchor-0" 621 -492 basechar 0
LayerCount: 2
Fore
SplineSet
758 -492 m 1
 764 -474 766 -460 766 -444 c 0
 766 -403 748 -391 580 -391 c 0
 254 -391 113 -219 113 365 c 0
 113 838 289 1118 651 1118 c 0
 930 1118 1126 918 1126 549 c 0
 1126 178 940 -20 641 -20 c 0
 481 -20 411 16 315 106 c 1
 305 106 l 1
 336 -183 416 -242 606 -242 c 0
 880 -242 936 -278 936 -391 c 0
 936 -430 927 -455 915 -492 c 1
 758 -492 l 1
639 129 m 0
 854 129 942 273 942 549 c 0
 942 830 854 969 643 969 c 0
 434 969 299 795 295 367 c 0
 295 324 295 301 299 256 c 1
 410 162 498 129 639 129 c 0
EndSplineSet
EndChar

StartChar: uni03F5
Encoding: 1013 1013 275
Width: 1013
GlyphClass: 2
Flags: HW
TopAccentHorizontal: 508
AnchorPoint: "Anchor-2" 508 1098 basechar 0
AnchorPoint: "Anchor-1" 528 549 basechar 0
AnchorPoint: "Anchor-0" 508 0 basechar 0
LayerCount: 2
Fore
SplineSet
635 -20 m 0
 332 -20 113 148 113 543 c 0
 113 953 340 1118 641 1118 c 0
 752 1118 866 1094 944 1059 c 1
 891 911 l 1
 815 940 715 963 637 963 c 0
 426 963 322 858 299 639 c 1
 838 639 l 1
 838 492 l 1
 297 492 l 1
 309 248 418 133 631 133 c 0
 754 133 846 162 928 195 c 1
 928 39 l 1
 850 0 762 -20 635 -20 c 0
EndSplineSet
EndChar

StartChar: partialdiff.rtlm
Encoding: 1114271 -1 276
Width: 1091
GlyphClass: 2
Flags: HW
TopAccentHorizontal: 627
AnchorPoint: "Anchor-1" 573 729 basechar 0
LayerCount: 2
Fore
SplineSet
592 -20 m 0
 313 -20 94 187 94 625 c 0
 94 1266 348 1485 598 1485 c 0
 735 1485 871 1419 961 1321 c 1
 891 1200 l 1
 791 1290 701 1329 623 1329 c 0
 461 1329 346 1161 297 907 c 1
 377 983 473 1014 571 1006 c 0
 786 992 997 793 997 471 c 0
 997 207 838 -20 592 -20 c 0
819 471 m 0
 819 725 690 856 553 872 c 0
 447 882 331 824 272 715 c 1
 247 434 348 131 571 131 c 0
 743 131 819 281 819 471 c 0
EndSplineSet
EndChar

StartChar: alpha.ssty1
Encoding: 1114272 -1 277
Width: 1368
GlyphClass: 2
Flags: HW
TopAccentHorizontal: 692
AnchorPoint: "Anchor-1" 741 555 basechar 0
LayerCount: 2
Fore
SplineSet
584 -20 m 0
 322 -20 158 195 158 551 c 0
 158 930 328 1133 594 1133 c 0
 752 1133 856 1063 924 967 c 1
 932 967 l 1
 958 1112 l 1
 1180 1112 l 1
 1180 319 l 2
 1180 229 1219 201 1264 201 c 0
 1284 201 1313 207 1325 211 c 1
 1325 6 l 1
 1305 -6 1239 -20 1194 -20 c 0
 1069 -20 991 20 950 147 c 1
 932 147 l 1
 869 53 752 -20 584 -20 c 0
674 190 m 0
 860 190 928 301 928 541 c 2
 928 553 l 2
 928 789 867 915 670 915 c 0
 508 915 430 789 430 549 c 0
 430 313 510 190 674 190 c 0
EndSplineSet
EndChar

StartChar: beta.ssty1
Encoding: 1114273 -1 278
Width: 1288
GlyphClass: 2
Flags: HW
TopAccentHorizontal: 662
AnchorPoint: "Anchor-1" 684 537 basechar 0
LayerCount: 2
Fore
SplineSet
174 -492 m 1
 174 1081 l 2
 174 1417 371 1567 662 1567 c 0
 951 1567 1120 1434 1120 1174 c 0
 1120 977 1006 862 842 829 c 1
 842 823 l 1
 1051 794 1196 676 1196 428 c 0
 1196 141 985 -20 721 -20 c 0
 584 -20 524 4 440 45 c 1
 440 -492 l 1
 174 -492 l 1
676 193 m 0
 828 193 922 287 922 449 c 0
 922 631 797 711 674 711 c 2
 557 711 l 1
 557 913 l 1
 655 913 l 2
 778 913 852 1008 852 1147 c 0
 852 1288 763 1356 659 1356 c 0
 534 1356 440 1290 440 1077 c 2
 440 268 l 1
 516 223 584 193 676 193 c 0
EndSplineSet
EndChar

StartChar: gamma.ssty1
Encoding: 1114274 -1 279
Width: 1177
GlyphClass: 2
Flags: HW
TopAccentHorizontal: 590
AnchorPoint: "Anchor-1" 530 340 basechar 0
LayerCount: 2
Fore
SplineSet
391 -430 m 1
 391 14 l 1
 0 1112 l 1
 274 1112 l 1
 471 500 l 2
 496 426 539 296 555 233 c 1
 563 233 l 1
 729 454 795 721 795 1112 c 1
 1061 1112 l 1
 1061 680 970 354 657 12 c 1
 657 -430 l 1
 391 -430 l 1
EndSplineSet
EndChar

StartChar: delta.ssty1
Encoding: 1114275 -1 280
Width: 1370
GlyphClass: 2
Flags: HW
TopAccentHorizontal: 684
AnchorPoint: "Anchor-1" 684 772 basechar 0
LayerCount: 2
Fore
SplineSet
682 -20 m 0
 377 -20 156 162 156 459 c 0
 156 729 317 870 512 948 c 1
 410 1007 319 1093 319 1247 c 0
 319 1429 479 1567 745 1567 c 0
 929 1567 1077 1511 1169 1421 c 1
 1067 1237 l 1
 975 1321 865 1368 756 1368 c 0
 619 1368 578 1298 578 1241 c 0
 578 1159 647 1116 803 1034 c 0
 1120 870 1214 702 1214 487 c 0
 1214 141 991 -20 682 -20 c 0
690 195 m 0
 854 195 948 319 948 489 c 0
 948 657 852 766 700 840 c 1
 530 779 424 673 424 485 c 0
 424 307 528 195 690 195 c 0
EndSplineSet
EndChar

StartChar: epsilon.ssty1
Encoding: 1114276 -1 281
Width: 1089
GlyphClass: 2
Flags: HW
TopAccentHorizontal: 604
AnchorPoint: "Anchor-1" 557 555 basechar 0
LayerCount: 2
Fore
SplineSet
606 -20 m 0
 282 -20 123 110 123 305 c 0
 123 469 224 542 367 573 c 1
 367 584 l 1
 240 619 172 700 172 825 c 0
 172 1013 315 1133 602 1133 c 0
 747 1133 895 1101 991 1044 c 1
 915 850 l 1
 811 907 720 930 618 930 c 0
 481 930 424 881 424 797 c 0
 424 703 500 668 623 668 c 2
 780 668 l 1
 780 475 l 1
 625 475 l 2
 463 475 395 426 395 328 c 0
 395 230 479 184 633 184 c 0
 762 184 857 207 961 270 c 1
 961 55 l 1
 867 2 760 -20 606 -20 c 0
EndSplineSet
EndChar

StartChar: zeta.ssty1
Encoding: 1114277 -1 282
Width: 1157
GlyphClass: 2
Flags: HW
TopAccentHorizontal: 578
AnchorPoint: "Anchor-1" 618 571 basechar 0
LayerCount: 2
Fore
SplineSet
686 -414 m 1
 743 -316 778 -233 778 -174 c 0
 778 -94 757 -57 573 -10 c 0
 288 62 158 174 158 393 c 0
 158 624 309 832 569 1135 c 2
 754 1350 l 1
 705 1340 594 1333 522 1333 c 2
 207 1333 l 1
 207 1556 l 1
 1079 1556 l 1
 1079 1376 l 1
 784 1010 l 2
 587 766 463 611 463 451 c 0
 463 326 527 262 754 211 c 0
 1006 154 1073 55 1073 -90 c 0
 1073 -201 1032 -316 971 -414 c 1
 686 -414 l 1
EndSplineSet
EndChar

StartChar: eta.ssty1
Encoding: 1114278 -1 283
Width: 1318
GlyphClass: 2
Flags: HW
TopAccentHorizontal: 696
AnchorPoint: "Anchor-1" 664 319 basechar 0
LayerCount: 2
Fore
SplineSet
887 -492 m 1
 887 668 l 2
 887 834 825 918 694 918 c 0
 504 918 440 783 440 541 c 2
 440 0 l 1
 174 0 l 1
 174 1112 l 1
 381 1112 l 1
 418 967 l 1
 432 967 l 1
 504 1082 625 1133 764 1133 c 0
 1002 1133 1153 1010 1153 725 c 2
 1153 -492 l 1
 887 -492 l 1
EndSplineSet
EndChar

StartChar: theta.ssty1
Encoding: 1114279 -1 284
Width: 1357
GlyphClass: 2
Flags: HW
TopAccentHorizontal: 680
AnchorPoint: "Anchor-1" 678 772 basechar 0
LayerCount: 2
Fore
SplineSet
678 -20 m 0
 326 -20 158 276 158 774 c 0
 158 1272 303 1567 678 1567 c 0
 1028 1567 1200 1276 1200 774 c 0
 1200 276 1053 -20 678 -20 c 0
426 883 m 1
 930 883 l 1
 920 1221 846 1364 678 1364 c 0
 508 1364 438 1221 426 883 c 1
678 180 m 0
 848 180 924 324 932 682 c 1
 424 682 l 1
 430 328 502 180 678 180 c 0
EndSplineSet
EndChar

StartChar: iota.ssty1
Encoding: 1114280 -1 285
Width: 761
GlyphClass: 2
Flags: HW
TopAccentHorizontal: 287
AnchorPoint: "Anchor-1" 446 545 basechar 0
LayerCount: 2
Fore
SplineSet
537 -20 m 0
 273 -20 168 131 168 336 c 2
 168 1112 l 1
 434 1112 l 1
 434 367 l 2
 434 232 500 195 584 195 c 0
 639 195 678 203 725 215 c 1
 725 4 l 1
 678 -10 607 -20 537 -20 c 0
EndSplineSet
EndChar

StartChar: kappa.ssty1
Encoding: 1114281 -1 286
Width: 1236
GlyphClass: 2
Flags: HW
TopAccentHorizontal: 618
AnchorPoint: "Anchor-1" 674 567 basechar 0
LayerCount: 2
Fore
SplineSet
1176 940 m 1
 988 842 832 751 705 651 c 1
 969 287 l 2
 1020 221 1061 193 1102 193 c 0
 1122 193 1142 199 1165 211 c 1
 1165 20 l 1
 1130 -3 1076 -20 1010 -20 c 0
 924 -20 860 12 813 80 c 2
 524 479 l 1
 495 446 469 410 444 373 c 1
 444 0 l 1
 174 0 l 1
 174 1112 l 1
 444 1112 l 1
 444 813 l 2
 444 776 444 740 442 705 c 1
 608 893 819 1030 1081 1157 c 1
 1176 940 l 1
EndSplineSet
EndChar

StartChar: lambda.ssty1
Encoding: 1114282 -1 287
Width: 1134
GlyphClass: 2
Flags: HW
TopAccentHorizontal: 573
AnchorPoint: "Anchor-1" 567 772 basechar 0
LayerCount: 2
Fore
SplineSet
977 -20 m 0
 838 -20 782 51 739 176 c 2
 629 506 l 2
 592 615 548 743 528 854 c 1
 522 854 l 1
 510 741 479 637 442 514 c 2
 289 0 l 1
 0 0 l 1
 401 1108 l 1
 371 1196 l 2
 328 1319 246 1352 131 1352 c 0
 84 1352 45 1345 18 1339 c 1
 18 1550 l 1
 55 1558 111 1567 174 1567 c 0
 401 1567 524 1491 616 1247 c 2
 948 365 l 2
 999 230 1020 201 1069 201 c 0
 1096 201 1121 207 1135 211 c 1
 1135 8 l 1
 1102 -8 1026 -20 977 -20 c 0
EndSplineSet
EndChar

StartChar: uni03BC.ssty1
Encoding: 1114283 -1 288
Width: 1482
GlyphClass: 2
Flags: HW
TopAccentHorizontal: 743
AnchorPoint: "Anchor-1" 741 309 basechar 0
LayerCount: 2
Fore
SplineSet
174 -492 m 1
 174 1112 l 1
 440 1112 l 1
 440 440 l 2
 440 278 508 195 643 195 c 0
 831 195 897 327 897 571 c 2
 897 1112 l 1
 1163 1112 l 1
 1163 319 l 2
 1163 229 1202 201 1247 201 c 0
 1267 201 1297 207 1309 211 c 1
 1309 6 l 1
 1289 -6 1223 -20 1178 -20 c 0
 1053 -20 971 23 930 150 c 1
 915 150 l 1
 856 37 766 -20 645 -20 c 0
 555 -20 483 15 436 70 c 1
 430 70 l 1
 436 25 440 -86 440 -172 c 2
 440 -492 l 1
 174 -492 l 1
EndSplineSet
EndChar

StartChar: nu.ssty1
Encoding: 1114284 -1 289
Width: 1177
GlyphClass: 2
Flags: HW
TopAccentHorizontal: 590
AnchorPoint: "Anchor-1" 530 555 basechar 0
LayerCount: 2
Fore
SplineSet
395 0 m 1
 0 1112 l 1
 274 1112 l 1
 471 500 l 2
 496 426 539 296 555 233 c 1
 563 233 l 1
 729 454 795 721 795 1112 c 1
 1061 1112 l 1
 1061 674 967 342 645 0 c 1
 395 0 l 1
EndSplineSet
EndChar

StartChar: xi.ssty1
Encoding: 1114285 -1 290
Width: 1101
GlyphClass: 2
Flags: HW
TopAccentHorizontal: 553
AnchorPoint: "Anchor-1" 600 571 basechar 0
LayerCount: 2
Fore
SplineSet
686 -414 m 1
 739 -316 778 -228 778 -158 c 0
 778 -78 748 -51 594 -16 c 0
 324 45 156 162 156 414 c 0
 156 621 266 752 461 809 c 1
 461 819 l 1
 301 854 221 942 221 1085 c 0
 221 1245 326 1321 514 1368 c 1
 432 1362 307 1356 256 1356 c 2
 219 1356 l 1
 219 1556 l 1
 1044 1556 l 1
 1044 1368 l 1
 977 1368 l 2
 684 1368 483 1325 483 1116 c 0
 483 993 555 911 778 911 c 2
 1001 911 l 1
 1001 711 l 1
 776 711 l 2
 526 711 428 617 428 451 c 0
 428 269 536 240 737 197 c 0
 987 144 1038 45 1038 -74 c 0
 1038 -197 1006 -297 940 -414 c 1
 686 -414 l 1
EndSplineSet
EndChar

StartChar: omicron.ssty1
Encoding: 1114286 -1 291
Width: 1376
GlyphClass: 2
Flags: HW
TopAccentHorizontal: 690
AnchorPoint: "Anchor-1" 688 555 basechar 0
LayerCount: 2
Fore
SplineSet
686 -20 m 0
 379 -20 158 188 158 557 c 0
 158 926 360 1133 692 1133 c 0
 999 1133 1221 926 1221 557 c 0
 1221 188 1014 -20 686 -20 c 0
690 195 m 0
 870 195 948 326 948 557 c 0
 948 790 870 915 688 915 c 0
 506 915 430 790 430 557 c 0
 430 326 508 195 690 195 c 0
EndSplineSet
EndChar

StartChar: pi.ssty1
Encoding: 1114287 -1 292
Width: 1474
GlyphClass: 2
Flags: HW
TopAccentHorizontal: 739
AnchorPoint: "Anchor-1" 713 545 basechar 0
LayerCount: 2
Fore
SplineSet
1184 -20 m 0
 1008 -20 901 74 901 287 c 2
 901 911 l 1
 524 911 l 1
 524 0 l 1
 258 0 l 1
 258 911 l 1
 29 911 l 1
 29 1112 l 1
 1397 1112 l 1
 1397 911 l 1
 1167 911 l 1
 1167 299 l 2
 1167 223 1209 190 1262 190 c 0
 1305 190 1345 203 1378 221 c 1
 1378 27 l 1
 1339 2 1262 -20 1184 -20 c 0
EndSplineSet
EndChar

StartChar: rho.ssty1
Encoding: 1114288 -1 293
Width: 1351
GlyphClass: 2
Flags: HW
TopAccentHorizontal: 678
AnchorPoint: "Anchor-1" 684 319 basechar 0
LayerCount: 2
Fore
SplineSet
174 -492 m 1
 174 561 l 2
 174 930 369 1133 674 1133 c 0
 996 1133 1196 926 1196 545 c 0
 1196 178 969 -20 715 -20 c 0
 611 -20 518 12 444 61 c 1
 428 61 l 1
 434 4 442 -111 442 -207 c 2
 442 -492 l 1
 174 -492 l 1
686 195 m 0
 831 195 924 307 924 545 c 0
 924 807 834 915 668 915 c 0
 516 915 442 811 442 571 c 2
 442 287 l 1
 505 226 596 195 686 195 c 0
EndSplineSet
EndChar

StartChar: uni03C2.ssty1
Encoding: 1114289 -1 294
Width: 1099
GlyphClass: 2
Flags: HW
TopAccentHorizontal: 549
AnchorPoint: "Anchor-1" 592 358 basechar 0
LayerCount: 2
Fore
SplineSet
674 -414 m 1
 725 -318 766 -230 766 -160 c 0
 766 -68 727 -51 584 -14 c 0
 310 56 158 218 158 537 c 0
 158 949 378 1133 702 1133 c 0
 821 1133 926 1108 1024 1061 c 1
 946 852 l 1
 854 889 782 913 696 913 c 0
 508 913 430 774 430 567 c 0
 430 368 477 256 713 201 c 0
 940 148 1026 82 1026 -86 c 0
 1026 -205 983 -324 928 -414 c 1
 674 -414 l 1
EndSplineSet
EndChar

StartChar: sigma.ssty1
Encoding: 1114290 -1 295
Width: 1372
GlyphClass: 2
Flags: HW
TopAccentHorizontal: 688
AnchorPoint: "Anchor-1" 725 547 basechar 0
LayerCount: 2
Fore
SplineSet
676 -20 m 0
 359 -20 158 205 158 539 c 0
 158 951 387 1114 739 1114 c 2
 1294 1114 l 1
 1294 911 l 1
 1040 911 l 1
 1149 807 1198 686 1198 518 c 0
 1198 262 1034 -20 676 -20 c 0
680 195 m 0
 858 195 928 347 928 537 c 0
 928 707 891 827 807 911 c 1
 745 911 l 2
 544 911 428 818 428 539 c 0
 428 334 498 195 680 195 c 0
EndSplineSet
EndChar

StartChar: tau.ssty1
Encoding: 1114291 -1 296
Width: 1064
GlyphClass: 2
Flags: HW
TopAccentHorizontal: 535
AnchorPoint: "Anchor-1" 508 545 basechar 0
LayerCount: 2
Fore
SplineSet
678 -20 m 0
 475 -20 313 55 313 340 c 2
 313 911 l 1
 29 911 l 1
 29 1112 l 1
 987 1112 l 1
 987 911 l 1
 580 911 l 1
 580 346 l 2
 580 237 641 193 733 193 c 0
 799 193 863 205 920 223 c 1
 920 25 l 1
 867 0 774 -20 678 -20 c 0
EndSplineSet
EndChar

StartChar: upsilon.ssty1
Encoding: 1114292 -1 297
Width: 1267
GlyphClass: 2
Flags: HW
TopAccentHorizontal: 637
AnchorPoint: "Anchor-1" 659 547 basechar 0
LayerCount: 2
Fore
SplineSet
625 -18 m 0
 248 -18 162 190 162 485 c 2
 162 1112 l 1
 428 1112 l 1
 428 481 l 2
 428 274 479 195 637 195 c 0
 807 195 891 313 891 612 c 0
 891 792 864 936 821 1112 c 1
 1090 1112 l 1
 1133 938 1157 799 1157 604 c 0
 1157 176 975 -18 625 -18 c 0
EndSplineSet
EndChar

StartChar: phi.ssty1
Encoding: 1114293 -1 298
Width: 1726
GlyphClass: 2
Flags: HW
TopAccentHorizontal: 864
AnchorPoint: "Anchor-1" 864 532 basechar 0
LayerCount: 2
Fore
SplineSet
741 -492 m 1
 741 -10 l 1
 374 23 158 238 158 555 c 0
 158 881 350 1093 741 1120 c 1
 741 1556 l 1
 991 1556 l 1
 991 1120 l 1
 1360 1089 1571 874 1571 555 c 0
 1571 238 1372 21 991 -10 c 1
 991 -492 l 1
 741 -492 l 1
741 186 m 1
 741 926 l 1
 540 901 432 764 432 555 c 0
 432 344 536 209 741 186 c 1
991 186 m 1
 1194 211 1298 346 1298 555 c 0
 1298 764 1188 897 991 922 c 1
 991 186 l 1
EndSplineSet
EndChar

StartChar: chi.ssty1
Encoding: 1114294 -1 299
Width: 1306
GlyphClass: 2
Flags: HW
TopAccentHorizontal: 690
AnchorPoint: "Anchor-1" 674 315 basechar 0
LayerCount: 2
Fore
SplineSet
59 -494 m 1
 541 293 l 1
 309 758 l 2
 260 858 224 901 158 901 c 0
 133 901 94 897 57 885 c 1
 57 1098 l 1
 102 1112 141 1124 213 1124 c 0
 358 1124 428 1057 514 887 c 2
 700 514 l 1
 1020 1112 l 1
 1290 1112 l 1
 813 289 l 1
 1024 -131 l 2
 1073 -229 1110 -270 1192 -270 c 0
 1223 -270 1253 -266 1290 -258 c 1
 1290 -465 l 1
 1241 -481 1194 -492 1118 -492 c 0
 944 -492 893 -418 793 -217 c 2
 653 63 l 1
 332 -494 l 1
 59 -494 l 1
EndSplineSet
EndChar

StartChar: psi.ssty1
Encoding: 1114295 -1 300
Width: 1634
GlyphClass: 2
Flags: HW
TopAccentHorizontal: 819
AnchorPoint: "Anchor-1" 842 532 basechar 0
LayerCount: 2
Fore
SplineSet
709 -492 m 1
 709 -18 l 1
 377 -6 162 125 162 535 c 2
 162 1112 l 1
 412 1112 l 1
 412 526 l 2
 412 270 500 204 709 188 c 1
 709 1556 l 1
 958 1556 l 1
 958 190 l 1
 1179 210 1276 309 1276 575 c 0
 1276 759 1247 922 1200 1112 c 1
 1450 1112 l 1
 1501 922 1524 758 1524 578 c 0
 1524 156 1284 0 958 -18 c 1
 958 -492 l 1
 709 -492 l 1
EndSplineSet
EndChar

StartChar: omega.ssty1
Encoding: 1114296 -1 301
Width: 1724
GlyphClass: 2
Flags: HW
TopAccentHorizontal: 858
AnchorPoint: "Anchor-1" 862 545 basechar 0
LayerCount: 2
Fore
SplineSet
547 -20 m 0
 262 -20 115 209 115 539 c 0
 115 807 199 997 305 1112 c 1
 551 1112 l 1
 449 999 365 809 365 547 c 0
 365 328 432 190 567 190 c 0
 694 190 739 286 739 444 c 2
 739 750 l 1
 985 750 l 1
 985 444 l 2
 985 282 1034 190 1157 190 c 0
 1294 190 1360 328 1360 543 c 0
 1360 799 1291 985 1174 1112 c 1
 1419 1112 l 1
 1538 983 1610 803 1610 539 c 0
 1610 209 1463 -20 1178 -20 c 0
 1010 -20 915 55 866 209 c 1
 856 209 l 1
 809 55 715 -20 547 -20 c 0
EndSplineSet
EndChar

StartChar: partialdiff.ssty1
Encoding: 1114297 -1 302
Width: 1210
GlyphClass: 2
Flags: HW
TopAccentHorizontal: 559
AnchorPoint: "Anchor-1" 623 729 basechar 0
LayerCount: 2
Fore
SplineSet
559 -16 m 0
 299 -16 131 220 131 492 c 0
 131 822 351 1028 578 1042 c 0
 662 1048 747 1028 819 979 c 1
 766 1198 663 1333 528 1333 c 0
 452 1333 363 1292 254 1190 c 1
 166 1343 l 1
 256 1447 403 1522 553 1522 c 0
 817 1522 1079 1296 1079 645 c 0
 1079 199 852 -16 559 -16 c 0
354 492 m 0
 354 306 426 168 580 168 c 0
 783 168 881 459 856 731 c 1
 799 833 696 887 600 877 c 0
 477 863 354 738 354 492 c 0
EndSplineSet
EndChar

StartChar: alpha.ssty2
Encoding: 1114298 -1 303
Width: 1546
GlyphClass: 2
Flags: HW
TopAccentHorizontal: 782
AnchorPoint: "Anchor-1" 862 557 basechar 0
LayerCount: 2
Fore
SplineSet
690 -20 m 0
 418 -20 248 191 248 553 c 0
 248 936 422 1135 694 1135 c 0
 874 1135 974 1059 1040 965 c 1
 1047 965 l 1
 1073 1116 l 1
 1329 1116 l 1
 1329 350 l 2
 1329 248 1368 221 1417 221 c 0
 1437 221 1469 227 1479 231 c 1
 1479 6 l 1
 1459 -6 1386 -20 1339 -20 c 0
 1200 -20 1122 23 1077 158 c 1
 1057 158 l 1
 996 64 870 -20 690 -20 c 0
801 213 m 0
 985 213 1051 320 1051 539 c 2
 1051 561 l 2
 1051 778 989 901 799 901 c 0
 633 901 555 776 555 553 c 0
 555 328 635 213 801 213 c 0
EndSplineSet
EndChar

StartChar: beta.ssty2
Encoding: 1114299 -1 304
Width: 1454
GlyphClass: 2
Flags: HW
TopAccentHorizontal: 748
AnchorPoint: "Anchor-1" 784 539 basechar 0
LayerCount: 2
Fore
SplineSet
244 -489 m 1
 244 1073 l 2
 244 1417 459 1567 760 1567 c 0
 1030 1567 1237 1453 1237 1174 c 0
 1237 986 1114 862 950 829 c 1
 950 823 l 1
 1165 794 1325 686 1325 436 c 0
 1325 149 1113 -18 834 -18 c 0
 705 -18 637 6 545 51 c 1
 545 -489 l 1
 244 -489 l 1
776 217 m 0
 919 217 1018 307 1018 461 c 0
 1018 629 897 696 770 696 c 2
 670 696 l 1
 670 920 l 1
 752 920 l 2
 873 920 936 1016 936 1139 c 0
 936 1272 867 1339 750 1339 c 0
 623 1339 545 1270 545 1092 c 2
 545 291 l 1
 617 248 682 217 776 217 c 0
EndSplineSet
EndChar

StartChar: gamma.ssty2
Encoding: 1114300 -1 305
Width: 1171
GlyphClass: 2
Flags: HW
TopAccentHorizontal: 586
AnchorPoint: "Anchor-1" 586 340 basechar 0
LayerCount: 2
Fore
SplineSet
436 -436 m 1
 436 33 l 1
 23 1116 l 1
 332 1116 l 1
 555 453 l 2
 571 406 604 311 618 260 c 1
 627 260 l 1
 768 459 848 702 848 1116 c 1
 1149 1116 l 1
 1149 688 1042 363 737 27 c 1
 737 -436 l 1
 436 -436 l 1
EndSplineSet
EndChar

StartChar: delta.ssty2
Encoding: 1114301 -1 306
Width: 1605
GlyphClass: 2
Flags: HW
TopAccentHorizontal: 803
AnchorPoint: "Anchor-1" 803 772 basechar 0
LayerCount: 2
Fore
SplineSet
799 -20 m 0
 480 -20 244 164 244 461 c 0
 244 711 381 866 623 954 c 1
 500 1017 414 1099 414 1249 c 0
 414 1435 573 1567 868 1567 c 0
 1048 1567 1213 1517 1319 1421 c 1
 1204 1214 l 1
 1108 1302 994 1350 881 1350 c 0
 748 1350 702 1292 702 1231 c 0
 702 1153 762 1122 922 1044 c 0
 1256 880 1362 723 1362 485 c 0
 1362 166 1137 -20 799 -20 c 0
805 209 m 0
 971 209 1061 332 1061 492 c 0
 1061 658 964 757 819 823 c 1
 647 764 543 667 543 489 c 0
 543 319 647 209 805 209 c 0
EndSplineSet
EndChar

StartChar: epsilon.ssty2
Encoding: 1114302 -1 307
Width: 1294
GlyphClass: 2
Flags: HW
TopAccentHorizontal: 719
AnchorPoint: "Anchor-1" 668 557 basechar 0
LayerCount: 2
Fore
SplineSet
709 -20 m 0
 367 -20 195 106 195 309 c 0
 195 467 299 549 453 578 c 1
 453 586 l 1
 322 621 250 704 250 827 c 0
 250 1046 443 1137 717 1137 c 0
 887 1137 1039 1104 1141 1047 c 1
 1059 840 l 1
 957 895 858 920 741 920 c 0
 600 920 539 877 539 799 c 0
 539 715 608 678 739 678 c 2
 905 678 l 1
 905 471 l 1
 731 471 l 2
 567 471 500 428 500 334 c 0
 500 248 573 199 743 199 c 0
 903 199 1002 234 1106 293 c 1
 1106 68 l 1
 1004 9 885 -20 709 -20 c 0
EndSplineSet
EndChar

StartChar: eta.ssty2
Encoding: 1114303 -1 308
Width: 1466
GlyphClass: 2
Flags: HW
TopAccentHorizontal: 774
AnchorPoint: "Anchor-1" 772 324 basechar 0
LayerCount: 2
Fore
SplineSet
999 -489 m 1
 999 659 l 2
 999 817 934 901 803 901 c 0
 613 901 545 766 545 528 c 2
 545 0 l 1
 244 0 l 1
 244 1116 l 1
 473 1116 l 1
 512 963 l 1
 530 963 l 1
 602 1080 733 1137 891 1137 c 0
 1129 1137 1300 1016 1300 725 c 2
 1300 -489 l 1
 999 -489 l 1
EndSplineSet
EndChar

StartChar: theta.ssty2
Encoding: 1114304 -1 309
Width: 1595
GlyphClass: 2
Flags: HW
TopAccentHorizontal: 799
AnchorPoint: "Anchor-1" 797 772 basechar 0
LayerCount: 2
Fore
SplineSet
797 -20 m 0
 428 -20 248 278 248 780 c 0
 248 1274 402 1567 797 1567 c 0
 1166 1567 1348 1274 1348 780 c 0
 1348 278 1192 -20 797 -20 c 0
549 895 m 1
 1047 895 l 1
 1039 1223 963 1352 799 1352 c 0
 633 1352 557 1225 549 895 c 1
797 193 m 0
 965 193 1043 328 1049 672 c 1
 547 672 l 1
 549 330 625 193 797 193 c 0
EndSplineSet
EndChar

StartChar: iota.ssty2
Encoding: 1114305 -1 310
Width: 876
GlyphClass: 2
Flags: HW
TopAccentHorizontal: 330
AnchorPoint: "Anchor-1" 530 547 basechar 0
LayerCount: 2
Fore
SplineSet
625 -20 m 0
 342 -20 236 150 236 340 c 2
 236 1116 l 1
 535 1116 l 1
 535 395 l 2
 535 256 602 217 684 217 c 0
 737 217 778 224 825 238 c 1
 825 4 l 1
 778 -10 695 -20 625 -20 c 0
EndSplineSet
EndChar

StartChar: kappa.ssty2
Encoding: 1114306 -1 311
Width: 1402
GlyphClass: 2
Flags: HW
TopAccentHorizontal: 741
AnchorPoint: "Anchor-1" 762 569 basechar 0
LayerCount: 2
Fore
SplineSet
1280 913 m 1
 1104 819 956 737 831 635 c 1
 1065 313 l 2
 1116 245 1161 223 1202 223 c 0
 1225 223 1246 230 1264 238 c 1
 1264 27 l 1
 1229 2 1166 -20 1092 -20 c 0
 1000 -20 932 14 881 86 c 2
 631 432 l 1
 600 393 572 352 545 307 c 1
 545 0 l 1
 244 0 l 1
 244 1116 l 1
 545 1116 l 1
 545 813 l 2
 545 786 545 758 543 731 c 1
 711 907 917 1038 1171 1159 c 1
 1280 913 l 1
EndSplineSet
EndChar

StartChar: lambda.ssty2
Encoding: 1114307 -1 312
Width: 1234
GlyphClass: 2
Flags: HW
TopAccentHorizontal: 625
AnchorPoint: "Anchor-1" 616 772 basechar 0
LayerCount: 2
Fore
SplineSet
1055 -20 m 0
 895 -20 825 75 784 190 c 2
 662 526 l 2
 627 624 590 731 578 809 c 1
 571 809 l 1
 557 713 531 616 498 522 c 2
 319 0 l 1
 0 0 l 1
 444 1092 l 1
 418 1161 l 2
 371 1286 293 1329 174 1329 c 0
 137 1329 90 1325 55 1315 c 1
 55 1550 l 1
 90 1558 168 1567 223 1567 c 0
 475 1567 592 1479 694 1217 c 2
 1010 410 l 2
 1076 242 1106 221 1167 221 c 0
 1192 221 1210 223 1235 229 c 1
 1235 12 l 1
 1204 -4 1104 -20 1055 -20 c 0
EndSplineSet
EndChar

StartChar: uni03BC.ssty2
Encoding: 1114308 -1 313
Width: 1628
GlyphClass: 2
Flags: HW
TopAccentHorizontal: 815
AnchorPoint: "Anchor-1" 848 313 basechar 0
LayerCount: 2
Fore
SplineSet
244 -489 m 1
 244 1116 l 1
 545 1116 l 1
 545 469 l 2
 545 301 613 215 758 215 c 0
 936 215 1004 352 1004 588 c 2
 1004 1116 l 1
 1305 1116 l 1
 1305 350 l 2
 1305 248 1344 221 1393 221 c 0
 1411 221 1444 227 1454 231 c 1
 1454 6 l 1
 1434 -6 1362 -20 1315 -20 c 0
 1178 -20 1097 25 1044 156 c 1
 1030 156 l 1
 975 41 883 -20 756 -20 c 0
 654 -20 586 17 541 78 c 1
 535 78 l 1
 541 33 545 -69 545 -145 c 2
 545 -489 l 1
 244 -489 l 1
EndSplineSet
EndChar

StartChar: nu.ssty2
Encoding: 1114309 -1 314
Width: 1310
GlyphClass: 2
Flags: HW
TopAccentHorizontal: 657
AnchorPoint: "Anchor-1" 563 557 basechar 0
LayerCount: 2
Fore
SplineSet
426 0 m 1
 0 1116 l 1
 309 1116 l 1
 532 453 l 2
 548 406 580 313 596 260 c 1
 604 260 l 1
 747 459 825 702 825 1116 c 1
 1126 1116 l 1
 1126 676 1018 342 690 0 c 1
 426 0 l 1
EndSplineSet
EndChar

StartChar: xi.ssty2
Encoding: 1114310 -1 315
Width: 1273
GlyphClass: 2
Flags: HW
TopAccentHorizontal: 639
AnchorPoint: "Anchor-1" 713 571 basechar 0
LayerCount: 2
Fore
SplineSet
788 -414 m 1
 845 -316 881 -237 881 -174 c 0
 881 -92 856 -57 688 -12 c 0
 407 64 244 174 244 416 c 0
 244 619 356 756 569 809 c 1
 569 819 l 1
 393 848 311 936 311 1077 c 0
 311 1222 403 1303 596 1346 c 1
 516 1340 428 1333 350 1333 c 2
 301 1333 l 1
 301 1556 l 1
 1184 1556 l 1
 1184 1339 l 1
 1079 1339 l 2
 809 1339 608 1311 608 1108 c 0
 608 993 680 920 895 920 c 2
 1128 920 l 1
 1128 696 l 1
 895 696 l 2
 639 696 549 604 549 457 c 0
 549 285 657 256 870 209 c 0
 1120 154 1176 39 1176 -80 c 0
 1176 -195 1141 -303 1073 -414 c 1
 788 -414 l 1
EndSplineSet
EndChar

StartChar: omicron.ssty2
Encoding: 1114311 -1 316
Width: 1615
GlyphClass: 2
Flags: HW
TopAccentHorizontal: 809
AnchorPoint: "Anchor-1" 809 557 basechar 0
LayerCount: 2
Fore
SplineSet
1372 561 m 0
 1372 184 1153 -20 807 -20 c 0
 483 -20 248 184 248 561 c 0
 248 932 469 1137 815 1137 c 0
 1145 1137 1372 921 1372 561 c 0
553 561 m 0
 553 340 631 211 811 211 c 0
 991 211 1067 340 1067 561 c 0
 1067 778 993 907 811 907 c 0
 633 907 553 784 553 561 c 0
EndSplineSet
EndChar

StartChar: pi.ssty2
Encoding: 1114312 -1 317
Width: 1667
GlyphClass: 2
Flags: HW
TopAccentHorizontal: 836
AnchorPoint: "Anchor-1" 788 547 basechar 0
LayerCount: 2
Fore
SplineSet
1278 -20 m 0
 1077 -20 973 86 973 299 c 2
 973 895 l 1
 600 895 l 1
 600 0 l 1
 301 0 l 1
 301 895 l 1
 53 895 l 1
 53 1116 l 1
 1524 1116 l 1
 1524 895 l 1
 1274 895 l 1
 1274 328 l 2
 1274 248 1317 213 1378 213 c 0
 1425 213 1474 228 1513 244 c 1
 1513 33 l 1
 1464 6 1372 -20 1278 -20 c 0
EndSplineSet
EndChar

StartChar: rho.ssty2
Encoding: 1114313 -1 318
Width: 1464
GlyphClass: 2
Flags: HW
TopAccentHorizontal: 733
AnchorPoint: "Anchor-1" 766 324 basechar 0
LayerCount: 2
Fore
SplineSet
227 -489 m 1
 227 561 l 2
 227 926 432 1137 758 1137 c 0
 1102 1137 1307 924 1307 549 c 0
 1307 182 1085 -20 823 -20 c 0
 708 -20 610 12 532 59 c 1
 512 59 l 1
 520 2 528 -109 528 -201 c 2
 528 -489 l 1
 227 -489 l 1
766 211 m 0
 903 211 1001 303 1001 547 c 0
 1001 809 908 907 754 907 c 0
 600 907 530 799 530 580 c 2
 530 309 l 1
 591 248 676 211 766 211 c 0
EndSplineSet
EndChar

StartChar: uni03C2.ssty2
Encoding: 1114314 -1 319
Width: 1294
GlyphClass: 2
Flags: HW
TopAccentHorizontal: 647
AnchorPoint: "Anchor-1" 713 360 basechar 0
LayerCount: 2
Fore
SplineSet
776 -416 m 1
 837 -310 868 -233 868 -176 c 0
 868 -86 834 -55 662 -12 c 0
 410 51 248 205 248 551 c 0
 248 950 485 1137 823 1137 c 0
 950 1137 1065 1114 1178 1061 c 1
 1092 834 l 1
 990 875 913 899 827 899 c 0
 628 899 553 770 553 580 c 0
 553 375 592 266 838 211 c 0
 1067 160 1163 78 1163 -94 c 0
 1163 -207 1116 -330 1061 -416 c 1
 776 -416 l 1
EndSplineSet
EndChar

StartChar: sigma.ssty2
Encoding: 1114315 -1 320
Width: 1562
GlyphClass: 2
Flags: HW
TopAccentHorizontal: 782
AnchorPoint: "Anchor-1" 850 549 basechar 0
LayerCount: 2
Fore
SplineSet
799 -20 m 0
 465 -20 248 195 248 549 c 0
 248 930 479 1118 856 1118 c 2
 1454 1118 l 1
 1454 895 l 1
 1202 895 l 1
 1306 797 1356 690 1356 520 c 0
 1356 250 1176 -20 799 -20 c 0
803 211 m 0
 983 211 1053 348 1053 549 c 0
 1053 727 1010 827 922 895 c 1
 860 895 l 2
 670 895 553 807 553 543 c 0
 553 348 623 211 803 211 c 0
EndSplineSet
EndChar

StartChar: tau.ssty2
Encoding: 1114316 -1 321
Width: 1169
GlyphClass: 2
Flags: HW
TopAccentHorizontal: 586
AnchorPoint: "Anchor-1" 547 549 basechar 0
LayerCount: 2
Fore
SplineSet
717 -18 m 0
 498 -18 344 61 344 352 c 2
 344 893 l 1
 45 893 l 1
 45 1116 l 1
 1049 1116 l 1
 1049 893 l 1
 645 893 l 1
 645 365 l 2
 645 263 695 215 791 215 c 0
 859 215 924 229 987 252 c 1
 987 33 l 1
 924 4 828 -18 717 -18 c 0
EndSplineSet
EndChar

StartChar: upsilon.ssty2
Encoding: 1114317 -1 322
Width: 1433
GlyphClass: 2
Flags: HW
TopAccentHorizontal: 721
AnchorPoint: "Anchor-1" 752 549 basechar 0
LayerCount: 2
Fore
SplineSet
721 -18 m 0
 322 -18 227 199 227 508 c 2
 227 1116 l 1
 526 1116 l 1
 526 494 l 2
 526 289 584 217 731 217 c 0
 897 217 977 326 977 621 c 0
 977 793 950 940 903 1116 c 1
 1208 1116 l 1
 1253 948 1278 796 1278 612 c 0
 1278 178 1092 -18 721 -18 c 0
EndSplineSet
EndChar

StartChar: phi.ssty2
Encoding: 1114318 -1 323
Width: 2000
GlyphClass: 2
Flags: HW
TopAccentHorizontal: 1001
AnchorPoint: "Anchor-1" 999 532 basechar 0
LayerCount: 2
Fore
SplineSet
862 -489 m 1
 862 -6 l 1
 465 29 248 250 248 559 c 0
 248 876 440 1097 864 1122 c 1
 864 1556 l 1
 1139 1556 l 1
 1139 1122 l 1
 1538 1089 1753 874 1753 559 c 0
 1753 250 1551 25 1139 -6 c 1
 1139 -489 l 1
 862 -489 l 1
864 195 m 1
 864 922 l 1
 661 906 551 770 551 559 c 0
 551 348 657 209 864 195 c 1
1139 195 m 1
 1342 211 1448 350 1448 559 c 0
 1448 762 1340 904 1139 920 c 1
 1139 195 l 1
EndSplineSet
EndChar

StartChar: chi.ssty2
Encoding: 1114319 -1 324
Width: 1435
GlyphClass: 2
Flags: HW
TopAccentHorizontal: 758
AnchorPoint: "Anchor-1" 750 319 basechar 0
LayerCount: 2
Fore
SplineSet
117 -489 m 1
 596 299 l 1
 350 760 l 2
 301 852 267 889 199 889 c 0
 168 889 131 882 90 868 c 1
 90 1100 l 1
 137 1116 186 1133 266 1133 c 0
 422 1133 502 1069 596 895 c 2
 786 541 l 1
 1098 1116 l 1
 1409 1116 l 1
 920 293 l 1
 1143 -125 l 2
 1192 -217 1224 -250 1298 -250 c 0
 1327 -250 1356 -248 1401 -238 c 1
 1401 -459 l 1
 1340 -479 1298 -492 1210 -492 c 0
 1040 -492 985 -426 881 -229 c 2
 731 49 l 1
 428 -489 l 1
 117 -489 l 1
EndSplineSet
EndChar

StartChar: psi.ssty2
Encoding: 1114320 -1 325
Width: 1828
GlyphClass: 2
Flags: HW
TopAccentHorizontal: 915
AnchorPoint: "Anchor-1" 965 532 basechar 0
LayerCount: 2
Fore
SplineSet
813 -492 m 1
 813 -16 l 1
 453 -4 227 131 227 543 c 2
 227 1116 l 1
 508 1116 l 1
 508 532 l 2
 508 286 602 229 813 215 c 1
 813 1556 l 1
 1096 1556 l 1
 1096 217 l 1
 1325 233 1421 328 1421 582 c 0
 1421 764 1388 930 1337 1116 c 1
 1622 1116 l 1
 1679 930 1704 764 1704 582 c 0
 1704 160 1452 2 1096 -16 c 1
 1096 -492 l 1
 813 -492 l 1
EndSplineSet
EndChar

StartChar: omega.ssty2
Encoding: 1114321 -1 326
Width: 1890
GlyphClass: 2
Flags: HW
TopAccentHorizontal: 940
AnchorPoint: "Anchor-1" 967 547 basechar 0
LayerCount: 2
Fore
SplineSet
627 -20 m 0
 316 -20 160 188 160 532 c 0
 160 813 242 995 346 1116 c 1
 641 1116 l 1
 522 995 444 799 444 543 c 0
 444 316 512 209 643 209 c 0
 758 209 827 287 827 451 c 2
 827 768 l 1
 1108 768 l 1
 1108 451 l 2
 1108 289 1173 209 1288 209 c 0
 1438 209 1489 349 1489 539 c 0
 1489 818 1407 1003 1294 1116 c 1
 1587 1116 l 1
 1704 983 1776 811 1776 532 c 0
 1776 190 1618 -20 1307 -20 c 0
 1125 -20 1024 59 973 223 c 1
 961 223 l 1
 912 61 809 -20 627 -20 c 0
EndSplineSet
EndChar

StartChar: partialdiff.ssty2
Encoding: 1114322 -1 327
Width: 1415
GlyphClass: 2
Flags: HW
TopAccentHorizontal: 653
AnchorPoint: "Anchor-1" 758 729 basechar 0
LayerCount: 2
Fore
SplineSet
662 -53 m 0
 381 -53 207 195 207 471 c 0
 207 809 434 1022 678 1038 c 0
 752 1044 822 1030 885 1001 c 1
 830 1187 737 1296 631 1296 c 0
 561 1296 473 1256 350 1133 c 1
 240 1323 l 1
 320 1423 481 1518 655 1518 c 0
 936 1518 1208 1287 1208 625 c 0
 1208 160 963 -53 662 -53 c 0
483 471 m 0
 483 291 549 164 682 164 c 0
 858 164 955 441 932 709 c 1
 864 824 766 846 707 840 c 0
 598 828 483 709 483 471 c 0
EndSplineSet
EndChar

StartChar: u1D504
Encoding: 120068 120068 328
Width: 1413
GlyphClass: 2
Flags: HW
TopAccentHorizontal: 643
AnchorPoint: "Anchor-1" 707 717 basechar 0
LayerCount: 2
Fore
SplineSet
453 -55 m 1
 422 -25 l 1
 440 -7 451 6 451 10 c 0
 451 39 209 244 150 244 c 0
 134 244 111 239 80 229 c 1
 66 274 l 1
 515 403 707 585 707 907 c 0
 707 1153 588 1305 395 1305 c 0
 241 1305 119 1173 119 985 c 0
 119 803 227 682 432 645 c 1
 418 602 l 1
 191 635 61 791 61 1022 c 0
 61 1290 230 1485 451 1485 c 0
 687 1485 854 1284 854 985 c 0
 854 713 697 506 367 336 c 1
 559 172 l 2
 590 145 618 131 647 131 c 0
 670 131 715 147 778 180 c 0
 841 213 920 262 1014 334 c 1
 1014 1178 l 2
 1014 1244 1007 1305 993 1364 c 1
 1030 1376 l 1
 1065 1268 l 1
 1083 1385 1192 1489 1315 1489 c 1
 1315 1450 l 1
 1223 1407 1176 1309 1176 1155 c 2
 1176 332 l 2
 1176 254 1186 211 1231 211 c 0
 1254 211 1284 227 1323 258 c 1
 1352 229 l 1
 1252 116 1173 25 1118 -55 c 1
 1081 -43 l 1
 1085 -31 1090 -12 1090 -4 c 0
 1090 6 1085 15 1077 25 c 0
 1034 74 1016 141 1016 274 c 1
 928 208 821 147 696 84 c 0
 571 21 488 -28 453 -55 c 1
EndSplineSet
AlternateSubs2: "'ssty' Math Script Style lookup 8 subtable" u1D504.ssty1 u1D504.ssty2
AlternateSubs2: "'aalt' Access All Alternates lookup 1 subtable" u1D504.ssty1 u1D504.ssty2
EndChar

StartChar: u1D505
Encoding: 120069 120069 329
Width: 1669
GlyphClass: 2
Flags: HW
TopAccentHorizontal: 786
AnchorPoint: "Anchor-1" 834 721 basechar 0
LayerCount: 2
Fore
SplineSet
823 -47 m 0
 788 -47 754 -37 721 -12 c 0
 655 35 352 250 248 250 c 0
 182 250 131 207 131 150 c 0
 131 136 137 113 147 84 c 1
 111 61 l 1
 95 90 86 121 86 150 c 0
 86 261 178 345 317 365 c 0
 456 385 628 465 698 598 c 0
 733 664 752 746 752 844 c 0
 752 1153 608 1329 393 1329 c 0
 246 1329 121 1208 121 1042 c 0
 121 854 269 696 455 684 c 1
 440 637 l 1
 219 664 72 836 72 1057 c 0
 72 1305 242 1485 465 1485 c 0
 623 1485 748 1409 840 1253 c 1
 912 1292 985 1329 1059 1366 c 0
 1131 1403 1202 1444 1274 1489 c 1
 1303 1456 l 1
 1285 1442 1274 1427 1274 1413 c 0
 1274 1401 1289 1370 1307 1333 c 0
 1334 1282 1374 1217 1409 1174 c 0
 1438 1137 1461 1120 1473 1120 c 0
 1485 1120 1500 1125 1518 1135 c 1
 1538 1100 l 1
 1219 905 l 1
 1459 856 1597 696 1597 483 c 0
 1597 284 1485 113 1221 23 c 0
 1088 -22 956 -47 823 -47 c 0
922 795 m 1
 1049 863 1140 913 1206 952 c 0
 1272 991 1307 1014 1307 1022 c 0
 1307 1051 1119 1317 1092 1317 c 0
 1063 1317 985 1280 860 1208 c 1
 905 1102 928 997 928 897 c 0
 928 862 926 832 922 795 c 1
1081 47 m 0
 1284 47 1440 196 1440 399 c 0
 1440 618 1266 770 1028 770 c 0
 989 770 952 764 913 750 c 1
 888 607 840 532 750 475 c 0
 703 446 602 405 446 354 c 1
 518 325 592 284 664 233 c 0
 809 129 940 47 1081 47 c 0
EndSplineSet
AlternateSubs2: "'ssty' Math Script Style lookup 8 subtable" u1D505.ssty1 u1D505.ssty2
AlternateSubs2: "'aalt' Access All Alternates lookup 1 subtable" u1D505.ssty1 u1D505.ssty2
EndChar

StartChar: uni212D
Encoding: 8493 8493 330
Width: 1304
GlyphClass: 2
Flags: HW
TopAccentHorizontal: 641
AnchorPoint: "Anchor-1" 657 719 basechar 0
LayerCount: 2
Fore
SplineSet
784 -49 m 0
 348 -49 72 277 72 803 c 0
 72 1219 236 1487 498 1487 c 0
 594 1487 686 1429 713 1341 c 1
 744 1378 773 1412 791 1430 c 0
 830 1473 844 1487 862 1487 c 0
 885 1487 928 1466 1010 1425 c 0
 1071 1394 1114 1376 1137 1376 c 0
 1157 1376 1179 1388 1204 1413 c 1
 1237 1389 l 1
 1133 1253 l 2
 1106 1220 1095 1214 1081 1214 c 0
 1063 1214 1000 1247 926 1286 c 0
 863 1319 836 1329 811 1329 c 0
 782 1329 747 1302 702 1251 c 0
 645 1185 612 1135 612 1108 c 0
 612 1073 627 1041 764 797 c 0
 887 578 903 530 903 489 c 0
 903 458 895 428 819 338 c 0
 782 295 729 238 651 158 c 1
 704 144 760 137 821 137 c 0
 966 137 1100 172 1217 246 c 1
 1243 211 l 1
 940 -39 l 1
 901 -45 847 -49 784 -49 c 0
219 893 m 0
 219 518 352 270 590 178 c 1
 725 330 741 393 741 430 c 0
 741 471 731 514 676 610 c 2
 512 901 l 2
 469 977 465 996 465 1014 c 0
 465 1034 481 1061 518 1108 c 0
 547 1145 617 1227 680 1303 c 1
 651 1391 584 1440 502 1440 c 0
 340 1440 219 1247 219 893 c 0
EndSplineSet
AlternateSubs2: "'ssty' Math Script Style lookup 8 subtable" uni212D.ssty1 uni212D.ssty2
AlternateSubs2: "'aalt' Access All Alternates lookup 1 subtable" uni212D.ssty1 uni212D.ssty2
EndChar

StartChar: u1D507
Encoding: 120071 120071 331
Width: 1644
GlyphClass: 2
Flags: HW
TopAccentHorizontal: 758
AnchorPoint: "Anchor-1" 821 748 basechar 0
LayerCount: 2
Fore
SplineSet
961 -47 m 0
 895 -47 813 -15 713 53 c 2
 494 203 l 2
 437 242 385 260 342 260 c 0
 293 260 237 235 176 188 c 1
 152 217 l 1
 265 330 367 385 459 385 c 0
 482 385 504 383 524 379 c 1
 649 430 713 479 713 526 c 0
 713 557 684 629 612 731 c 2
 557 811 l 2
 498 897 467 952 467 991 c 0
 467 1114 665 1231 956 1262 c 1
 794 1348 642 1389 492 1389 c 0
 269 1389 119 1243 119 1038 c 0
 119 909 180 823 305 776 c 1
 289 733 l 1
 144 788 72 895 72 1051 c 0
 72 1332 295 1542 602 1542 c 0
 932 1542 1246 1362 1432 1061 c 0
 1526 909 1573 756 1573 598 c 0
 1573 342 1452 154 1237 39 c 0
 1131 -18 1039 -47 961 -47 c 0
1102 82 m 0
 1309 82 1483 258 1483 469 c 0
 1483 733 1325 1012 1018 1223 c 1
 895 1217 635 1162 635 1051 c 0
 635 1024 647 993 674 954 c 2
 774 803 l 2
 850 690 887 612 887 569 c 0
 887 526 828 475 715 418 c 2
 584 350 l 1
 633 321 680 293 729 258 c 0
 784 219 825 191 862 166 c 0
 952 109 1014 82 1102 82 c 0
EndSplineSet
AlternateSubs2: "'ssty' Math Script Style lookup 8 subtable" u1D507.ssty1 u1D507.ssty2
AlternateSubs2: "'aalt' Access All Alternates lookup 1 subtable" u1D507.ssty1 u1D507.ssty2
EndChar

StartChar: u1D508
Encoding: 120072 120072 332
Width: 1304
GlyphClass: 2
Flags: HW
TopAccentHorizontal: 686
AnchorPoint: "Anchor-1" 657 719 basechar 0
LayerCount: 2
Fore
SplineSet
690 283 m 0
 571 283 485 354 440 489 c 1
 487 506 l 1
 524 395 588 330 690 330 c 0
 801 330 854 408 854 498 c 0
 854 576 820 676 754 762 c 2
 608 956 l 2
 547 1038 528 1067 528 1087 c 0
 528 1107 543 1137 582 1186 c 0
 605 1215 641 1258 680 1303 c 1
 651 1391 584 1440 502 1440 c 0
 340 1440 219 1247 219 893 c 0
 219 410 440 137 821 137 c 0
 966 137 1100 172 1217 246 c 1
 1243 211 l 1
 940 -39 l 1
 901 -45 847 -49 784 -49 c 0
 348 -49 72 277 72 803 c 0
 72 1219 236 1487 498 1487 c 0
 594 1487 686 1429 713 1341 c 1
 744 1378 772 1412 788 1430 c 0
 827 1473 844 1487 862 1487 c 0
 880 1487 912 1477 971 1452 c 0
 1022 1432 1059 1417 1100 1417 c 0
 1123 1417 1144 1431 1167 1462 c 1
 1202 1442 l 1
 1120 1294 l 2
 1102 1261 1085 1251 1067 1251 c 0
 1044 1251 985 1272 905 1307 c 0
 858 1327 828 1337 803 1337 c 0
 772 1337 752 1321 721 1282 c 0
 682 1233 676 1213 676 1186 c 0
 676 1166 688 1132 756 1040 c 2
 864 891 l 1
 915 932 l 2
 981 985 1010 1020 1028 1065 c 1
 1067 1065 l 1
 1102 1010 1130 975 1206 948 c 1
 1206 909 l 1
 1161 878 1130 844 1110 801 c 1
 1071 801 l 1
 1042 848 1020 870 952 903 c 1
 891 854 l 1
 965 752 991 700 991 680 c 0
 991 668 986 654 961 623 c 0
 928 582 917 551 911 498 c 0
 893 348 805 283 690 283 c 0
EndSplineSet
AlternateSubs2: "'ssty' Math Script Style lookup 8 subtable" u1D508.ssty1 u1D508.ssty2
AlternateSubs2: "'aalt' Access All Alternates lookup 1 subtable" u1D508.ssty1 u1D508.ssty2
EndChar

StartChar: u1D509
Encoding: 120073 120073 333
Width: 1308
GlyphClass: 2
Flags: HW
TopAccentHorizontal: 639
AnchorPoint: "Anchor-1" 649 553 basechar 0
LayerCount: 2
Fore
SplineSet
627 -393 m 0
 389 -393 209 -244 209 -47 c 0
 209 49 264 147 344 225 c 0
 385 264 403 303 403 340 c 0
 403 395 364 434 307 434 c 0
 260 434 226 407 201 354 c 1
 158 373 l 1
 195 445 244 481 307 481 c 0
 399 481 471 405 471 301 c 0
 471 205 405 111 342 23 c 0
 311 -18 297 -65 297 -106 c 0
 297 -235 435 -344 623 -344 c 0
 795 -344 918 -235 918 -53 c 0
 918 70 850 193 752 326 c 0
 705 389 651 456 594 526 c 0
 504 637 463 729 463 807 c 0
 463 930 565 1108 778 1288 c 1
 647 1343 530 1372 428 1372 c 0
 235 1372 100 1247 100 1075 c 0
 100 973 157 897 270 852 c 1
 254 807 l 1
 119 862 51 954 51 1083 c 0
 51 1316 265 1501 541 1501 c 0
 701 1501 880 1447 1077 1341 c 0
 1112 1323 1139 1311 1155 1311 c 0
 1169 1311 1192 1325 1219 1356 c 1
 1247 1325 l 1
 1081 1159 l 2
 1067 1145 1057 1143 1049 1143 c 0
 1033 1143 993 1165 952 1190 c 0
 913 1215 864 1245 823 1268 c 1
 671 1141 596 1022 596 913 c 0
 596 841 635 760 711 664 c 1
 801 725 862 783 891 834 c 1
 930 834 l 1
 955 791 999 766 1067 758 c 1
 1067 711 l 1
 1026 697 994 661 967 608 c 1
 924 608 l 1
 891 651 858 672 823 672 c 0
 807 672 780 658 741 627 c 1
 839 504 907 416 942 365 c 0
 1014 261 1059 162 1059 51 c 0
 1059 -213 883 -393 627 -393 c 0
EndSplineSet
AlternateSubs2: "'ssty' Math Script Style lookup 8 subtable" u1D509.ssty1 u1D509.ssty2
AlternateSubs2: "'aalt' Access All Alternates lookup 1 subtable" u1D509.ssty1 u1D509.ssty2
EndChar

StartChar: u1D50A
Encoding: 120074 120074 334
Width: 1501
GlyphClass: 2
Flags: HW
TopAccentHorizontal: 750
AnchorPoint: "Anchor-1" 750 735 basechar 0
LayerCount: 2
Fore
SplineSet
827 -47 m 0
 366 -47 72 272 72 764 c 0
 72 1190 291 1485 594 1485 c 0
 645 1485 692 1476 737 1458 c 1
 809 1518 l 1
 836 1491 l 1
 818 1477 800 1456 786 1436 c 1
 829 1413 868 1389 901 1362 c 1
 872 1323 l 1
 841 1354 803 1379 758 1397 c 1
 738 1366 725 1338 725 1311 c 0
 725 1278 745 1223 788 1141 c 0
 831 1061 852 997 852 954 c 0
 852 919 825 854 772 762 c 1
 811 793 850 815 897 831 c 0
 991 864 1117 917 1178 995 c 0
 1211 1036 1227 1073 1227 1110 c 0
 1227 1141 1213 1169 1184 1196 c 2
 1069 1305 l 2
 1049 1323 1038 1336 1038 1346 c 0
 1038 1356 1048 1372 1071 1397 c 2
 1161 1493 l 1
 1190 1470 l 1
 1184 1460 1178 1450 1178 1446 c 0
 1178 1430 1212 1387 1282 1317 c 0
 1350 1249 1364 1243 1372 1243 c 0
 1378 1243 1389 1245 1399 1249 c 1
 1417 1227 l 1
 1376 1194 1331 1141 1282 1063 c 0
 1233 985 1186 934 1147 899 c 1
 1327 817 1430 667 1430 489 c 0
 1430 167 1192 -47 827 -47 c 0
528 678 m 0
 624 678 692 736 692 840 c 0
 692 891 672 959 631 1047 c 0
 590 1135 567 1190 567 1208 c 0
 567 1257 602 1311 684 1403 c 2
 700 1421 l 1
 669 1429 639 1434 610 1434 c 0
 372 1434 246 1239 246 872 c 2
 246 864 l 1
 355 739 446 678 528 678 c 0
850 -2 m 0
 1096 -2 1270 160 1270 383 c 0
 1270 610 1116 776 938 776 c 0
 895 776 854 768 811 739 c 0
 733 686 645 627 545 627 c 0
 449 627 350 682 248 793 c 1
 303 271 518 -2 850 -2 c 0
EndSplineSet
AlternateSubs2: "'ssty' Math Script Style lookup 8 subtable" u1D50A.ssty1 u1D50A.ssty2
AlternateSubs2: "'aalt' Access All Alternates lookup 1 subtable" u1D50A.ssty1 u1D50A.ssty2
EndChar

